<svg width="340" height="389" viewBox="0 0 340 389" fill="none" xmlns="http://www.w3.org/2000/svg">
<mask id="mask0_4326_611" style="mask-type:luminance" maskUnits="userSpaceOnUse" x="0" y="0" width="340" height="389">
<path d="M339.352 0.460938H0.568993V388.617H339.352V0.460938Z" fill="white"/>
</mask>
<g mask="url(#mask0_4326_611)">
<path d="M89.992 181.332C89.9735 174.807 85.6697 168.274 77.0685 163.289C59.8504 153.312 31.9616 153.299 14.7642 163.269C6.16121 168.254 1.86871 174.795 1.88252 181.332V195.954C1.89633 202.486 6.20466 209.012 14.8016 213.998C32.0196 223.983 59.9158 223.989 77.1081 214.018C85.7111 209.033 90.0012 202.492 89.9901 195.952V181.331L89.992 181.332Z" fill="white"/>
<path d="M45.988 222.775C34.4592 222.775 22.9286 220.229 14.1459 215.136C5.40861 210.072 0.588696 203.26 0.572862 195.958V181.335C0.557027 174.021 5.36516 167.199 14.1104 162.131C31.632 151.972 60.1708 151.979 77.724 162.151C86.4614 167.215 91.2836 174.025 91.3038 181.331V195.954C91.3149 203.271 86.5075 210.091 77.7663 215.158C69.0086 220.237 57.5001 222.777 45.9898 222.777L45.988 222.775ZM45.8812 157.105C34.844 157.105 23.8152 159.539 15.42 164.406C7.52232 168.982 3.17845 174.995 3.19226 181.329V195.932C3.20607 202.276 7.56181 208.281 15.4576 212.858C32.2857 222.62 59.6516 222.623 76.4563 212.877C84.3496 208.301 88.6939 202.29 88.6838 195.952V181.332C88.6663 175.003 84.31 169 76.4149 164.423C67.9932 159.545 56.933 157.104 45.8812 157.104V157.105Z" fill="#03030F"/>
<path d="M89.9919 195.954V181.333C89.9745 174.807 85.6697 168.274 77.0685 163.289C73.7184 161.351 69.9614 159.797 65.9632 158.611V218.708C69.9752 217.516 73.7543 215.969 77.1099 214.018C85.713 209.033 90.0039 202.492 89.9919 195.952V195.954Z" fill="#03030F"/>
<path d="M65.9632 220.025C65.6825 220.025 65.4081 219.935 65.1789 219.763C64.8493 219.515 64.6532 219.124 64.6532 218.71V158.613C64.6532 158.198 64.8466 157.808 65.1789 157.56C65.5149 157.314 65.9448 157.241 66.3324 157.352C70.5423 158.599 74.3739 160.213 77.7231 162.152C86.4596 167.218 91.2817 174.028 91.302 181.332V195.954C91.313 203.274 86.5056 210.093 77.7645 215.16C74.4577 217.082 70.6114 218.701 66.3342 219.973C66.2118 220.011 66.0875 220.028 65.9632 220.028V220.025ZM67.2723 160.398V216.923C70.6786 215.803 73.7598 214.448 76.4526 212.882C84.3477 208.304 88.6921 202.294 88.6819 195.956V181.335C88.6644 175.009 84.3091 169.004 76.413 164.429C73.6926 162.857 70.6252 161.504 67.2723 160.4V160.398Z" fill="#03030F"/>
<path d="M77.1099 199.399C94.3004 189.436 94.2866 173.268 77.0685 163.289C59.8513 153.312 31.9625 153.299 14.7643 163.269C-2.42969 173.24 -2.41589 189.4 14.8018 199.378C32.0196 209.364 59.9158 209.369 77.1081 199.399H77.1099Z" fill="white"/>
<path d="M45.988 208.156C34.4592 208.156 22.9268 205.608 14.146 200.517C5.39095 195.444 0.569 188.621 0.569 181.307C0.569 174.004 5.37713 167.194 14.1105 162.129C31.632 151.969 60.1708 151.977 77.7249 162.149C86.4798 167.223 91.3038 174.045 91.3038 181.363C91.3038 188.68 86.4955 195.474 77.7663 200.535C69.0068 205.614 57.5001 208.154 45.9898 208.154L45.988 208.156ZM45.8812 157.107C34.844 157.107 23.8152 159.541 15.4201 164.408C7.53227 168.983 3.1884 174.983 3.1884 181.31C3.1884 187.643 7.54811 193.656 15.4577 198.241C32.2866 208.001 59.6516 208.007 76.4563 198.26C84.3422 193.689 88.6838 187.689 88.6838 181.365C88.6838 175.041 84.3265 169.012 76.4149 164.427C67.9941 159.549 56.933 157.107 45.8812 157.107Z" fill="#03030F"/>
<path d="M47.6552 222.783C46.9316 222.783 46.3452 222.194 46.3452 221.468V206.847C46.3452 206.121 46.9316 205.532 47.6552 205.532C48.3779 205.532 48.9643 206.121 48.9643 206.847V221.468C48.9643 222.194 48.3779 222.783 47.6552 222.783ZM38.5007 222.434C37.778 222.434 37.1907 221.845 37.1907 221.119V206.498C37.1907 205.772 37.778 205.183 38.5007 205.183C39.2234 205.183 39.8107 205.772 39.8107 206.498V221.119C39.8107 221.845 39.2234 222.434 38.5007 222.434ZM56.8087 222.023C56.0861 222.023 55.4987 221.434 55.4987 220.709V206.088C55.4987 205.361 56.0861 204.773 56.8087 204.773C57.5314 204.773 58.1188 205.361 58.1188 206.088V220.709C58.1188 221.434 57.5314 222.023 56.8087 222.023ZM29.3443 220.921C28.6217 220.921 28.0352 220.332 28.0352 219.606V204.985C28.0352 204.259 28.6217 203.67 29.3443 203.67C30.0679 203.67 30.6544 204.259 30.6544 204.985V219.606C30.6544 220.332 30.0679 220.921 29.3443 220.921ZM20.1908 217.976C19.4681 217.976 18.8807 217.387 18.8807 216.661V202.04C18.8807 201.314 19.4681 200.726 20.1908 200.726C20.9134 200.726 21.5008 201.314 21.5008 202.04V216.661C21.5008 217.387 20.9134 217.976 20.1908 217.976ZM11.0366 212.82C10.3136 212.82 9.72699 212.231 9.72699 211.505V196.884C9.72699 196.158 10.3136 195.569 11.0366 195.569C11.7597 195.569 12.3463 196.158 12.3463 196.884V211.505C12.3463 212.231 11.7597 212.82 11.0366 212.82Z" fill="#03030F"/>
<path d="M34.1987 188.593C30.2318 186.293 29.6371 182.773 32.4146 180.109L41.4402 185.349L47.8328 184.355L36.2056 177.617L39.5143 175.699L48.8023 181.081L55.1968 180.088L43.8227 173.499C48.4174 171.889 54.4879 172.232 58.4548 174.535C61.7119 176.425 62.7724 179.239 61.317 181.704L67.3718 185.209C67.4601 185.135 67.5633 185.059 67.6406 184.984C71.8284 180.498 70.3996 174.843 64.1653 171.227C57.0306 167.098 45.8499 166.736 38.0109 170.132L34.9969 168.385L28.5977 169.371L33.7955 172.383L30.4868 174.3L27.6357 172.643L21.2439 173.637L26.5991 176.738C20.7404 181.285 21.3664 187.764 28.4955 191.898C34.7382 195.514 44.4883 196.342 52.2205 193.919C52.3705 193.871 52.493 193.811 52.6228 193.763L46.5725 190.251C42.3193 191.099 37.4576 190.482 34.2024 188.593H34.1987Z" fill="#03030F"/>
<path d="M21.2476 298.476C18.7767 298.476 16.3072 297.919 14.3812 296.805C12.2951 295.593 11.1474 293.908 11.1474 292.056C11.1474 290.207 12.2951 288.525 14.3733 287.32C18.2198 285.091 24.2506 285.091 28.1061 287.33C30.1867 288.532 31.3338 290.215 31.3338 292.069C31.3338 293.924 30.1904 295.599 28.1098 296.805C26.1858 297.918 23.7148 298.476 21.2458 298.476H21.2476ZM21.2283 288.294C19.2066 288.294 17.1863 288.728 15.6829 289.602C14.4661 290.305 13.7688 291.201 13.7668 292.057C13.7668 292.916 14.4681 293.817 15.6909 294.53C18.7031 296.269 23.7922 296.277 26.8026 294.527C28.0196 293.824 28.7165 292.928 28.7165 292.071C28.7165 291.215 28.0178 290.314 26.797 289.611C25.2872 288.734 23.2582 288.296 21.2301 288.296L21.2283 288.294Z" fill="#03030F"/>
<path d="M206.34 388.617C206.245 388.617 206.146 388.607 206.049 388.583C203.607 388.028 200.704 387.734 197.656 387.734H197.604C194.575 387.734 191.694 388.026 189.264 388.577C188.734 388.704 188.193 388.484 187.893 388.036C187.589 387.592 187.589 387.002 187.893 386.556C188.739 385.309 189.183 383.828 189.175 382.269C189.175 380.704 188.729 379.219 187.884 377.972C187.579 377.527 187.579 376.939 187.884 376.493C188.184 376.044 188.729 375.822 189.254 375.951C191.686 376.502 194.572 376.796 197.596 376.796C197.63 376.8 197.661 376.8 197.695 376.796C200.732 376.796 203.613 376.505 206.037 375.953C206.573 375.84 207.108 376.048 207.408 376.496C207.712 376.941 207.712 377.529 207.408 377.975C206.566 379.219 206.122 380.701 206.126 382.263C206.13 383.832 206.576 385.317 207.418 386.561C207.723 387.004 207.723 387.593 207.418 388.04C207.173 388.407 206.762 388.615 206.337 388.615L206.34 388.617ZM197.656 385.105C199.882 385.105 202.041 385.255 204.026 385.543C203.685 384.502 203.511 383.403 203.509 382.273C203.504 381.14 203.682 380.038 204.025 378.997C202.039 379.285 199.945 379.459 197.649 379.429C195.542 379.505 193.266 379.284 191.279 378.995C191.62 380.036 191.796 381.139 191.796 382.269C191.801 383.396 191.627 384.498 191.285 385.539C193.274 385.255 195.496 385.043 197.656 385.107V385.105Z" fill="#03030F"/>
<path d="M320.711 218.547C319.631 218.547 318.464 218.202 317.276 217.514C313.423 215.281 310.408 210.039 310.41 205.582C310.406 203.174 311.279 201.338 312.873 200.412C314.47 199.482 316.499 199.637 318.59 200.846C322.44 203.079 325.459 208.32 325.459 212.781C325.459 215.19 324.578 217.028 322.985 217.952C322.296 218.348 321.53 218.547 320.709 218.547H320.711ZM315.153 202.449C314.787 202.449 314.463 202.528 314.187 202.687C313.45 203.114 313.027 204.17 313.032 205.582C313.027 209.07 315.572 213.49 318.588 215.238C319.809 215.946 320.927 216.104 321.678 215.674C322.418 215.245 322.842 214.19 322.842 212.781C322.842 209.292 320.297 204.872 317.282 203.123C316.512 202.676 315.779 202.449 315.154 202.449H315.153Z" fill="#03030F"/>
<path d="M50.6637 104.786C50.2089 104.786 49.7707 104.55 49.5277 104.13C49.1659 103.499 49.3813 102.696 50.0073 102.333L62.291 95.2254C62.9206 94.8593 63.7188 95.0806 64.0806 95.7076C64.4415 96.3382 64.2261 97.1413 63.6001 97.5045L51.3173 104.612C51.1121 104.731 50.8865 104.788 50.6637 104.788V104.786Z" fill="#03030F"/>
<path d="M62.952 111.905C62.4981 111.905 62.0599 111.672 61.8168 111.247L49.5277 89.8991C49.1659 89.2703 49.3813 88.4654 50.0073 88.1031C50.6379 87.7398 51.4361 87.9537 51.797 88.5844L64.0861 109.932C64.4479 110.561 64.2325 111.366 63.6065 111.729C63.4012 111.848 63.1757 111.905 62.952 111.905Z" fill="#03030F"/>
<path d="M118.382 359.454H118.378C118.359 354.586 115.145 349.723 108.73 346.005C95.882 338.554 75.0736 338.54 62.2514 345.972C55.8329 349.697 52.6403 354.572 52.6605 359.454H52.6568V366.488H52.6605C52.6918 371.35 55.9084 376.205 62.3121 379.917C75.1601 387.368 95.963 387.382 108.78 379.951C115.192 376.239 118.392 371.364 118.381 366.488V359.454H118.382Z" fill="white"/>
<path d="M85.6007 386.799C76.9341 386.799 68.2638 384.885 61.6585 381.056C55.0467 377.224 51.3864 372.054 51.3505 366.494L51.3468 359.454C51.3293 353.874 54.9676 348.678 61.595 344.833C74.7615 337.2 96.1968 337.224 109.383 344.864C116.004 348.704 119.662 353.884 119.686 359.448C119.686 359.452 119.69 359.452 119.69 359.454V366.486C119.702 372.066 116.059 377.254 109.433 381.089C102.866 384.897 94.2332 386.797 85.5988 386.797L85.6007 386.799ZM85.4405 341.712C77.2756 341.712 69.1154 343.513 62.9068 347.111C57.1245 350.467 53.9521 354.846 53.9705 359.448L53.9659 366.488C53.9982 371.065 57.1945 375.435 62.9685 378.777C75.4354 386.01 95.6905 386.022 108.126 378.811C113.907 375.465 117.083 371.093 117.072 366.492V359.462C117.051 354.867 113.855 350.495 108.074 347.145C101.83 343.522 93.632 341.712 85.4386 341.712H85.4405Z" fill="#03030F"/>
<path d="M118.378 359.454C118.359 354.585 115.145 349.723 108.73 346.005C107.225 345.128 105.592 344.383 103.897 343.711V382.265C105.616 381.595 107.259 380.834 108.78 379.951C115.192 376.238 118.392 371.364 118.381 366.487V359.454H118.376H118.378Z" fill="#03030F"/>
<path d="M103.897 383.58C103.636 383.58 103.379 383.501 103.156 383.35C102.8 383.104 102.587 382.7 102.587 382.265V343.711C102.587 343.276 102.802 342.868 103.159 342.626C103.516 342.379 103.973 342.324 104.376 342.489C106.319 343.256 107.958 344.035 109.386 344.869C116.004 348.704 119.662 353.884 119.686 359.448V359.454L119.69 366.486C119.702 372.066 116.059 377.254 109.433 381.089C107.935 381.96 106.277 382.743 104.369 383.489C104.214 383.546 104.054 383.578 103.895 383.578L103.897 383.58ZM105.206 345.687V380.298C106.261 379.826 107.225 379.336 108.124 378.814C113.906 375.465 117.083 371.095 117.072 366.492L117.069 359.462C117.049 354.871 113.857 350.495 108.074 347.145C107.216 346.642 106.267 346.161 105.206 345.686V345.687Z" fill="#03030F"/>
<path d="M108.782 372.939C121.603 365.508 121.579 353.45 108.731 346.007C95.8829 338.557 75.0736 338.542 62.2514 345.973C49.4329 353.404 49.4605 365.462 62.3121 372.907C75.1601 380.358 95.9639 380.372 108.78 372.941L108.782 372.939Z" fill="white"/>
<path d="M85.6007 379.786C76.9341 379.786 68.2638 377.873 61.6585 374.043C55.009 370.192 51.3468 364.995 51.3468 359.41C51.3468 353.844 54.985 348.666 61.5968 344.831C74.7633 337.206 96.1987 337.226 109.384 344.864C116.029 348.715 119.69 353.913 119.692 359.5C119.692 365.066 116.05 370.244 109.436 374.079C102.868 377.882 94.235 379.786 85.6007 379.786ZM85.4405 341.712C77.2756 341.712 69.1154 343.513 62.9068 347.111C57.1411 350.453 53.9659 354.82 53.9659 359.41C53.9659 364.015 57.1641 368.405 62.9685 371.765C75.4354 378.999 95.6905 379.007 108.126 371.799C113.896 368.457 117.072 364.089 117.072 359.5C117.072 354.895 113.876 350.504 108.074 347.145C101.83 343.522 93.632 341.712 85.4386 341.712H85.4405Z" fill="#03030F"/>
<path d="M97.8631 366.611C104.669 362.667 104.655 356.271 97.8355 352.319C91.0184 348.367 79.9739 348.36 73.1725 352.299C66.372 356.243 66.3858 362.647 73.2066 366.591C80.0218 370.542 91.058 370.555 97.8631 366.611Z" fill="white"/>
<path d="M85.5685 370.853C80.8596 370.853 76.1442 369.811 72.5529 367.729C68.8291 365.572 66.7743 362.627 66.7706 359.432C66.7706 356.247 68.8116 353.307 72.517 351.157C79.6738 347.02 91.325 347.03 98.4901 351.177C102.214 353.338 104.266 356.285 104.268 359.476C104.268 362.66 102.225 365.598 98.5177 367.747C94.9503 369.816 90.2608 370.848 85.5666 370.848L85.5685 370.853ZM85.4755 350.651C81.2545 350.651 77.039 351.579 73.8307 353.438C70.9686 355.095 69.3943 357.225 69.3943 359.432C69.3943 361.647 70.9842 363.785 73.8648 365.448C80.3118 369.191 90.7855 369.199 97.2113 365.469C100.076 363.811 101.652 361.681 101.652 359.476C101.652 357.265 100.064 355.123 97.1837 353.457C93.9561 351.585 89.7149 350.649 85.4755 350.649V350.651Z" fill="#03030F"/>
<path d="M81.0492 349.723C78.1668 350.161 75.4308 350.99 73.1725 352.297C66.372 356.241 66.3858 362.645 73.2066 366.589C75.4584 367.896 78.1824 368.725 81.0474 369.171V349.723H81.0492Z" fill="#03030F"/>
<path d="M81.0492 370.488C80.982 370.488 80.9166 370.483 80.8494 370.469C77.6098 369.97 74.8185 369.046 72.5511 367.727C68.8273 365.574 66.7743 362.629 66.7706 359.434C66.7706 356.25 68.8116 353.309 72.517 351.158C74.7992 349.838 77.6015 348.92 80.8513 348.422C81.2324 348.367 81.6117 348.479 81.9026 348.727C82.1908 348.977 82.3565 349.34 82.3565 349.723V369.171C82.3565 369.554 82.1889 369.921 81.9008 370.171C81.6614 370.376 81.3576 370.486 81.0474 370.486L81.0492 370.488ZM79.7392 351.294C77.4579 351.765 75.4722 352.485 73.8289 353.441C70.9667 355.099 69.3925 357.229 69.3925 359.436C69.3925 361.652 70.9824 363.789 73.862 365.453C75.498 366.404 77.4699 367.125 79.741 367.6V351.296L79.7392 351.294Z" fill="#03030F"/>
<path d="M73.2084 366.591C80.0237 370.542 91.0608 370.555 97.8659 366.611C99.697 365.55 100.991 364.302 101.833 362.988C100.987 361.654 99.6832 360.4 97.8383 359.331C91.0212 355.379 79.9767 355.373 73.1753 359.311C71.3479 360.372 70.0544 361.619 69.2121 362.934C70.0581 364.269 71.3617 365.522 73.2112 366.591H73.2084Z" fill="white"/>
<path d="M85.5685 370.853C80.8596 370.853 76.1442 369.811 72.5529 367.729C70.6086 366.603 69.1136 365.227 68.1064 363.639C67.8321 363.206 67.8339 362.653 68.1101 362.221C69.1172 360.648 70.6013 359.286 72.5216 358.173C79.6766 354.034 91.3268 354.044 98.4937 358.191C100.435 359.317 101.931 360.694 102.938 362.281C103.213 362.714 103.211 363.267 102.935 363.699C101.925 365.274 100.44 366.637 98.5214 367.752C94.954 369.82 90.2644 370.853 85.5712 370.853H85.5685ZM70.824 362.936C71.5789 363.878 72.598 364.721 73.863 365.448C80.31 369.191 90.7818 369.199 97.2095 365.469C98.456 364.747 99.4641 363.914 100.218 362.984C99.4641 362.042 98.4468 361.199 97.1819 360.472C90.7404 356.736 80.263 356.726 73.8289 360.451C72.5842 361.173 71.5771 362.007 70.824 362.938V362.936Z" fill="#03030F"/>
<path d="M201.138 328.998C245.334 319.749 273.855 295.248 273.569 268.747L273.705 268.754L273.701 244.557H273.561C273.486 239.316 272.421 234.015 269.987 228.728C264.899 217.669 255 208.082 241.992 200.493L217.325 219.997L217.333 244.067C222.688 247.855 226.862 252.289 229.56 257.211C222.657 269.74 205.292 280.09 181.797 283.733L172.986 264.59L121.6 305.372V329.438L201.132 349.811L201.14 328.996L201.138 328.998Z" fill="#03030F"/>
<path d="M201.13 351.127C201.022 351.127 200.913 351.113 200.806 351.086L121.274 330.713C120.694 330.567 120.289 330.043 120.289 329.44V305.374C120.289 304.973 120.47 304.593 120.786 304.343L172.173 263.559C172.483 263.311 172.902 263.22 173.289 263.311C173.682 263.404 174.006 263.672 174.176 264.039L182.57 282.279C204.035 278.755 220.92 269.447 228.051 257.211C225.476 252.765 221.619 248.707 216.578 245.144C216.231 244.898 216.023 244.498 216.023 244.069L216.017 219.999C216.017 219.596 216.2 219.215 216.515 218.965L241.182 199.462C241.605 199.129 242.187 199.083 242.651 199.357C256.302 207.319 266.164 217.284 271.178 228.177C273.469 233.158 274.712 238.477 274.862 243.996C274.957 244.164 275.012 244.357 275.012 244.557L275.017 268.754C275.017 268.957 274.969 269.155 274.881 269.338C274.75 296.438 245.794 320.707 202.45 330.065L202.444 349.814C202.444 350.221 202.256 350.605 201.938 350.852C201.704 351.034 201.421 351.129 201.135 351.129L201.13 351.127ZM122.908 328.419L199.821 348.121L199.827 328.998C199.827 328.375 200.263 327.838 200.87 327.712C243.853 318.716 272.54 295.026 272.257 268.761C272.253 268.552 272.3 268.346 272.393 268.161L272.39 245.099C272.304 244.939 272.253 244.761 272.249 244.575C272.174 239.234 271.01 234.087 268.794 229.278C264.104 219.08 254.882 209.691 242.098 202.082L218.633 220.635L218.638 243.391C223.972 247.264 228.027 251.698 230.702 256.578C230.92 256.973 230.92 257.452 230.702 257.85C223.295 271.292 205.087 281.454 181.993 285.032C181.388 285.151 180.851 284.815 180.602 284.286L172.491 266.658L122.906 306.011V328.421L122.908 328.419Z" fill="#03030F"/>
<path d="M121.598 305.374L201.138 325.74L192.322 306.604C250.715 297.481 285.569 262.558 269.99 228.728C264.9 217.669 255.002 208.082 241.994 200.493L217.326 219.997C223.336 224.243 227.941 229.238 230.54 234.878C240.303 256.103 218.447 278.033 181.797 283.735L172.986 264.592L121.6 305.374H121.598Z" fill="url(#paint0_linear_4326_611)"/>
<path d="M201.138 327.055C201.03 327.055 200.923 327.04 200.814 327.013L121.277 306.647C120.794 306.524 120.423 306.137 120.32 305.648C120.215 305.158 120.4 304.652 120.789 304.343L172.175 263.559C172.486 263.311 172.903 263.22 173.291 263.311C173.684 263.404 174.008 263.672 174.178 264.038L182.572 282.279C204.68 278.64 221.857 268.957 228.638 256.267C232.257 249.489 232.506 242.284 229.351 235.429C226.937 230.186 222.635 225.355 216.574 221.072C216.236 220.831 216.029 220.447 216.019 220.033C216.009 219.616 216.193 219.222 216.517 218.963L241.184 199.46C241.606 199.127 242.189 199.082 242.654 199.355C256.304 207.317 266.167 217.282 271.181 228.175C276.672 240.099 276.255 252.624 269.976 264.393C258.706 285.515 230.469 301.608 194.237 307.624L202.33 325.186C202.541 325.645 202.47 326.19 202.146 326.58C201.893 326.882 201.521 327.052 201.14 327.052L201.138 327.055ZM124.489 304.757L198.795 323.78L191.131 307.155C190.961 306.782 190.975 306.347 191.165 305.982C191.358 305.616 191.713 305.365 192.118 305.305C228.362 299.641 256.602 283.883 267.664 263.154C273.541 252.14 273.932 240.426 268.796 229.279C264.107 219.082 254.883 209.693 242.101 202.084L219.493 219.955C225.201 224.255 229.31 229.081 231.727 234.326C235.238 241.96 234.965 249.977 230.943 257.511C223.678 271.106 205.38 281.397 181.996 285.032C181.392 285.151 180.855 284.815 180.606 284.286L172.495 266.659L124.489 304.757Z" fill="#03030F"/>
<path d="M121.598 329.44V305.374L201.138 325.74L201.13 349.814L121.598 329.442V329.44ZM230.538 234.878C227.939 229.238 223.334 224.243 217.325 219.997L217.333 244.067C222.664 247.841 226.821 252.257 229.515 257.14C233.373 250.145 234.037 242.479 230.538 234.878Z" fill="white"/>
<path d="M201.13 351.127C201.022 351.127 200.913 351.113 200.806 351.086L121.274 330.713C120.694 330.567 120.289 330.043 120.289 329.44V305.374C120.289 304.967 120.477 304.586 120.794 304.336C121.112 304.091 121.529 304.002 121.922 304.1L201.461 324.467C202.041 324.614 202.446 325.141 202.446 325.74L202.44 349.814C202.44 350.221 202.252 350.605 201.935 350.852C201.699 351.034 201.416 351.129 201.13 351.129V351.127ZM122.908 328.419L199.821 348.121L199.827 326.759L122.908 307.065V328.421V328.419ZM229.515 258.455C229.037 258.455 228.6 258.195 228.369 257.776C225.793 253.106 221.824 248.854 216.578 245.142C216.231 244.896 216.023 244.496 216.023 244.067L216.017 219.997C216.017 219.504 216.29 219.056 216.722 218.829C217.159 218.608 217.676 218.634 218.079 218.922C224.524 223.475 229.114 228.657 231.729 234.326C235.26 241.997 234.892 250.108 230.663 257.778C230.432 258.197 229.995 258.457 229.517 258.457L229.515 258.455ZM218.643 243.391C223.172 246.683 226.783 250.384 229.41 254.419C232.212 248.142 232.2 241.622 229.349 235.429C227.217 230.803 223.619 226.495 218.636 222.604L218.643 243.391Z" fill="#03030F"/>
<path d="M110.814 294.57L110.809 270.496C105.443 266.712 101.275 262.264 98.5766 257.334C105.483 244.805 122.847 234.479 146.34 230.813L155.161 249.955L206.541 209.183V185.113L127.003 164.74V185.545C83.0856 194.738 54.6536 218.975 54.5671 245.273H54.4364L54.4327 269.536L54.5652 269.528C54.5744 274.918 55.6497 280.385 58.1519 285.827C63.241 296.896 73.1117 306.466 86.142 314.062L110.814 294.572V294.57Z" fill="#03030F"/>
<path d="M86.142 315.374C85.9146 315.374 85.6872 315.317 85.4838 315.197C71.8376 307.242 61.9743 297.275 56.9652 286.376C54.5882 281.21 53.3399 275.717 53.2589 270.048C53.176 269.886 53.1226 269.712 53.1226 269.534L53.1263 245.271C53.1263 245.061 53.176 244.865 53.2635 244.688C53.7625 217.827 82.7183 193.761 125.693 184.48V164.74C125.693 164.334 125.881 163.951 126.199 163.703C126.519 163.458 126.932 163.368 127.327 163.467L206.865 183.839C207.446 183.988 207.851 184.511 207.851 185.113V209.183C207.851 209.586 207.667 209.967 207.353 210.215L155.973 250.987C155.654 251.234 155.245 251.323 154.856 251.234C154.466 251.141 154.14 250.873 153.971 250.506L145.568 232.266C124.093 235.814 107.209 245.122 100.082 257.334C102.672 261.808 106.528 265.871 111.559 269.419C111.909 269.665 112.117 270.065 112.117 270.494L112.122 294.568C112.122 294.973 111.938 295.352 111.622 295.602L86.9494 315.091C86.7128 315.276 86.4283 315.373 86.1401 315.373L86.142 315.374ZM55.7418 269.024C55.8228 269.179 55.8743 269.35 55.8743 269.524C55.8845 274.999 57.0518 280.296 59.3413 285.273C64.0327 295.476 73.2526 304.868 86.0334 312.469L109.505 293.932L109.499 271.172C104.176 267.317 100.116 262.875 97.4295 257.964C97.2123 257.57 97.2123 257.09 97.4295 256.694C104.825 243.278 123.034 233.117 146.139 229.51C146.721 229.414 147.283 229.726 147.53 230.258L155.652 247.885L205.231 208.54V186.13L128.313 166.429V185.539C128.313 186.162 127.879 186.699 127.272 186.826C84.6561 195.748 55.9636 219.233 55.8762 245.271C55.8762 245.473 55.8292 245.666 55.7464 245.838L55.7418 269.018V269.024Z" fill="#03030F"/>
<path d="M86.1512 289.997L110.809 270.498C104.8 266.256 100.209 261.262 97.6007 255.607C87.8322 234.382 109.697 212.457 146.34 206.74L155.161 225.89L206.541 185.114L127.003 164.742L135.813 183.899C77.4147 192.999 42.5799 227.927 58.1538 261.756C63.2364 272.836 73.1237 282.413 86.154 289.997H86.1512Z" fill="white"/>
<path d="M86.1521 291.311C85.9247 291.311 85.6973 291.254 85.4957 291.134C71.8321 283.18 61.9669 273.212 56.9634 262.306C51.4711 250.377 51.8918 237.846 58.1758 226.071C69.4496 204.953 97.6818 188.874 133.899 182.874L125.814 165.292C125.603 164.832 125.672 164.289 125.996 163.9C126.318 163.509 126.834 163.338 127.325 163.467L206.863 183.839C207.343 183.962 207.716 184.351 207.821 184.839C207.924 185.328 207.742 185.834 207.351 186.143L155.971 226.919C155.654 227.17 155.242 227.257 154.854 227.167C154.464 227.074 154.137 226.807 153.969 226.44L145.566 208.194C123.45 211.845 106.267 221.537 99.4954 234.225C95.8783 241 95.6334 248.202 98.7883 255.053C101.214 260.316 105.509 265.151 111.559 269.421C111.897 269.66 112.103 270.043 112.114 270.462C112.124 270.877 111.941 271.273 111.615 271.53L86.9576 291.03C86.7229 291.215 86.4366 291.311 86.1475 291.311H86.1521ZM129.346 166.698L137.001 183.348C137.173 183.722 137.161 184.155 136.967 184.52C136.773 184.882 136.42 185.135 136.013 185.197C99.7817 190.844 71.5476 206.587 60.4829 227.312C54.6002 238.332 54.2053 250.05 59.3413 261.205C64.0254 271.416 73.248 280.807 86.0435 288.408L108.638 270.539C102.947 266.252 98.838 261.421 96.4141 256.158C92.902 248.527 93.1699 240.516 97.1902 232.986C104.448 219.388 122.746 209.09 146.141 205.439C146.723 205.344 147.285 205.655 147.532 206.186L155.654 223.822L203.653 185.729L129.346 166.698Z" fill="#03030F"/>
<path d="M86.142 314.06C73.1117 306.464 63.241 296.896 58.1519 285.825C55.6497 280.385 54.5744 274.916 54.5652 269.526L54.4327 269.533L54.4364 245.271H54.5671C54.5671 245.271 54.5588 245.255 54.5671 245.265C54.5468 250.713 55.6175 256.255 58.1538 261.755C63.2364 272.834 73.1237 282.412 86.154 289.995L86.1438 314.06H86.142ZM127.003 164.74V185.545C126.995 185.555 126.989 185.559 126.97 185.555C129.875 184.942 132.795 184.373 135.813 183.897L127.003 164.74ZM155.162 249.957V225.89L146.342 206.74V230.815L155.162 249.957Z" fill="white"/>
<path d="M86.142 315.374C85.9146 315.374 85.6872 315.316 85.4838 315.196C71.8376 307.242 61.9743 297.275 56.9652 286.375C54.5882 281.209 53.3399 275.716 53.2589 270.047C53.176 269.886 53.1226 269.712 53.1226 269.533L53.1263 245.27C53.1263 244.557 53.6934 243.974 54.4004 243.956C54.7033 243.92 54.9896 243.983 55.2428 244.138C55.6359 244.378 55.8743 244.807 55.8743 245.265V245.284C55.855 250.821 57.0223 256.176 59.3413 261.2C64.1184 271.613 73.6153 281.178 86.8076 288.858C87.2126 289.094 87.4612 289.527 87.4612 289.995L87.4511 314.06C87.4511 314.529 87.2007 314.963 86.7956 315.199C86.5922 315.316 86.3666 315.374 86.142 315.374ZM55.7418 269.023C55.8228 269.178 55.8743 269.349 55.8743 269.523C55.8845 274.999 57.0518 280.296 59.3413 285.273C63.8845 295.154 72.6735 304.273 84.8338 311.743L84.8421 290.746C71.5154 282.858 61.8859 273.033 56.9634 262.301C56.5169 261.333 56.11 260.354 55.7445 259.364V269.022L55.7418 269.023ZM155.161 251.272C154.659 251.272 154.19 250.98 153.971 250.508L145.151 231.365C145.07 231.193 145.03 231.004 145.03 230.814V206.74C145.03 206.121 145.459 205.587 146.06 205.456C146.67 205.33 147.273 205.631 147.53 206.19L156.35 225.341C156.431 225.513 156.471 225.701 156.471 225.892V249.959C156.471 250.577 156.042 251.111 155.441 251.241C155.348 251.261 155.252 251.273 155.161 251.273V251.272ZM147.65 230.524L153.851 243.981V226.18L147.65 212.717V230.524ZM126.962 186.871C126.893 186.871 126.822 186.865 126.753 186.853C126.13 186.748 125.672 186.214 125.658 185.582C125.658 185.471 125.668 185.362 125.691 185.255V164.74C125.691 164.122 126.12 163.588 126.72 163.457C127.327 163.328 127.936 163.631 128.191 164.189L137.001 183.345C137.173 183.72 137.161 184.152 136.967 184.515C136.773 184.88 136.422 185.13 136.015 185.196C133.372 185.612 130.582 186.135 127.238 186.841C127.148 186.859 127.056 186.869 126.963 186.869L126.962 186.871ZM128.311 170.727V183.934C130.334 183.522 132.161 183.176 133.899 182.88L128.311 170.725V170.727Z" fill="#03030F"/>
<path d="M184.098 9.19633L171.293 1.77563L149.683 14.2968V18.7031C148.918 18.9848 148.18 19.3159 147.473 19.7066L125.869 32.2353C120.016 35.5194 117.083 42.4223 117.077 52.9034C117.096 64.2936 120.016 74.8006 125.869 84.4898C128.273 88.4617 131.347 92.6595 134.812 96.9863L113.307 109.451L113.062 109.851C112.847 123.027 116.062 134.982 122.691 145.683C129.305 156.373 137.779 165.262 148.077 172.288L148.073 190.627L160.878 198.058L182.489 185.537V183C183.272 182.733 184.029 182.407 184.75 182.025L206.357 169.503C212.183 166.402 215.088 159.418 215.088 148.6C215.092 137.305 212.135 126.677 206.245 116.788C203.09 111.495 199.025 105.982 194.167 100.279L214.604 88.682L214.774 88.3224C214.924 76.9138 212.278 66.039 206.794 55.6795C201.32 45.3358 193.751 36.5843 184.098 29.4315V9.19633Z" fill="white"/>
<path d="M160.878 199.371C160.65 199.371 160.425 199.313 160.223 199.194L147.419 191.764C147.014 191.53 146.765 191.093 146.765 190.625L146.769 172.98C136.62 165.94 128.149 156.993 121.581 146.375C114.843 135.502 111.536 123.207 111.755 109.827C111.759 109.594 111.826 109.361 111.948 109.159L112.193 108.758C112.308 108.574 112.466 108.419 112.654 108.31L132.841 96.6102C129.465 92.3248 126.81 88.5723 124.751 85.1693C118.809 75.3335 115.786 64.4781 115.767 52.9035C115.773 41.9447 118.957 34.6057 125.229 31.0874L146.818 18.5683C147.33 18.2868 147.847 18.0349 148.373 17.8108V14.2988C148.373 13.8288 148.622 13.3945 149.029 13.1605L170.64 0.63747C171.043 0.401442 171.547 0.401442 171.95 0.63747L184.754 8.05807C185.159 8.29207 185.408 8.72836 185.408 9.19636V28.765C194.927 35.9362 202.509 44.7762 207.949 55.0591C213.498 65.543 216.238 76.7396 216.084 88.3363C216.08 88.5272 216.04 88.7134 215.957 88.884L215.788 89.2426C215.671 89.4869 215.483 89.6889 215.249 89.8244L196.19 100.637C200.723 106.065 204.48 111.265 207.371 116.111C213.364 126.176 216.402 137.107 216.398 148.598C216.398 159.907 213.226 167.332 206.971 170.662L185.406 183.161C184.875 183.445 184.341 183.695 183.8 183.913V185.535C183.8 186.005 183.551 186.439 183.144 186.673L161.533 199.194C161.33 199.313 161.104 199.371 160.878 199.371ZM149.382 189.868L160.878 196.537L181.179 184.775V182.997C181.179 182.433 181.536 181.932 182.07 181.751C182.786 181.508 183.478 181.208 184.136 180.858L205.701 168.359C211.073 165.498 213.778 158.854 213.778 148.595C213.783 137.582 210.869 127.108 205.118 117.456C202.092 112.375 198.072 106.88 193.172 101.125C192.918 100.828 192.81 100.432 192.879 100.043C192.948 99.6564 193.183 99.319 193.523 99.1245L213.469 87.8071C213.533 76.8308 210.901 66.2298 205.638 56.2862C200.283 46.1665 192.772 37.4832 183.322 30.4808C182.988 30.2328 182.791 29.84 182.791 29.4214V9.95396L171.296 3.29473L150.994 15.0563V18.7052C150.994 19.2565 150.651 19.7502 150.135 19.9387C149.434 20.1965 148.754 20.4999 148.106 20.8588L126.527 33.374C121.128 36.4018 118.396 42.9718 118.388 52.9035C118.408 63.9922 121.302 74.3894 126.991 83.8075C129.18 87.4208 132.072 91.4637 135.835 96.1621C136.074 96.4618 136.171 96.8499 136.101 97.227C136.032 97.6059 135.799 97.9323 135.47 98.1232L114.369 110.352C114.246 123.031 117.419 134.679 123.807 144.985C130.304 155.487 138.72 164.306 148.818 171.197C149.175 171.441 149.39 171.85 149.39 172.284L149.387 189.864L149.382 189.868Z" fill="#03030F"/>
<path d="M170.039 147.728C170.059 142.643 168.791 137.817 166.266 133.283C163.755 128.755 159.264 123.198 152.826 116.602C140.706 104.857 131.717 94.143 125.872 84.4916C120.018 74.8025 117.098 64.2955 117.079 52.9053C117.086 42.4251 120.018 35.5213 125.872 32.2381C131.725 28.954 139.649 29.6123 149.685 34.2406V14.2988L162.49 21.7215V41.9466C172.15 49.0994 179.713 57.8509 185.191 68.1983C190.668 78.5605 193.322 89.427 193.165 100.844L192.998 101.199L170.062 87.9187C170.055 81.1227 168.728 75.1575 166.071 69.9777C163.418 64.8238 159.7 60.8316 154.921 58.0731C149.885 55.1485 146.234 54.5594 143.97 56.2862C141.716 58.0251 140.594 61.466 140.594 66.6199C140.602 71.4409 141.791 75.919 144.182 80.1721C146.57 84.4243 151.142 90.149 157.907 97.3598C169.824 108.744 178.731 119.39 184.639 129.313C190.527 139.2 193.484 149.825 193.484 161.122C193.48 171.941 190.582 178.923 184.753 182.025C178.921 185.137 170.974 184.377 160.874 179.701L160.879 198.06L148.075 190.63L148.078 172.29C137.781 165.264 129.306 156.376 122.693 145.685C116.063 134.984 112.85 123.029 113.065 109.853L113.31 109.453L136.179 122.693C136.169 130.643 137.842 137.297 141.206 142.631C144.563 147.969 148.909 152.17 154.28 155.275C159.542 158.339 163.485 159.135 166.112 157.665C168.738 156.204 170.047 152.885 170.041 147.728H170.039Z" fill="white"/>
<path d="M160.878 199.371C160.65 199.371 160.425 199.313 160.223 199.194L147.419 191.764C147.014 191.53 146.765 191.094 146.765 190.625L146.769 172.98C136.62 165.94 128.149 156.993 121.581 146.375C114.843 135.502 111.536 123.207 111.755 109.827C111.759 109.594 111.826 109.361 111.948 109.161L112.193 108.758C112.567 108.154 113.347 107.955 113.964 108.31L136.832 121.551C137.237 121.785 137.489 122.221 137.489 122.691C137.479 130.36 139.103 136.831 142.313 141.923C145.532 147.046 149.78 151.152 154.931 154.131C159.743 156.933 163.29 157.732 165.472 156.513C167.639 155.305 168.736 152.35 168.729 147.728V147.721C168.75 142.897 167.536 138.255 165.124 133.924C162.697 129.545 158.244 124.026 151.892 117.522C139.774 105.779 130.636 94.8889 124.751 85.174C118.809 75.3382 115.786 64.4828 115.767 52.9072C115.773 41.9485 118.957 34.6095 125.229 31.0912C131.07 27.8098 138.849 28.198 148.373 32.2243V14.2989C148.373 13.8289 148.622 13.3946 149.029 13.1606C149.434 12.9247 149.933 12.9247 150.339 13.1606L163.143 20.5832C163.548 20.8172 163.797 21.2535 163.797 21.7215V41.2865C173.317 48.4513 180.898 57.2959 186.346 67.5815C191.899 78.0839 194.635 89.2805 194.473 100.862C194.47 101.049 194.43 101.233 194.347 101.404L194.179 101.76C194.025 102.093 193.736 102.345 193.387 102.457C193.035 102.564 192.656 102.524 192.339 102.339L169.403 89.0583C168.998 88.825 168.75 88.3908 168.75 87.9224C168.743 81.3781 167.45 75.5438 164.903 70.5826C162.364 65.6481 158.785 61.8228 154.266 59.2154C151.164 57.4148 147.002 55.628 144.758 57.3355C142.863 58.7969 141.899 61.9242 141.899 66.6218C141.906 71.2252 143.025 75.447 145.319 79.5277C147.638 83.6591 152.194 89.3561 158.857 96.4618C170.755 107.826 179.824 118.67 185.762 128.641C191.751 138.704 194.789 149.634 194.789 161.123C194.785 172.439 191.615 179.861 185.363 183.189C179.543 186.293 171.75 185.8 162.179 181.722L162.185 198.06C162.185 198.53 161.936 198.965 161.531 199.199C161.328 199.318 161.102 199.375 160.876 199.375L160.878 199.371ZM149.382 189.868L159.568 195.777L159.562 179.697C159.562 179.249 159.789 178.83 160.166 178.589C160.538 178.346 161.007 178.308 161.421 178.503C171.059 182.965 178.705 183.764 184.136 180.86C189.463 178.025 192.168 171.381 192.172 161.117C192.172 150.109 189.26 139.633 183.512 129.983C177.7 120.219 168.781 109.561 157.002 98.3076C150.046 90.8967 145.495 85.1896 143.037 80.813C140.517 76.3293 139.289 71.6872 139.28 66.6162C139.28 60.9783 140.552 57.2562 143.168 55.2371C145.932 53.1331 149.985 53.6863 155.573 56.9289C160.533 59.7926 164.457 63.9784 167.233 69.3684C169.871 74.513 171.26 80.4921 171.362 87.1507L191.854 99.0176C191.713 88.5254 189.088 78.3715 184.033 68.8133C178.672 58.6862 171.162 50.002 161.709 43.0042C161.375 42.7562 161.178 42.3634 161.178 41.9448V22.4791L150.992 16.5735V34.2389C150.992 34.6869 150.766 35.1037 150.388 35.3471C150.014 35.5868 149.537 35.6209 149.135 35.4347C139.568 31.0202 131.958 30.3324 126.51 33.3842C121.126 36.4046 118.394 42.9719 118.386 52.9054C118.406 63.9923 121.3 74.3895 126.989 83.8076C132.755 93.328 141.753 104.042 153.732 115.652C160.275 122.352 164.868 128.059 167.41 132.641C170.045 137.37 171.369 142.449 171.347 147.73C171.353 153.38 169.807 157.107 166.743 158.813C163.655 160.534 159.36 159.752 153.62 156.409C148.097 153.217 143.545 148.814 140.096 143.329C136.724 137.981 134.966 131.296 134.869 123.451L114.362 111.579C114.45 123.782 117.622 135.012 123.801 144.985C130.298 155.487 138.713 164.306 148.811 171.197C149.169 171.441 149.385 171.85 149.385 172.284L149.38 189.864L149.382 189.868Z" fill="#03030F"/>
<path d="M184.098 29.4259L162.488 41.9465V21.7214L184.098 9.19629V29.4259ZM204.747 85.0586L192.687 91.9062C193.035 94.851 193.207 97.8235 193.165 100.836L194.169 100.275L204.388 94.4739L214.607 88.6774L214.776 88.3187C214.814 85.3822 214.66 82.4908 214.33 79.629L204.749 85.0586H204.747ZM152.826 116.6C152.042 115.836 151.328 115.101 150.571 114.346L136.179 122.691C136.171 128.633 137.108 133.85 138.986 138.336L160.933 125.612C158.702 122.86 156.009 119.86 152.826 116.602V116.6ZM160.871 179.697L160.878 198.056L182.489 185.535V182.998C176.915 184.888 169.721 183.796 160.871 179.699V179.697ZM166.069 69.9758C163.416 64.821 159.698 60.8297 154.919 58.0711C149.882 55.1457 146.232 54.5574 143.968 56.2843C141.714 58.0232 140.592 61.464 140.592 66.6179C140.599 71.439 141.789 75.9171 144.18 80.1702C144.499 80.7455 144.959 81.4093 145.359 82.0308L166.085 70.0191C166.079 70.0053 166.074 69.9915 166.067 69.9776L166.069 69.9758ZM193.397 158.571C193.43 159.416 193.482 160.262 193.482 161.12C193.478 171.939 190.58 178.921 184.75 182.023L206.357 169.501C212.183 166.4 215.088 159.416 215.088 148.598C215.088 147.742 215.037 146.897 215.007 146.048L193.397 158.573V158.571Z" fill="#03030F"/>
<path d="M160.878 199.371C160.65 199.371 160.425 199.313 160.224 199.194C159.819 198.96 159.568 198.526 159.568 198.056L159.562 179.697C159.562 179.249 159.789 178.83 160.166 178.589C160.538 178.346 161.007 178.308 161.421 178.503C169.897 182.43 176.846 183.532 182.07 181.751C182.469 181.618 182.911 181.684 183.253 181.93C183.322 181.98 183.385 182.037 183.444 182.096C183.417 181.616 183.652 181.141 184.096 180.884L184.894 180.421C189.725 177.371 192.17 170.884 192.174 161.12C192.174 160.496 192.146 159.878 192.116 159.261L192.089 158.625C192.071 158.137 192.32 157.679 192.744 157.433L214.356 144.907C214.755 144.676 215.247 144.676 215.645 144.895C216.049 145.118 216.304 145.538 216.321 145.998L216.349 146.716C216.376 147.341 216.404 147.968 216.404 148.598C216.404 159.907 213.231 167.332 206.978 170.662L186.272 182.664C185.977 182.846 185.679 183.021 185.37 183.185C184.841 183.465 184.201 183.343 183.802 182.926C183.806 182.949 183.806 182.973 183.806 182.998V185.535C183.806 186.005 183.557 186.439 183.15 186.673L161.54 199.194C161.336 199.313 161.111 199.371 160.883 199.371H160.878ZM162.181 181.718L162.187 195.779L181.179 184.728C175.987 185.893 169.617 184.887 162.181 181.716V181.718ZM194.74 159.311C194.768 159.91 194.791 160.512 194.791 161.12C194.787 167.437 193.799 172.542 191.838 176.397L205.704 168.364C211.075 165.502 213.781 158.859 213.781 148.598C213.781 148.491 213.781 148.384 213.776 148.279L194.742 159.313L194.74 159.311ZM138.984 139.65C138.844 139.65 138.704 139.629 138.567 139.583C138.211 139.464 137.925 139.195 137.777 138.847C135.839 134.223 134.861 128.787 134.867 122.691C134.867 122.221 135.118 121.789 135.521 121.555L149.914 113.211C150.423 112.916 151.069 112.997 151.492 113.416L152.349 114.277C152.804 114.734 153.254 115.192 153.736 115.659C153.742 115.666 153.752 115.675 153.76 115.681C156.931 118.93 159.684 121.992 161.948 124.783C162.191 125.083 162.29 125.474 162.219 125.853C162.15 126.231 161.919 126.56 161.586 126.753L139.637 139.476C139.437 139.593 139.209 139.652 138.982 139.652L138.984 139.65ZM137.492 123.449C137.556 128.279 138.279 132.637 139.649 136.432L158.936 125.252C156.925 122.852 154.564 120.26 151.904 117.534C151.416 117.06 150.955 116.595 150.497 116.131L150.356 115.99L137.492 123.449ZM193.163 102.153C192.932 102.153 192.699 102.091 192.492 101.969C192.093 101.726 191.848 101.29 191.854 100.822C191.891 97.9701 191.735 95.0234 191.386 92.0629C191.32 91.5374 191.579 91.0257 192.039 90.7657L204.099 83.9181L213.68 78.4867C214.066 78.2691 214.53 78.2627 214.919 78.459C215.312 78.6591 215.576 79.0417 215.624 79.4787C215.966 82.4171 216.118 85.3979 216.08 88.339C216.076 88.529 216.037 88.7152 215.954 88.8858L215.784 89.2453C215.667 89.4887 215.48 89.6916 215.245 89.8262L193.798 101.988C193.601 102.099 193.379 102.155 193.16 102.155L193.163 102.153ZM194.084 92.6263C194.296 94.6325 194.425 96.6295 194.465 98.5971L213.467 87.8135C213.476 85.8045 213.395 83.7798 213.224 81.7644L194.082 92.6263H194.084ZM145.361 83.3456C144.93 83.3456 144.507 83.1307 144.258 82.7444L143.916 82.2226C143.599 81.7394 143.278 81.2508 143.035 80.8147C140.517 76.3348 139.287 71.6907 139.28 66.6217C139.28 60.9846 140.552 57.2617 143.168 55.2434C145.932 53.1395 149.985 53.6926 155.573 56.9343C160.533 59.798 164.457 63.9848 167.233 69.3747C167.236 69.3802 167.238 69.3849 167.24 69.3922C167.26 69.4337 167.288 69.4955 167.303 69.537C167.614 70.1602 167.341 70.8102 166.74 71.1597L146.013 83.1704C145.807 83.2902 145.582 83.3474 145.359 83.3474L145.361 83.3456ZM147.071 56.643C146.192 56.643 145.396 56.8477 144.758 57.3336C142.863 58.7949 141.899 61.9223 141.899 66.6198C141.906 71.2224 143.025 75.4451 145.319 79.5258C145.451 79.7618 145.609 80.0135 145.773 80.2717L164.331 69.5195C161.835 65.0967 158.454 61.6346 154.266 59.2153C152.047 57.9264 149.284 56.6449 147.071 56.6449V56.643ZM162.49 43.2631C162.262 43.2631 162.037 43.206 161.835 43.087C161.431 42.8529 161.18 42.4168 161.18 41.9484V21.7214C161.18 21.2515 161.428 20.8171 161.835 20.5831L183.446 8.05812C183.849 7.8221 184.353 7.8221 184.756 8.05812C185.161 8.29212 185.41 8.72841 185.41 9.19641V29.426C185.41 29.8953 185.161 30.3295 184.756 30.5637L163.145 43.0852C162.942 43.2041 162.717 43.2613 162.49 43.2613V43.2631ZM163.799 22.4809V39.6702L182.791 28.6681V11.473L163.799 22.479V22.4809Z" fill="#03030F"/>
<path d="M338.038 306.933C338.024 300.406 333.719 293.874 325.119 288.889C307.901 278.912 280.009 278.898 262.811 288.868C254.209 293.854 249.917 300.394 249.931 306.935V321.555C249.944 328.088 254.249 334.614 262.85 339.6C280.064 349.584 307.96 349.59 325.156 339.619C333.759 334.634 338.05 328.094 338.036 321.555V306.935L338.038 306.933Z" fill="white"/>
<path d="M294.036 348.372C282.507 348.372 270.975 345.829 262.197 340.734C253.457 335.669 248.635 328.859 248.621 321.555V306.933C248.608 299.615 253.414 292.795 262.155 287.726C279.679 277.571 308.22 277.577 325.773 287.746C334.512 292.813 339.334 299.625 339.348 306.926V321.55C339.362 328.867 334.555 335.687 325.814 340.756C317.055 345.834 305.544 348.37 294.036 348.37V348.372ZM293.927 282.706C282.893 282.706 271.864 285.141 263.466 290.009C255.571 294.584 251.229 300.592 251.242 306.931V321.533C251.256 327.878 255.612 333.884 263.508 338.459C280.331 348.218 307.69 348.232 324.507 338.479C332.402 333.905 336.744 327.895 336.731 321.557V306.936C336.717 300.609 332.361 294.604 324.465 290.029C316.044 285.146 304.984 282.706 293.929 282.706H293.927Z" fill="#03030F"/>
<path d="M338.038 321.552V306.93C338.024 300.404 333.719 293.872 325.119 288.887C321.769 286.949 318.011 285.394 314.009 284.208V344.305C318.023 343.113 321.8 341.566 325.159 339.615C333.762 334.63 338.052 328.09 338.038 321.552Z" fill="#03030F"/>
<path d="M314.009 345.622C313.728 345.622 313.454 345.533 313.225 345.362C312.895 345.112 312.699 344.722 312.699 344.307V284.21C312.699 283.796 312.893 283.406 313.225 283.156C313.553 282.91 313.982 282.83 314.38 282.949C318.59 284.195 322.423 285.809 325.773 287.746C334.512 292.813 339.334 299.625 339.348 306.926V321.547C339.362 328.867 334.555 335.689 325.814 340.756C322.499 342.679 318.652 344.299 314.38 345.567C314.258 345.605 314.132 345.622 314.009 345.622ZM315.319 285.997V342.521C318.723 341.404 321.802 340.048 324.504 338.481C332.4 333.905 336.743 327.893 336.728 321.556V306.933C336.714 300.608 332.359 294.601 324.463 290.029C321.741 288.454 318.671 287.102 315.319 285.999V285.997Z" fill="#03030F"/>
<path d="M325.16 324.996C342.35 315.033 342.333 298.865 325.119 288.887C307.901 278.91 280.008 278.896 262.811 288.866C245.62 298.838 245.634 314.999 262.852 324.976C280.066 334.961 307.963 334.967 325.159 324.996H325.16Z" fill="white"/>
<path d="M294.036 333.751C282.507 333.751 270.975 331.207 262.196 326.113C253.441 321.042 248.617 314.22 248.617 306.907C248.617 299.593 253.423 292.793 262.154 287.729C279.676 277.565 308.218 277.577 325.773 287.746C334.528 292.824 339.352 299.648 339.352 306.962C339.352 314.275 334.541 321.076 325.814 326.137C317.055 331.215 305.544 333.751 294.036 333.751ZM293.927 282.703C282.893 282.703 271.864 285.139 263.466 290.007C255.58 294.578 251.239 300.58 251.239 306.905C251.239 313.229 255.599 319.255 263.508 323.836C280.331 333.595 307.69 333.608 324.507 323.856C332.392 319.289 336.734 313.286 336.734 306.962C336.734 300.638 332.374 294.611 324.465 290.026C316.044 285.144 304.984 282.703 293.929 282.703H293.927Z" fill="#03030F"/>
<path d="M290.725 312.362C291.952 311.651 292.584 310.877 292.622 310.034C292.655 309.199 292.118 308.06 291.005 306.617C288.762 303.995 287.57 301.769 287.452 299.948C287.329 298.119 288.639 296.414 291.381 294.82C293.908 293.355 296.803 292.628 300.043 292.642C303.291 292.657 306.456 293.396 309.545 294.854L314.357 292.066L317.935 294.139L313.057 296.961C315.384 298.748 316.441 300.585 316.244 302.474C316.046 304.364 314.535 306.097 311.722 307.686L311.558 307.72L305.146 304.002C306.783 303.058 307.663 302.112 307.799 301.174C307.935 300.235 307.334 299.379 305.997 298.605C304.584 297.79 303.199 297.413 301.837 297.469C300.472 297.53 299.17 297.921 297.927 298.639C296.772 299.31 296.187 300.037 296.163 300.825C296.139 301.612 296.679 302.784 297.773 304.336C300.027 306.89 301.194 309.102 301.275 310.965C301.361 312.828 300.041 314.553 297.313 316.13C294.708 317.642 291.803 318.383 288.615 318.341C285.419 318.307 282.272 317.56 279.167 316.088L274.74 318.65L271.162 316.582L275.586 314.014C272.966 312.199 271.554 310.276 271.356 308.241C271.159 306.206 272.693 304.277 275.961 302.455L276.159 302.413L282.553 306.118C280.633 307.228 279.732 308.294 279.855 309.316C279.973 310.329 280.783 311.267 282.286 312.138C283.755 312.995 285.215 313.425 286.669 313.433C288.122 313.439 289.472 313.084 290.721 312.364L290.725 312.362Z" fill="#03030F"/>
<path d="M295.701 348.383C294.978 348.383 294.391 347.793 294.391 347.068V332.447C294.391 331.72 294.978 331.132 295.701 331.132C296.424 331.132 297.01 331.72 297.01 332.447V347.068C297.01 347.793 296.424 348.383 295.701 348.383ZM286.547 348.033C285.824 348.033 285.238 347.445 285.238 346.718V332.097C285.238 331.372 285.824 330.783 286.547 330.783C287.27 330.783 287.857 331.372 287.857 332.097V346.718C287.857 347.445 287.27 348.033 286.547 348.033ZM304.855 347.623C304.132 347.623 303.546 347.034 303.546 346.308V331.687C303.546 330.962 304.132 330.372 304.855 330.372C305.578 330.372 306.165 330.962 306.165 331.687V346.308C306.165 347.034 305.578 347.623 304.855 347.623ZM277.391 346.52C276.668 346.52 276.081 345.932 276.081 345.205V330.585C276.081 329.859 276.668 329.27 277.391 329.27C278.114 329.27 278.7 329.859 278.7 330.585V345.205C278.7 345.932 278.114 346.52 277.391 346.52ZM268.237 343.575C267.514 343.575 266.927 342.987 266.927 342.261V327.64C266.927 326.914 267.514 326.325 268.237 326.325C268.959 326.325 269.547 326.914 269.547 327.64V342.261C269.547 342.987 268.959 343.575 268.237 343.575ZM259.083 338.42C258.36 338.42 257.773 337.83 257.773 337.105V322.484C257.773 321.757 258.36 321.169 259.083 321.169C259.806 321.169 260.392 321.757 260.392 322.484V337.105C260.392 337.83 259.806 338.42 259.083 338.42Z" fill="#03030F"/>
<path d="M266.625 81.1919L247.742 110.128L259.237 113.323V143.379L274.015 151.941L283.092 146.682V129.884L285.514 132.018L294.584 126.758L275.7 75.9329L266.625 81.1919Z" fill="white"/>
<path d="M274.015 153.256C273.79 153.256 273.561 153.199 273.361 153.08L258.583 144.517C258.178 144.283 257.927 143.846 257.927 143.379V114.322L247.394 111.396C246.989 111.285 246.663 110.985 246.517 110.593C246.367 110.198 246.418 109.76 246.648 109.409L265.528 80.4717C265.642 80.3012 265.792 80.1564 265.969 80.0532L275.046 74.7942C275.38 74.6015 275.787 74.5646 276.145 74.6955C276.506 74.8264 276.793 75.1113 276.929 75.4746L295.813 126.301C296.034 126.901 295.794 127.578 295.241 127.897L286.167 133.156C285.679 133.44 285.076 133.378 284.65 133.006L284.402 132.787V146.682C284.402 147.153 284.153 147.587 283.748 147.821L274.671 153.08C274.469 153.199 274.24 153.256 274.017 153.256H274.015ZM260.547 142.619L274.015 150.423L281.781 145.923V129.884C281.781 129.366 282.081 128.9 282.55 128.686C283.015 128.48 283.566 128.555 283.953 128.896L285.667 130.407L292.971 126.176L275.012 77.8478L267.545 82.1756L249.82 109.344L259.583 112.056C260.152 112.213 260.545 112.732 260.545 113.323V142.621L260.547 142.619Z" fill="#03030F"/>
<path d="M285.514 132.018L266.625 81.1919L247.742 110.128L259.237 113.323V143.379L274.015 151.941V121.887L285.514 132.018Z" fill="white"/>
<path d="M274.015 153.256C273.79 153.256 273.561 153.199 273.361 153.08L258.583 144.517C258.178 144.283 257.927 143.847 257.927 143.379V114.323L247.394 111.396C246.989 111.285 246.663 110.985 246.517 110.593C246.367 110.199 246.418 109.76 246.648 109.409L265.528 80.4719C265.797 80.058 266.256 79.8311 266.769 79.8874C267.261 79.9427 267.676 80.27 267.85 80.7338L286.738 131.56C286.946 132.123 286.748 132.758 286.255 133.101C285.76 133.442 285.099 133.404 284.648 133.008L275.323 124.792V151.943C275.323 152.414 275.074 152.848 274.667 153.082C274.466 153.201 274.236 153.259 274.013 153.259L274.015 153.256ZM260.547 142.619L272.705 149.663V121.885C272.705 121.367 273.005 120.901 273.476 120.687C273.94 120.481 274.491 120.556 274.878 120.897L282.467 127.584L266.301 84.0833L249.824 109.339L259.587 112.053C260.156 112.209 260.549 112.729 260.549 113.32V142.617L260.547 142.619Z" fill="#03030F"/>
<path d="M274.015 151.941L283.092 146.682V129.884L274.015 121.886V151.941Z" fill="#03030F"/>
<path d="M274.015 153.256C273.79 153.256 273.561 153.199 273.361 153.08C272.956 152.846 272.705 152.41 272.705 151.941V121.887C272.705 121.368 273.005 120.903 273.476 120.689C273.94 120.482 274.491 120.558 274.878 120.899L283.953 128.896C284.236 129.146 284.4 129.505 284.4 129.884V146.682C284.4 147.153 284.151 147.587 283.746 147.821L274.669 153.08C274.467 153.199 274.238 153.256 274.015 153.256ZM275.324 124.79V149.665L281.781 145.926V130.481L275.324 124.79Z" fill="#03030F"/>
</g>
<defs>
<linearGradient id="paint0_linear_4326_611" x1="138.002" y1="200.493" x2="268.58" y2="213.631" gradientUnits="userSpaceOnUse">
<stop stop-color="#85D8EB"/>
<stop offset="1" stop-color="#1177E8"/>
</linearGradient>
</defs>
</svg>
