<svg width="487" height="520" viewBox="0 0 487 520" fill="none" xmlns="http://www.w3.org/2000/svg">
<g clip-path="url(#clip0_4326_694)">
<path d="M477.794 0H9.20605C4.12169 0 0 4.12787 0 9.21986V510.78C0 515.872 4.12169 520 9.20605 520H477.794C482.878 520 487 515.872 487 510.78V9.21986C487 4.12787 482.878 0 477.794 0Z" fill="white"/>
<path d="M95.463 233.839C92.9608 233.839 90.4558 233.323 88.508 232.295C86.3966 231.181 85.2355 229.627 85.2355 227.918C85.2355 226.209 86.3966 224.662 88.5016 223.55C92.3993 221.495 98.5038 221.497 102.403 223.554C104.514 224.669 105.674 226.222 105.674 227.932C105.674 229.64 104.515 231.186 102.41 232.298C100.463 233.325 97.9616 233.839 95.4658 233.839H95.463ZM95.4465 224.448C93.3963 224.448 91.3489 224.85 89.8264 225.654C88.593 226.302 87.885 227.129 87.885 227.918C87.885 228.707 88.5952 229.541 89.8327 230.191C92.8844 231.807 98.0361 231.805 101.083 230.194C102.314 229.547 103.02 228.721 103.02 227.932C103.02 227.142 102.312 226.308 101.077 225.658C99.5505 224.85 97.4985 224.448 95.4465 224.448Z" fill="#03030F"/>
<path d="M442.112 245.667C442.016 245.667 441.912 245.656 441.816 245.635C439.318 245.119 436.351 244.844 433.236 244.844H433.231C430.142 244.905 427.163 245.11 424.658 245.627C424.125 245.745 423.562 245.541 423.255 245.123C422.946 244.71 422.946 244.162 423.255 243.746C424.121 242.586 424.574 241.208 424.567 239.754C424.567 238.298 424.11 236.915 423.246 235.756C422.935 235.342 422.935 234.795 423.246 234.379C423.554 233.961 424.114 233.747 424.648 233.874C429.656 234.907 436.877 234.901 441.807 233.881C442.34 233.757 442.902 233.967 443.209 234.385C443.521 234.799 443.521 235.344 443.213 235.762C442.348 236.922 441.895 238.3 441.9 239.754C441.903 241.213 442.359 242.595 443.22 243.752C443.529 244.166 443.529 244.713 443.22 245.129C442.968 245.47 442.55 245.665 442.114 245.665L442.112 245.667ZM433.238 242.398C435.511 242.398 437.719 242.537 439.748 242.807C439.4 241.838 439.222 240.815 439.218 239.764C439.213 238.71 439.396 237.684 439.744 236.715C435.713 237.245 430.785 237.247 426.714 236.71C427.062 237.679 427.244 238.705 427.244 239.754C427.249 240.805 427.07 241.831 426.721 242.798C428.761 242.532 430.936 242.353 433.238 242.396V242.398Z" fill="#03030F"/>
<path d="M220.252 396.022C219.517 396.022 218.92 395.476 218.92 394.801L218.909 381.599C218.909 380.926 219.504 380.378 220.239 380.378C220.973 380.378 221.571 380.924 221.571 381.599L221.581 394.801C221.581 395.475 220.986 396.022 220.252 396.022Z" fill="#03030F"/>
<path d="M232.729 389.425L207.766 389.419C207.032 389.419 206.434 388.873 206.434 388.198C206.434 387.523 207.029 386.978 207.766 386.978L232.729 386.983C233.464 386.983 234.061 387.529 234.061 388.204C234.061 388.879 233.465 389.425 232.729 389.425Z" fill="#03030F"/>
<path d="M461.732 397.942L433.324 382.914L404.981 397.907V408.595L433.39 423.622L461.732 408.63V397.942Z" fill="#03030F"/>
<path d="M433.39 424.843C433.162 424.843 432.929 424.788 432.724 424.68L404.316 409.652C403.903 409.433 403.649 409.031 403.649 408.594V397.907C403.649 397.472 403.903 397.068 404.316 396.848L432.658 381.855C433.068 381.64 433.58 381.64 433.99 381.855L462.399 396.883C462.81 397.103 463.064 397.506 463.064 397.942V408.629C463.064 409.064 462.81 409.468 462.399 409.688L434.056 424.68C433.852 424.788 433.619 424.843 433.39 424.843ZM406.314 407.89L433.39 422.216L460.4 407.925V398.648L433.324 384.322L406.314 398.613V407.89Z" fill="#03030F"/>
<path d="M461.732 397.942L433.324 382.914L404.981 397.907L433.39 412.934L461.732 397.942Z" fill="white"/>
<path d="M433.39 414.153C433.162 414.153 432.929 414.099 432.724 413.991L404.316 398.963C403.903 398.744 403.649 398.341 403.649 397.904C403.649 397.468 403.903 397.065 404.316 396.847L432.658 381.853C433.068 381.639 433.58 381.639 433.99 381.853L462.399 396.882C462.81 397.101 463.064 397.504 463.064 397.94C463.064 398.376 462.81 398.779 462.399 398.998L434.056 413.991C433.852 414.099 433.619 414.153 433.39 414.153ZM407.644 397.907L433.39 411.527L459.071 397.942L433.324 384.323L407.644 397.907Z" fill="#03030F"/>
<path d="M433.39 412.934V423.622L461.732 408.63V397.942L433.39 412.934Z" fill="#03030F"/>
<path d="M433.39 424.843C433.162 424.843 432.929 424.789 432.724 424.681C432.312 424.461 432.058 424.058 432.058 423.622V412.935C432.058 412.5 432.312 412.096 432.724 411.877L461.067 396.884C461.476 396.669 461.988 396.669 462.399 396.884C462.81 397.103 463.064 397.506 463.064 397.942V408.63C463.064 409.064 462.81 409.469 462.399 409.688L434.056 424.681C433.852 424.789 433.619 424.843 433.39 424.843ZM434.723 413.641V421.512L460.403 407.927V400.056L434.723 413.641Z" fill="#03030F"/>
<path d="M138.575 174.651C138.603 171.109 136.063 167.555 130.946 164.849C120.776 159.469 104.307 159.459 94.1631 164.828C89.0994 167.506 86.5719 171.019 86.5676 174.532V182.164C86.5847 185.682 89.1293 189.196 94.2073 191.88C104.379 197.261 120.84 197.273 130.988 191.905C136.09 189.202 138.617 185.658 138.577 182.113V174.651H138.575Z" fill="#03030F"/>
<path d="M112.641 197.118C105.729 197.118 98.8122 195.724 93.5417 192.938C88.207 190.117 85.2569 186.294 85.2355 182.171V174.532C85.2398 170.407 88.1729 166.584 93.4966 163.77C103.991 158.216 121.087 158.227 131.612 163.792C136.991 166.638 139.937 170.496 139.907 174.655V182.113C139.956 186.259 137.025 190.117 131.654 192.962C126.416 195.735 119.531 197.12 112.642 197.12L112.641 197.118ZM112.514 162.015C106.104 162.015 99.7024 163.304 94.8288 165.885C90.363 168.245 87.9018 171.316 87.8996 174.53V182.162C87.9145 185.376 90.3929 188.455 94.8739 190.822C104.659 196.003 120.561 196.015 130.322 190.847C134.824 188.465 137.283 185.364 137.245 182.125V174.642C137.27 171.394 134.799 168.294 130.281 165.906C125.38 163.31 118.944 162.015 112.516 162.015H112.514Z" fill="#03030F"/>
<path d="M130.945 164.849C129.739 164.212 128.433 163.663 127.069 163.175V193.595C128.448 193.106 129.765 192.547 130.986 191.905C136.088 189.202 138.615 185.657 138.575 182.113V174.651C138.603 171.108 136.063 167.555 130.945 164.849Z" fill="#03030F"/>
<path d="M127.069 194.814C126.804 194.814 126.542 194.742 126.317 194.601C125.954 194.372 125.739 193.996 125.739 193.593V163.173C125.739 162.77 125.957 162.395 126.32 162.166C126.683 161.941 127.146 161.892 127.553 162.035C129.088 162.585 130.414 163.155 131.612 163.787C136.993 166.638 139.939 170.496 139.907 174.657V182.11C139.956 186.254 137.025 190.113 131.654 192.958C130.427 193.605 129.048 194.2 127.552 194.73C127.398 194.784 127.233 194.812 127.071 194.812L127.069 194.814ZM128.401 165.016V191.755C129.082 191.465 129.724 191.16 130.325 190.847C134.822 188.465 137.282 185.364 137.243 182.125V174.651C137.269 171.394 134.797 168.296 130.279 165.906C129.695 165.595 129.073 165.299 128.401 165.016Z" fill="#03030F"/>
<path d="M112.572 152.588C98.2101 152.588 86.5679 162.245 86.5679 174.565C86.5679 182.162 98.2129 188.322 112.572 188.322C126.932 188.322 138.581 182.162 138.581 174.565C138.581 162.245 126.937 152.588 112.572 152.588Z" fill="white"/>
<path d="M112.572 189.543C97.2435 189.543 85.2355 182.964 85.2355 174.565C85.2355 161.558 97.2435 151.369 112.572 151.369C127.901 151.369 139.914 161.558 139.914 174.565C139.914 182.964 127.903 189.543 112.572 189.543ZM112.572 153.807C98.7349 153.807 87.8974 162.927 87.8974 174.565C87.8974 181.478 98.9659 187.101 112.572 187.101C126.179 187.101 137.249 181.475 137.249 174.565C137.249 162.927 126.409 153.807 112.572 153.807Z" fill="#03030F"/>
<path d="M232.86 261.084H232.855C232.871 257.622 230.383 254.155 225.393 251.517C215.436 246.249 199.311 246.247 189.37 251.507C184.902 253.87 182.462 256.9 182.014 259.994H182.001C182.007 265.854 170.107 268.528 163.649 265.115L135.938 250.453C132.331 248.544 126.478 248.548 122.875 250.453L95.1924 265.099C88.7474 268.509 76.8381 265.828 76.8274 259.963H76.8167C76.3663 256.869 73.9114 253.839 69.4372 251.472C59.4852 246.204 43.3663 246.199 33.4229 251.46C28.479 254.073 26.0006 257.502 25.9793 260.931H25.9729V270.854H25.9836C26.0434 274.266 28.5217 277.667 33.4443 280.272C37.9207 282.639 43.646 283.938 49.4971 284.172L49.4928 284.179C52.4323 284.179 54.932 284.631 56.9215 285.348L31.5231 298.78C29.6958 299.748 28.8014 301.016 28.827 302.284V311.95C28.8056 313.214 29.7001 314.485 31.5274 315.452L122.994 363.839C126.6 365.744 132.445 365.751 136.056 363.839L163.737 349.198C165.743 348.134 166.631 346.795 166.571 345.447H166.576V335.739H166.57C166.49 332.746 161.702 329.722 154.028 329.72V329.715C148.188 329.474 142.453 328.182 137.977 325.815C135.388 324.446 133.489 322.851 132.248 321.155C133.486 319.465 135.381 317.881 137.958 316.517C147.9 311.258 164.027 311.259 173.979 316.528C178.453 318.894 180.902 321.928 181.352 325.018H181.369C181.373 330.885 193.283 333.566 199.734 330.155L227.41 315.512C229.211 314.559 230.114 313.312 230.114 312.06V302.301C230.114 301.049 229.214 299.797 227.41 298.843L201.973 285.386C203.956 284.678 206.447 284.233 209.374 284.233V284.228C215.221 283.989 220.948 282.7 225.416 280.337C230.417 277.691 232.894 274.217 232.858 270.745H232.864V261.088L232.86 261.084Z" fill="#03030F"/>
<path d="M129.524 366.498C126.935 366.498 124.345 365.964 122.324 364.898L30.8569 316.51C28.6882 315.364 27.4607 313.696 27.4905 311.933V302.286C27.4564 300.52 28.6497 298.894 30.8506 297.729L53.5294 285.734C52.2614 285.515 50.9016 285.4 49.4885 285.4C49.4223 285.4 49.3561 285.395 49.2899 285.386C43.078 285.12 37.2183 283.68 32.7718 281.329C27.6699 278.63 24.7945 274.98 24.6515 271.034C24.6408 270.977 24.6365 270.913 24.6365 270.853V260.929C24.6365 260.882 24.6408 260.834 24.6451 260.791C24.7326 256.808 27.6058 253.123 32.7504 250.4C43.0396 244.959 59.7926 244.966 70.0945 250.414C74.6884 252.844 77.5275 256.121 78.106 259.651C78.1359 259.752 78.1508 259.854 78.1508 259.96C78.155 261.812 79.7688 263.054 81.1222 263.768C84.9604 265.794 90.9738 265.921 94.5194 264.042L122.202 249.395C126.237 247.261 132.563 247.261 136.598 249.395L164.309 264.057C167.87 265.941 173.887 265.818 177.716 263.791C179.061 263.078 180.667 261.841 180.662 259.995C180.662 259.877 180.68 259.762 180.717 259.653C181.303 256.126 184.133 252.867 188.697 250.451C198.992 245.01 215.75 245.013 226.052 250.461C231.307 253.24 234.194 257.014 234.181 261.086H234.185V270.743C234.185 270.784 234.181 270.825 234.179 270.867C234.155 274.899 231.28 278.635 226.071 281.394C221.644 283.735 215.786 285.167 209.559 285.44C209.494 285.451 209.427 285.454 209.361 285.454C207.961 285.454 206.611 285.566 205.36 285.779L228.063 297.789C230.236 298.941 231.432 300.547 231.432 302.305V312.064C231.432 313.825 230.236 315.424 228.063 316.574L200.387 331.217C196.03 333.514 188.974 333.4 184.319 330.941C181.635 329.525 180.12 327.509 180.028 325.244L180.018 325.187C179.608 322.362 177.221 319.663 173.3 317.592C163.728 312.526 148.169 312.522 138.611 317.582C136.618 318.632 135.033 319.837 133.883 321.161C135.04 322.5 136.632 323.708 138.633 324.764C142.733 326.934 148.222 328.262 154.079 328.503C154.107 328.506 154.135 328.506 154.158 328.508C162.827 328.553 167.656 332.138 167.882 335.57C167.893 335.626 167.894 335.687 167.894 335.748V345.455C167.972 347.299 166.727 349.022 164.39 350.261L136.709 364.904C134.692 365.972 132.105 366.504 129.515 366.504L129.524 366.498ZM49.6315 282.96C52.5218 282.972 55.139 283.395 57.406 284.214C57.882 284.387 58.2086 284.793 58.247 285.259C58.2854 285.726 58.0272 286.17 57.5853 286.405L32.1869 299.837C30.8613 300.539 30.1376 301.4 30.1547 302.26V311.948C30.1397 312.819 30.8826 313.701 32.189 314.392L123.656 362.779C126.835 364.46 132.207 364.466 135.386 362.779L163.066 348.141C164.084 347.601 165.293 346.705 165.238 345.494L165.241 335.863C165.238 335.832 165.235 335.8 165.235 335.767C165.184 333.746 161.256 330.941 154.024 330.94C153.957 330.94 153.889 330.936 153.825 330.928C147.599 330.652 141.736 329.213 137.307 326.871C134.617 325.449 132.54 323.751 131.136 321.834C130.835 321.422 130.835 320.883 131.136 320.475C132.532 318.566 134.603 316.879 137.286 315.459C147.577 310.018 164.332 310.022 174.636 315.47C179.202 317.887 182.033 321.142 182.632 324.659C182.671 324.772 182.692 324.891 182.692 325.019C182.692 326.871 184.304 328.109 185.656 328.823C189.494 330.854 195.507 330.976 199.061 329.096L226.738 314.454C228.033 313.771 228.776 312.897 228.776 312.06V302.302C228.776 301.463 228.033 300.586 226.738 299.897L201.3 286.442C200.857 286.208 200.601 285.759 200.638 285.292C200.677 284.825 201.006 284.418 201.484 284.247C203.745 283.442 206.347 283.025 209.229 283.011C209.256 283.007 209.28 283.007 209.308 283.006C215.166 282.767 220.649 281.443 224.744 279.277C229.145 276.949 231.551 273.921 231.521 270.755C231.521 270.708 231.526 270.663 231.528 270.618V261.083C231.539 257.919 229.122 254.897 224.726 252.575C215.155 247.505 199.591 247.504 190.034 252.566C186.121 254.633 183.738 257.331 183.333 260.153C183.328 260.165 183.328 260.179 183.326 260.19C183.247 262.457 181.738 264.478 179.055 265.898C174.414 268.366 167.348 268.478 162.981 266.172L135.271 251.51C132.087 249.825 126.719 249.825 123.536 251.51L95.8534 266.156C91.4989 268.453 84.4481 268.339 79.7945 265.881C77.0899 264.451 75.5679 262.414 75.4952 260.132C75.4952 260.127 75.4952 260.126 75.4952 260.122C75.0854 257.301 72.6945 254.604 68.7689 252.53C59.197 247.465 43.6373 247.458 34.0868 252.519C29.7363 254.819 27.3283 257.809 27.3091 260.94C27.3091 260.98 27.3049 261.02 27.3027 261.057V270.703C27.307 270.749 27.3113 270.792 27.3134 270.837C27.3667 273.949 29.779 276.93 34.1081 279.216C38.2238 281.391 43.7077 282.72 49.5546 282.955C49.5803 282.958 49.608 282.959 49.6336 282.96H49.6315Z" fill="#03030F"/>
<path d="M136.051 354.083L163.731 339.442C170.181 336.027 165.103 329.727 154.022 329.723V329.717C148.181 329.476 142.448 328.184 137.971 325.817C128.019 320.552 128.013 312.019 137.95 306.761C147.892 301.501 164.019 301.503 173.97 306.771C178.445 309.137 180.893 312.172 181.344 315.262H181.361C181.366 321.128 193.275 323.81 199.725 320.398L227.401 305.756C231.007 303.851 231.007 300.752 227.401 298.843L199.688 284.181C193.232 280.766 198.287 274.472 209.366 274.475V274.469C215.213 274.231 220.94 272.942 225.408 270.579C235.349 265.319 235.339 256.783 225.391 251.522C215.434 246.253 199.309 246.251 189.368 251.511C184.9 253.874 182.46 256.904 182.012 259.998H181.999C182.005 265.858 170.105 268.533 163.648 265.12L135.937 250.458C132.33 248.548 126.476 248.552 122.873 250.458L95.1906 265.104C88.7458 268.513 76.8364 265.832 76.8257 259.967H76.815C76.3646 256.873 73.9098 253.843 69.4354 251.476C59.4836 246.209 43.3646 246.203 33.4213 251.464C23.4822 256.722 23.4886 265.253 33.4426 270.52C37.9191 272.887 43.6442 274.186 49.4954 274.42L49.4912 274.426C60.5744 274.43 65.6443 280.73 59.2018 284.146L31.5214 298.786C27.9095 300.699 27.916 303.79 31.5257 305.699L122.993 354.087C126.598 355.993 132.443 355.998 136.054 354.087L136.051 354.083Z" fill="white"/>
<path d="M129.525 356.741C126.935 356.741 124.346 356.207 122.324 355.141L30.8574 306.754C28.6801 305.601 27.4825 303.999 27.4825 302.239C27.4825 300.479 28.678 298.878 30.8532 297.728L58.5335 283.085C59.7183 282.459 61.0439 281.411 60.6298 279.995C60.0129 277.886 55.8993 275.647 49.4911 275.643C49.4228 275.643 49.3566 275.639 49.2925 275.629C43.0806 275.363 37.2209 273.924 32.7744 271.573C27.5273 268.797 24.6391 265.031 24.6413 260.976C24.6413 256.928 27.5209 253.172 32.7551 250.402C43.0444 244.96 59.7972 244.969 70.0993 250.416C74.6931 252.845 77.5322 256.124 78.1107 259.652C78.1406 259.754 78.1555 259.856 78.1555 259.961C78.1598 261.813 79.7736 263.056 81.127 263.77C84.9651 265.796 90.9785 265.924 94.524 264.044L122.207 249.397C126.242 247.263 132.569 247.263 136.603 249.397L164.313 264.059C167.874 265.943 173.891 265.819 177.721 263.793C179.066 263.079 180.671 261.843 180.667 259.996C180.667 259.879 180.684 259.764 180.723 259.654C181.308 256.128 184.138 252.869 188.702 250.454C198.998 245.011 215.755 245.016 226.056 250.463C231.302 253.239 234.19 257 234.19 261.058C234.19 265.118 231.31 268.868 226.074 271.637C221.647 273.978 215.784 275.414 209.56 275.684C209.494 275.694 209.432 275.696 209.366 275.696H209.359C202.964 275.696 198.864 277.925 198.246 280.028C197.83 281.448 199.164 282.496 200.353 283.124L228.068 297.787C230.241 298.939 231.436 300.545 231.436 302.303C231.436 304.062 230.241 305.664 228.068 306.814L200.392 321.457C196.035 323.757 188.98 323.64 184.324 321.181C181.641 319.765 180.125 317.748 180.033 315.483L180.022 315.426C179.613 312.602 177.226 309.902 173.305 307.831C163.732 302.765 148.173 302.761 138.616 307.821C134.242 310.134 131.832 313.138 131.832 316.279C131.832 319.421 134.248 322.439 138.638 324.76C142.738 326.93 148.227 328.258 154.083 328.499C154.112 328.503 154.14 328.503 154.163 328.504C161.113 328.539 166.683 331.065 167.735 334.664C168.391 336.904 167.174 339.032 164.397 340.502L136.716 355.143C134.699 356.211 132.11 356.743 129.523 356.743L129.525 356.741ZM49.634 273.204C56.5782 273.241 62.1476 275.764 63.2021 279.363C63.8574 281.603 62.6406 283.731 59.8656 285.198L32.1852 299.841C30.8894 300.528 30.1445 301.4 30.1445 302.239C30.1445 303.078 30.8894 303.95 32.1873 304.637L123.654 353.025C126.833 354.709 132.205 354.709 135.384 353.025L163.065 338.386C164.25 337.76 165.577 336.712 165.165 335.296C164.548 333.187 160.433 330.948 154.02 330.943C153.954 330.943 153.886 330.939 153.821 330.932C147.594 330.656 141.733 329.216 137.304 326.875C132.058 324.099 129.168 320.334 129.168 316.279C129.168 312.224 132.052 308.474 137.284 305.705C147.576 300.261 164.331 300.263 174.634 305.715C179.2 308.132 182.031 311.387 182.631 314.904C182.669 315.018 182.69 315.136 182.69 315.264C182.69 317.116 184.302 318.354 185.654 319.069C189.492 321.099 195.505 321.218 199.06 319.343L226.736 304.7C228.031 304.016 228.774 303.142 228.774 302.305C228.774 301.468 228.031 300.59 226.736 299.902L199.021 285.243C196.237 283.768 195.016 281.64 195.672 279.398C196.726 275.805 202.285 273.289 209.225 273.258C209.253 273.254 209.277 273.254 209.304 273.253C215.161 273.014 220.645 271.69 224.74 269.524C229.114 267.213 231.524 264.204 231.524 261.063C231.524 257.922 229.107 254.901 224.722 252.582C215.151 247.512 199.587 247.51 190.029 252.571C186.117 254.639 183.734 257.336 183.329 260.159C183.325 260.17 183.325 260.184 183.323 260.196C183.244 262.463 181.735 264.484 179.051 265.903C174.41 268.372 167.345 268.484 162.977 266.178L135.266 251.516C132.084 249.831 126.715 249.831 123.532 251.516L95.8497 266.162C91.4951 268.458 84.4443 268.345 79.7907 265.886C77.086 264.457 75.564 262.42 75.4914 260.137C75.4914 260.134 75.4914 260.132 75.4914 260.128C75.0816 257.307 72.6908 254.61 68.765 252.536C59.1931 247.47 43.6335 247.465 34.0829 252.524C29.7089 254.837 27.3011 257.842 27.3011 260.983C27.3011 264.129 29.7154 267.142 34.1043 269.464C38.2199 271.639 43.7039 272.967 49.5508 273.202C49.5764 273.205 49.6042 273.206 49.6319 273.207L49.634 273.204Z" fill="#03030F"/>
<path d="M232.86 261.084V270.741H232.853C232.888 274.212 230.414 277.686 225.412 280.333C220.944 282.697 215.217 283.987 209.37 284.223V284.23C206.443 284.23 203.952 284.673 201.969 285.381L199.691 284.177C193.236 280.761 198.291 274.467 209.37 274.472V274.465C215.217 274.226 220.944 272.937 225.412 270.574C230.365 267.954 232.847 264.517 232.858 261.081V261.084H232.862H232.86ZM166.563 335.741C166.597 337.07 165.713 338.394 163.731 339.442L136.05 354.083C134.219 355.051 131.81 355.524 129.416 355.509V365.268C131.81 365.283 134.221 364.81 136.05 363.841L163.731 349.201C165.737 348.136 166.625 346.797 166.565 345.449H166.57V335.741H166.563ZM156.168 302.827C149.582 302.796 142.977 304.1 137.95 306.759C130.609 310.644 128.758 316.3 132.268 321.12C133.508 319.442 135.391 317.871 137.95 316.518C142.977 313.86 149.58 312.553 156.168 312.586V302.827ZM227.404 305.754L199.728 320.397C197.697 321.471 195.125 321.938 192.553 321.895V331.653C195.125 331.695 197.697 331.227 199.728 330.155L227.404 315.512C229.206 314.559 230.108 313.312 230.108 312.06V302.302C230.108 303.549 229.208 304.801 227.404 305.754Z" fill="#03030F" fill-opacity="0.05"/>
<path d="M129.533 366.486H129.405C128.673 366.48 128.084 365.936 128.084 365.266V355.506C128.084 355.182 128.226 354.871 128.476 354.641C128.73 354.411 129.016 354.36 129.426 354.288C131.67 354.266 133.838 353.844 135.384 353.024L163.064 338.386C164.07 337.856 165.263 336.97 165.231 335.772C165.225 335.446 165.359 335.127 165.609 334.893C165.863 334.658 166.204 334.525 166.563 334.525H166.57C167.304 334.525 167.902 335.071 167.902 335.745V345.453C167.978 347.297 166.734 349.02 164.396 350.258L136.716 364.901C134.776 365.929 132.231 366.49 129.533 366.49V366.486ZM130.745 356.69V364C132.503 363.867 134.146 363.44 135.384 362.783L163.064 348.144C164.083 347.604 165.291 346.709 165.236 345.498L165.239 340.003C164.977 340.177 164.695 340.343 164.396 340.502L136.716 355.143C135.07 356.014 132.987 356.549 130.747 356.692L130.745 356.69ZM192.871 332.877C192.755 332.877 192.642 332.877 192.525 332.874C191.802 332.86 191.219 332.318 191.219 331.653V321.894C191.219 321.568 191.362 321.253 191.617 321.024C191.868 320.799 192.2 320.674 192.551 320.674C192.617 320.665 192.755 320.677 192.862 320.677C195.23 320.677 197.42 320.205 199.06 319.338L226.736 304.695C228.031 304.013 228.774 303.139 228.774 302.301C228.774 301.628 229.37 301.081 230.106 301.081C230.843 301.081 231.438 301.626 231.438 302.301V312.06C231.438 313.82 230.242 315.42 228.07 316.57L200.394 331.213C198.327 332.303 195.733 332.877 192.875 332.877H192.871ZM193.88 323.094V330.405C195.853 330.292 197.659 329.84 199.06 329.096L226.736 314.454C228.031 313.771 228.774 312.897 228.774 312.06V306.399C228.552 306.542 228.317 306.679 228.068 306.812L200.392 321.455C198.571 322.413 196.342 322.976 193.88 323.094ZM132.267 322.341H132.263C131.82 322.341 131.407 322.137 131.161 321.797C129.4 319.383 128.817 316.737 129.479 314.145C130.308 310.882 133.008 307.968 137.282 305.703C142.281 303.06 148.894 301.609 155.924 301.609C156.731 301.609 157.495 302.082 157.495 302.829V312.588C157.495 312.913 157.352 313.223 157.102 313.452C156.848 313.681 156.414 313.865 156.157 313.809C149.609 313.869 143.267 315.113 138.614 317.58C136.308 318.8 134.545 320.222 133.369 321.811C133.119 322.145 132.707 322.344 132.267 322.344V322.341ZM154.836 304.061C148.679 304.201 142.963 305.519 138.616 307.819C134.994 309.733 132.733 312.112 132.076 314.698C131.719 316.097 131.86 317.529 132.481 318.914C133.757 317.636 135.365 316.476 137.286 315.461C142.025 312.956 148.216 311.519 154.837 311.379V304.061H154.836ZM201.965 286.604C201.732 286.604 201.504 286.549 201.299 286.441L199.021 285.239C196.237 283.764 195.016 281.636 195.672 279.394C196.726 275.801 202.285 273.286 209.225 273.254C209.253 273.251 209.276 273.251 209.304 273.249C215.161 273.01 220.645 271.685 224.74 269.52C229.103 267.214 231.509 264.215 231.519 261.08C231.524 260.407 232.119 259.863 232.853 259.863C233.588 259.867 234.185 260.413 234.185 261.086V270.743C234.185 270.783 234.182 270.825 234.179 270.866C234.156 274.899 231.28 278.635 226.072 281.394C221.644 283.734 215.782 285.17 209.557 285.44C209.492 285.45 209.429 285.454 209.363 285.454C206.797 285.454 204.407 285.822 202.445 286.523C202.289 286.579 202.127 286.605 201.962 286.605L201.965 286.604ZM209.359 275.693C202.964 275.693 198.863 277.923 198.246 280.026C197.83 281.446 199.164 282.494 200.353 283.122L202.09 284.043C204.206 283.37 206.603 283.025 209.229 283.011C209.257 283.007 209.28 283.007 209.308 283.005C215.166 282.766 220.65 281.442 224.744 279.277C229.146 276.949 231.551 273.921 231.521 270.755C231.521 270.708 231.526 270.663 231.528 270.617V267.513C230.183 269.035 228.353 270.426 226.076 271.632C221.649 273.974 215.787 275.41 209.562 275.68C209.496 275.689 209.434 275.691 209.368 275.691H209.361L209.359 275.693Z" fill="#03030F"/>
<g filter="url(#filter0_d_4326_694)">
<path d="M61.5468 307.284L58.8669 308.8L57.4667 307.846L64.5704 303.825L65.9706 304.779L63.2907 306.296L70.4133 311.153L68.6694 312.141L61.5468 307.284ZM65.596 303.244L72.0842 299.571L73.4843 300.525L68.74 303.211L70.8951 304.68L75.2676 302.205L76.6434 303.143L72.2709 305.619L74.4625 307.113L79.2068 304.427L80.607 305.382L74.1187 309.055L65.596 303.244ZM80.3665 303.77L74.6441 299.868L74.7185 298.079L79.1038 295.596L81.9286 295.714L83.2313 296.602L81.4875 297.589L80.7935 297.116L79.6186 297.067L77.0541 298.519L77.0211 299.312L81.4773 302.351L82.7522 302.405L85.3167 300.953L85.3471 300.221L84.6531 299.748L86.3969 298.761L87.6997 299.649L87.6266 301.407L83.2413 303.89L80.3665 303.77ZM81.7744 294.084L83.5183 293.096L87.0856 295.529L90.8811 293.38L87.3138 290.947L89.0576 289.961L97.5804 295.772L95.8368 296.759L92.2934 294.343L88.498 296.492L92.0411 298.909L90.2972 299.895L81.7744 294.084ZM90.7276 289.015L92.2916 288.129L102.076 289.808L102.102 289.793L96.3183 285.849L97.9984 284.898L106.52 290.71L104.956 291.595L95.185 289.926L95.1592 289.94L100.931 293.875L99.2504 294.826L90.7276 289.015ZM106.663 288.882L100.941 284.98L101.014 283.191L105.631 280.577L108.505 280.697L114.228 284.599L114.153 286.389L109.537 289.002L106.663 288.882ZM111.818 285.948L111.851 285.154L107.395 282.115L106.12 282.063L103.35 283.631L103.318 284.424L107.773 287.463L109.048 287.516L111.818 285.948ZM108.647 278.869L110.391 277.882L117.513 282.739L122.001 280.198L123.401 281.153L117.169 284.681L108.647 278.869ZM122.641 279.835L116.919 275.934L116.992 274.144L121.609 271.53L124.483 271.65L130.206 275.553L130.131 277.342L125.515 279.955L122.641 279.835ZM127.796 276.902L127.829 276.108L123.373 273.07L122.098 273.016L119.328 274.585L119.296 275.379L123.751 278.416L125.026 278.47L127.796 276.902ZM131.619 274.752L125.896 270.851L125.971 269.061L130.433 266.535L133.258 266.652L134.561 267.541L132.817 268.528L132.122 268.054L130.948 268.005L128.307 269.501L128.273 270.295L132.73 273.334L134.005 273.387L136.672 271.877L136.703 271.114L135.376 270.209L133.453 271.298L132.041 270.335L135.657 268.288L139.005 270.571L138.93 272.361L134.494 274.872L131.619 274.752ZM140.439 267.16L132.206 265.531L134.116 264.449L139.752 265.619L139.778 265.605L138.425 262.01L140.335 260.928L142.183 266.172L145.665 268.548L143.922 269.535L140.439 267.16Z" fill="#03030F"/>
</g>
<path d="M442.267 286.055H442.262C442.278 282.593 439.79 279.127 434.8 276.488C424.844 271.221 408.718 271.219 398.778 276.479C394.309 278.841 391.869 281.871 391.421 284.966H391.408C391.415 290.826 379.514 293.499 373.057 290.086L345.347 275.424C341.739 273.515 335.885 273.519 332.282 275.424L304.6 290.071C298.154 293.48 286.246 290.798 286.235 284.934H286.224C285.773 281.84 283.319 278.809 278.845 276.443C268.892 271.175 252.773 271.17 242.83 276.432C237.886 279.045 235.408 282.473 235.387 285.902H235.38V295.826H235.391C235.45 299.237 237.929 302.638 242.852 305.244C247.328 307.61 253.053 308.91 258.904 309.144L258.9 309.15C261.839 309.15 264.339 309.602 266.329 310.319L240.931 323.752C239.103 324.72 238.208 325.987 238.234 327.254V336.921C238.213 338.185 239.108 339.457 240.934 340.423L332.401 388.811C336.007 390.715 341.852 390.722 345.463 388.811L373.144 374.17C375.15 373.106 376.039 371.766 375.979 370.418H375.983V360.71H375.977C375.898 357.718 371.11 354.693 363.435 354.692V354.686C357.595 354.445 351.861 353.152 347.385 350.785C344.795 349.416 342.896 347.822 341.655 346.126C342.893 344.436 344.789 342.852 347.365 341.489C357.307 336.229 373.434 336.231 383.386 341.498C387.86 343.865 390.309 346.899 390.759 349.99H390.777C390.78 355.855 402.69 358.537 409.141 355.126L436.817 340.483C438.619 339.531 439.522 338.283 439.522 337.031V327.273C439.522 326.021 438.621 324.769 436.817 323.814L411.381 310.357C413.364 309.649 415.855 309.205 418.781 309.205V309.199C424.628 308.96 430.355 307.671 434.823 305.308C439.825 302.661 442.301 299.188 442.265 295.716H442.271V286.059L442.267 286.055Z" fill="#03030F"/>
<path d="M338.932 391.468C336.342 391.468 333.752 390.935 331.731 389.869L240.264 341.48C238.096 340.334 236.868 338.665 236.898 336.904V327.257C236.864 325.49 238.057 323.865 240.258 322.698L262.937 310.704C261.669 310.486 260.309 310.37 258.896 310.37C258.83 310.37 258.764 310.366 258.697 310.357C252.485 310.09 246.625 308.651 242.179 306.3C237.077 303.6 234.202 299.95 234.059 296.005C234.048 295.948 234.044 295.883 234.044 295.824V285.9C234.044 285.853 234.048 285.804 234.053 285.761C234.14 281.779 237.013 278.094 242.158 275.371C252.447 269.93 269.2 269.937 279.502 275.385C284.096 277.814 286.935 281.092 287.513 284.621C287.544 284.723 287.558 284.824 287.558 284.93C287.563 286.783 289.177 288.024 290.53 288.738C294.368 290.765 300.381 290.892 303.927 289.012L331.609 274.365C335.644 272.232 341.972 272.232 346.006 274.365L373.716 289.028C377.277 290.911 383.295 290.789 387.124 288.762C388.469 288.048 390.074 286.812 390.069 284.965C390.069 284.848 390.087 284.733 390.126 284.623C390.71 281.097 393.541 277.837 398.105 275.422C408.401 269.98 425.157 269.984 435.46 275.432C440.715 278.211 443.601 281.985 443.589 286.057H443.593V295.714C443.593 295.754 443.589 295.796 443.586 295.836C443.563 299.87 440.687 303.606 435.478 306.365C431.051 308.706 425.194 310.137 418.967 310.411C418.901 310.421 418.835 310.425 418.768 310.425C417.368 310.425 416.019 310.537 414.768 310.75L437.471 322.759C439.643 323.912 440.839 325.518 440.839 327.276V337.034C440.839 338.795 439.643 340.395 437.471 341.545L409.794 356.188C405.437 358.484 398.383 358.371 393.726 355.912C391.044 354.496 389.527 352.48 389.436 350.214L389.425 350.157C389.015 347.333 386.629 344.633 382.707 342.563C373.136 337.496 357.576 337.493 348.019 342.553C346.025 343.603 344.442 344.808 343.291 346.132C344.447 347.469 346.04 348.679 348.04 349.735C352.141 351.904 357.629 353.233 363.487 353.473C363.515 353.477 363.542 353.477 363.565 353.479C372.235 353.524 377.063 357.109 377.29 360.54C377.3 360.597 377.303 360.658 377.303 360.718V370.426C377.379 372.27 376.134 373.993 373.797 375.231L346.117 389.874C344.099 390.942 341.512 391.475 338.923 391.475L338.932 391.468ZM259.039 307.931C261.93 307.943 264.547 308.365 266.813 309.185C267.289 309.356 267.616 309.764 267.655 310.23C267.693 310.697 267.435 311.14 266.993 311.376L241.594 324.807C240.269 325.51 239.545 326.371 239.563 327.231V336.919C239.547 337.79 240.29 338.672 241.596 339.362L333.063 387.75C336.242 389.431 341.614 389.436 344.793 387.75L372.474 373.112C373.492 372.571 374.7 371.675 374.645 370.465L374.649 360.834C374.645 360.802 374.643 360.771 374.643 360.738C374.591 358.717 370.663 355.912 363.431 355.91C363.365 355.91 363.296 355.907 363.233 355.898C357.006 355.623 351.144 354.183 346.715 351.842C344.025 350.42 341.948 348.722 340.543 346.805C340.242 346.393 340.242 345.854 340.543 345.446C341.939 343.536 344.01 341.85 346.693 340.43C356.985 334.989 373.74 334.992 384.043 340.44C388.609 342.858 391.44 346.112 392.041 349.63C392.078 349.743 392.1 349.862 392.1 349.989C392.1 351.842 393.711 353.08 395.063 353.793C398.901 355.825 404.914 355.947 408.469 354.067L436.145 339.425C437.44 338.742 438.183 337.868 438.183 337.031V327.272C438.183 326.433 437.44 325.557 436.145 324.868L410.708 311.412C410.264 311.178 410.008 310.73 410.047 310.263C410.084 309.795 410.413 309.388 410.892 309.218C413.152 308.412 415.754 307.996 418.636 307.982C418.663 307.978 418.687 307.978 418.715 307.976C424.573 307.737 430.057 306.413 434.151 304.248C438.553 301.92 440.959 298.892 440.928 295.726C440.928 295.679 440.933 295.634 440.935 295.588V286.053C440.946 282.89 438.529 279.868 434.134 277.546C424.562 272.476 408.998 272.474 399.441 277.536C395.529 279.604 393.146 282.301 392.74 285.124C392.736 285.136 392.736 285.149 392.734 285.161C392.655 287.428 391.146 289.449 388.462 290.869C383.821 293.337 376.756 293.448 372.388 291.143L344.678 276.48C341.496 274.796 336.127 274.796 332.944 276.48L305.262 291.127C300.906 293.423 293.855 293.309 289.202 290.851C286.498 289.421 284.975 287.385 284.902 285.103C284.902 285.098 284.902 285.096 284.902 285.093C284.493 282.272 282.102 279.574 278.176 277.501C268.605 272.435 253.045 272.429 243.494 277.49C239.144 279.789 236.735 282.78 236.717 285.91C236.717 285.951 236.712 285.991 236.711 286.027V295.674C236.714 295.719 236.719 295.763 236.721 295.808C236.774 298.92 239.186 301.9 243.516 304.187C247.632 306.362 253.115 307.69 258.962 307.925C258.987 307.929 259.016 307.929 259.041 307.931H259.039Z" fill="#03030F"/>
<path d="M345.458 379.054L373.138 364.413C379.589 360.998 374.51 354.698 363.429 354.694V354.688C357.589 354.447 351.855 353.155 347.378 350.788C337.427 345.522 337.42 336.99 347.357 331.732C357.299 326.473 373.426 326.474 383.378 331.742C387.853 334.108 390.301 337.143 390.751 340.233H390.768C390.773 346.099 402.682 348.781 409.132 345.37L436.809 330.727C440.415 328.822 440.415 325.723 436.809 323.814L409.095 309.152C402.639 305.737 407.695 299.442 418.773 299.446V299.44C424.62 299.201 430.347 297.912 434.816 295.55C444.756 290.29 444.746 281.753 434.798 276.493C424.842 271.224 408.716 271.223 398.776 276.482C394.308 278.846 391.867 281.875 391.419 284.969H391.406C391.413 290.829 379.512 293.503 373.055 290.09L345.345 275.428C341.737 273.519 335.884 273.523 332.28 275.428L304.598 290.074C298.153 293.484 286.244 290.803 286.233 284.938H286.223C285.772 281.844 283.317 278.814 278.843 276.447C268.891 271.179 252.772 271.174 242.829 276.435C232.889 281.694 232.896 290.224 242.85 295.491C247.326 297.858 253.051 299.157 258.903 299.391L258.898 299.397C269.981 299.401 275.052 305.701 268.609 309.117L240.929 323.757C237.317 325.67 237.323 328.761 240.933 330.67L332.4 379.058C336.005 380.963 341.85 380.969 345.462 379.058L345.458 379.054Z" fill="white"/>
<path d="M338.932 381.712C336.342 381.712 333.752 381.178 331.731 380.113L240.264 331.724C238.087 330.572 236.889 328.97 236.889 327.21C236.889 325.449 238.085 323.849 240.26 322.699L267.94 308.057C269.125 307.431 270.451 306.382 270.036 304.966C269.42 302.857 265.306 300.617 258.898 300.613C258.83 300.613 258.764 300.61 258.699 300.6C252.488 300.334 246.628 298.894 242.182 296.543C236.934 293.768 234.046 290.002 234.048 285.947C234.048 281.898 236.928 278.143 242.162 275.373C252.451 269.932 269.204 269.939 279.507 275.387C284.101 277.816 286.94 281.095 287.518 284.623C287.547 284.725 287.563 284.826 287.563 284.932C287.567 286.784 289.18 288.026 290.534 288.741C294.373 290.767 300.386 290.894 303.931 289.015L331.614 274.368C335.648 272.234 341.975 272.234 346.01 274.368L373.72 289.03C377.281 290.914 383.298 290.791 387.128 288.764C388.473 288.05 390.079 286.814 390.074 284.967C390.074 284.85 390.092 284.735 390.129 284.625C390.715 281.099 393.545 277.839 398.109 275.424C408.404 269.982 425.162 269.986 435.464 275.434C440.708 278.209 443.597 281.971 443.597 286.029C443.597 290.088 440.717 293.838 435.481 296.607C431.054 298.949 425.192 300.385 418.967 300.655C418.901 300.664 418.839 300.667 418.773 300.667H418.767C412.371 300.667 408.27 302.896 407.653 304.999C407.237 306.419 408.571 307.467 409.76 308.095L437.475 322.758C439.648 323.91 440.844 325.515 440.844 327.274C440.844 329.033 439.648 330.635 437.475 331.785L409.799 346.428C405.442 348.728 398.386 348.61 393.731 346.152C391.047 344.736 389.532 342.719 389.44 340.454L389.43 340.397C389.02 337.573 386.633 334.873 382.712 332.802C373.14 327.735 357.58 327.732 348.023 332.792C343.649 335.104 341.239 338.109 341.239 341.25C341.239 344.391 343.655 347.41 348.045 349.731C352.145 351.901 357.634 353.228 363.491 353.469C363.518 353.473 363.547 353.473 363.57 353.475C370.52 353.51 376.09 356.036 377.142 359.634C377.798 361.874 376.581 364.003 373.803 365.473L346.124 380.114C344.106 381.182 341.517 381.714 338.929 381.714L338.932 381.712ZM259.041 298.175C265.985 298.212 271.555 300.735 272.61 304.334C273.264 306.574 272.048 308.702 269.272 310.169L241.593 324.812C240.296 325.498 239.552 326.371 239.552 327.21C239.552 328.049 240.296 328.921 241.594 329.608L333.061 377.996C336.24 379.68 341.613 379.68 344.791 377.996L372.471 363.357C373.656 362.731 374.984 361.683 374.572 360.267C373.955 358.158 369.839 355.918 363.427 355.914C363.361 355.914 363.293 355.91 363.228 355.902C357.001 355.626 351.14 354.187 346.71 351.845C341.465 349.07 338.575 345.305 338.575 341.25C338.575 337.195 341.459 333.445 346.691 330.676C356.982 325.232 373.737 325.234 384.041 330.686C388.608 333.103 391.438 336.358 392.038 339.875C392.076 339.989 392.098 340.108 392.098 340.235C392.098 342.087 393.71 343.325 395.061 344.039C398.899 346.069 404.912 346.189 408.467 344.313L436.143 329.671C437.438 328.987 438.181 328.113 438.181 327.276C438.181 326.439 437.438 325.56 436.143 324.872L408.428 310.214C405.644 308.739 404.424 306.611 405.079 304.37C406.133 300.776 411.692 298.26 418.632 298.229C418.66 298.225 418.683 298.225 418.71 298.224C424.568 297.985 430.052 296.661 434.147 294.495C438.521 292.183 440.931 289.175 440.931 286.033C440.931 282.892 438.515 279.872 434.13 277.552C424.558 272.482 408.993 272.48 399.437 277.543C395.524 279.61 393.142 282.307 392.736 285.13C392.732 285.142 392.732 285.155 392.73 285.167C392.651 287.434 391.141 289.455 388.458 290.874C383.818 293.343 376.752 293.454 372.384 291.148L344.674 276.486C341.491 274.802 336.122 274.802 332.94 276.486L305.257 291.133C300.902 293.429 293.852 293.316 289.198 290.857C286.493 289.427 284.971 287.391 284.899 285.108C284.899 285.105 284.899 285.103 284.899 285.098C284.489 282.278 282.098 279.58 278.172 277.507C268.6 272.441 253.04 272.435 243.49 277.495C239.116 279.808 236.708 282.812 236.708 285.953C236.708 289.1 239.123 292.113 243.511 294.434C247.627 296.609 253.111 297.938 258.958 298.173C258.984 298.177 259.011 298.177 259.039 298.178L259.041 298.175Z" fill="#03030F"/>
<path d="M442.267 286.055V295.712H442.26C442.295 299.184 439.821 302.658 434.819 305.305C430.352 307.667 424.624 308.958 418.777 309.194V309.201C415.85 309.201 413.359 309.644 411.376 310.352L409.098 309.147C402.643 305.732 407.698 299.438 418.777 299.442V299.436C424.624 299.197 430.352 297.908 434.819 295.545C439.772 292.924 442.254 289.488 442.265 286.051V286.055H442.269H442.267ZM375.97 360.712C376.005 362.041 375.121 363.365 373.138 364.413L345.457 379.054C343.626 380.022 341.218 380.495 338.822 380.48V390.239C341.218 390.255 343.628 389.781 345.457 388.813L373.138 374.171C375.144 373.107 376.032 371.768 375.972 370.42H375.977V360.712H375.97ZM365.574 327.798C358.989 327.767 352.385 329.072 347.357 331.73C340.016 335.615 338.165 341.271 341.674 346.091C342.915 344.412 344.798 342.842 347.357 341.489C352.385 338.831 358.987 337.523 365.574 337.558V327.798ZM436.81 330.725L409.134 345.368C407.104 346.442 404.532 346.909 401.96 346.866V356.624C404.532 356.666 407.104 356.198 409.134 355.126L436.81 340.483C438.612 339.531 439.515 338.283 439.515 337.031V327.273C439.515 328.52 438.615 329.772 436.81 330.725Z" fill="#03030F" fill-opacity="0.05"/>
<path d="M338.94 391.457H338.812C338.08 391.451 337.491 390.907 337.491 390.237V380.478C337.491 380.153 337.634 379.842 337.883 379.611C338.137 379.382 338.424 379.332 338.833 379.26C341.077 379.238 343.246 378.815 344.791 377.996L372.472 363.357C373.477 362.827 374.671 361.941 374.638 360.743C374.632 360.417 374.766 360.098 375.017 359.864C375.27 359.629 375.611 359.496 375.97 359.496H375.977C376.712 359.496 377.309 360.042 377.309 360.717V370.424C377.385 372.268 376.141 373.991 373.803 375.23L346.124 389.873C344.183 390.9 341.638 391.461 338.94 391.461V391.457ZM340.152 381.661V388.971C341.91 388.838 343.553 388.411 344.791 387.754L372.472 373.116C373.49 372.575 374.698 371.68 374.643 370.469L374.647 364.974C374.384 365.149 374.103 365.315 373.803 365.473L346.124 380.114C344.477 380.985 342.394 381.52 340.155 381.663L340.152 381.661ZM402.279 357.848C402.163 357.848 402.05 357.848 401.932 357.845C401.209 357.831 400.626 357.29 400.626 356.624V346.866C400.626 346.539 400.769 346.224 401.026 345.995C401.275 345.77 401.608 345.645 401.958 345.645C402.024 345.636 402.163 345.649 402.269 345.649C404.637 345.649 406.827 345.176 408.467 344.309L436.143 329.666C437.438 328.984 438.181 328.11 438.181 327.273C438.181 326.6 438.777 326.052 439.513 326.052C440.25 326.052 440.845 326.598 440.845 327.273V337.031C440.845 338.791 439.65 340.392 437.477 341.541L409.801 356.184C407.734 357.274 405.141 357.848 402.282 357.848H402.279ZM403.288 348.064V355.377C405.26 355.263 407.067 354.811 408.467 354.067L436.143 339.425C437.438 338.742 438.181 337.868 438.181 337.031V331.37C437.959 331.513 437.725 331.65 437.475 331.783L409.799 346.426C407.978 347.384 405.749 347.947 403.288 348.064ZM341.674 347.312H341.671C341.227 347.312 340.814 347.108 340.569 346.768C338.807 344.354 338.225 341.707 338.887 339.115C339.715 335.853 342.415 332.939 346.689 330.674C351.689 328.031 358.301 326.58 365.331 326.58C366.138 326.58 366.903 327.053 366.903 327.8V337.559C366.903 337.884 366.759 338.194 366.509 338.423C366.255 338.653 365.823 338.836 365.564 338.78C359.017 338.84 352.675 340.084 348.021 342.551C345.716 343.772 343.953 345.193 342.776 346.782C342.527 347.116 342.114 347.316 341.674 347.316V347.312ZM364.243 329.033C358.086 329.172 352.37 330.49 348.024 332.79C344.401 334.705 342.14 337.083 341.483 339.67C341.126 341.068 341.267 342.5 341.888 343.885C343.165 342.607 344.772 341.447 346.693 340.432C351.433 337.927 357.623 336.491 364.245 336.35V329.033H364.243ZM411.372 311.575C411.139 311.575 410.911 311.52 410.706 311.413L408.428 310.209C405.644 308.735 404.424 306.607 405.079 304.365C406.133 300.772 411.692 298.257 418.632 298.225C418.66 298.222 418.683 298.222 418.711 298.22C424.568 297.981 430.052 296.656 434.147 294.491C438.51 292.185 440.916 289.186 440.926 286.051C440.931 285.378 441.527 284.834 442.26 284.834C442.995 284.838 443.593 285.384 443.593 286.057V295.714C443.593 295.754 443.589 295.796 443.586 295.837C443.563 299.87 440.687 303.606 435.479 306.365C431.051 308.706 425.19 310.141 418.965 310.411C418.899 310.421 418.837 310.425 418.771 310.425C416.205 310.425 413.814 310.793 411.852 311.495C411.696 311.55 411.534 311.577 411.37 311.577L411.372 311.575ZM418.767 300.664C412.371 300.664 408.27 302.894 407.653 304.997C407.237 306.417 408.571 307.466 409.76 308.093L411.498 309.014C413.613 308.341 416.01 307.996 418.636 307.982C418.664 307.978 418.687 307.978 418.715 307.976C424.573 307.738 430.057 306.414 434.151 304.248C438.553 301.92 440.959 298.892 440.928 295.726C440.928 295.679 440.933 295.634 440.935 295.589V292.484C439.591 294.006 437.761 295.397 435.483 296.604C431.056 298.945 425.194 300.381 418.969 300.651C418.903 300.66 418.841 300.662 418.775 300.662H418.768L418.767 300.664Z" fill="#03030F"/>
<g filter="url(#filter1_d_4326_694)">
<path d="M274.55 334.279L268.556 330.008L268.675 328.109L273.387 325.568L276.385 325.754L277.75 326.727L275.876 327.737L275.149 327.219L273.902 327.142L271.146 328.628L271.093 329.47L275.761 332.795L277.114 332.88L279.87 331.394L279.918 330.618L279.191 330.1L281.065 329.089L282.43 330.062L282.314 331.928L277.601 334.469L274.55 334.279ZM283.579 329.41L277.585 325.139L277.704 323.24L282.664 320.564L285.716 320.755L291.709 325.025L291.592 326.925L286.63 329.6L283.579 329.41ZM289.12 326.406L289.172 325.563L284.505 322.238L283.151 322.154L280.175 323.758L280.123 324.601L284.79 327.926L286.143 328.011L289.12 326.406ZM285.906 318.816L287.642 317.88L296.272 320.442L296.299 320.427L293.415 314.767L295.151 313.83L304.079 320.191L302.273 321.165L296.841 317.293L296.813 317.309L298.778 321.485L297.62 322.11L291.232 320.318L291.205 320.333L296.637 324.203L294.832 325.177L285.906 318.816ZM296.94 312.866L298.676 311.93L307.306 314.491L307.334 314.476L304.45 308.816L306.186 307.88L315.113 314.24L313.308 315.214L307.875 311.343L307.848 311.358L309.812 315.535L308.654 316.159L302.267 314.368L302.239 314.382L307.672 318.253L305.866 319.227L296.94 312.866ZM315.371 312.185L307.975 306.915L309.849 305.905L316.646 310.748L317.998 310.832L320.699 309.376L320.752 308.533L313.955 303.69L315.829 302.68L323.225 307.95L323.102 309.932L318.554 312.384L315.371 312.185ZM317.623 301.713L319.304 300.806L329.66 302.803L329.688 302.788L323.63 298.473L325.436 297.499L334.363 303.86L332.682 304.766L322.338 302.777L322.31 302.792L328.355 307.1L326.55 308.072L317.623 301.713ZM327.3 296.494L329.174 295.484L338.1 301.843L336.226 302.854L327.3 296.494ZM334.697 294.341L331.816 295.894L330.35 294.849L337.984 290.733L339.451 291.777L336.57 293.33L344.031 298.646L342.157 299.656L334.697 294.341ZM346.901 292.532L338.191 290.621L340.244 289.514L346.205 290.88L346.232 290.865L344.873 287.017L346.927 285.91L348.775 291.522L352.422 294.12L350.548 295.13L346.901 292.532Z" fill="#03030F"/>
</g>
<path d="M389.064 241.103H389.052C388.986 237.449 386.327 233.803 381.048 231.008C376.247 228.464 370.102 227.081 363.827 226.823V226.817C360.677 226.817 357.999 226.333 355.861 225.562L383.112 211.147C385.067 210.116 386.027 208.754 386.004 207.398V197.018C386.023 195.662 385.062 194.305 383.107 193.27L284.97 141.35C281.101 139.298 274.827 139.298 270.959 141.344L241.26 157.055C234.343 160.715 221.563 157.838 221.556 151.548H221.54C221.052 148.228 218.427 144.977 213.625 142.436C202.946 136.792 185.643 136.786 174.981 142.429C169.667 145.237 167.006 148.918 166.992 152.606H166.988V163.13C167 166.824 169.67 170.52 175.002 173.34C179.807 175.882 185.947 177.274 192.225 177.525L192.22 177.54C195.37 177.54 198.052 178.025 200.186 178.787L172.931 193.203C170.982 194.239 170.023 195.595 170.041 196.944V207.34C170.025 208.695 170.985 210.053 172.938 211.081L202.674 226.813C209.601 230.48 222.376 227.61 222.371 221.319H222.383C222.861 217.999 225.484 214.748 230.282 212.212C240.946 206.569 258.243 206.575 268.922 212.225C271.701 213.69 273.739 215.402 275.07 217.222C273.742 219.035 271.713 220.739 268.948 222.197C264.147 224.733 258.007 226.124 251.727 226.376L251.734 226.382C243.68 226.382 238.608 229.476 238.314 232.62H238.303V232.675C238.296 232.756 238.303 232.845 238.303 232.927V243.142C238.191 244.622 239.132 246.102 241.337 247.266L271.074 262.998C274.944 265.05 281.22 265.05 285.084 263.005L314.785 247.294C321.706 243.634 334.487 246.511 334.489 252.801H334.507C334.991 256.121 337.618 259.372 342.423 261.913C353.096 267.565 370.4 267.571 381.063 261.926C386.382 259.111 389.041 255.424 389.052 251.737H389.057V241.103H389.064Z" fill="#03030F"/>
<path d="M361.777 267.435C354.514 267.435 347.248 265.973 341.717 263.044C336.816 260.448 333.776 256.955 333.133 253.181C333.092 253.059 333.069 252.931 333.069 252.797C333.069 250.813 331.34 249.485 329.89 248.717C325.776 246.536 319.313 246.406 315.507 248.424L285.805 264.134C281.479 266.422 274.695 266.417 270.366 264.123L240.63 248.396C237.158 246.559 236.793 244.255 236.885 243.048L236.881 232.92C236.881 232.883 236.881 232.597 236.885 232.559C236.89 232.516 236.895 232.471 236.904 232.429C237.307 228.78 242.453 225.109 251.583 225.067C251.61 225.063 251.64 225.063 251.668 225.061C257.941 224.809 263.824 223.388 268.238 221.056C270.371 219.932 272.07 218.643 273.306 217.216C272.065 215.781 270.357 214.485 268.213 213.354C257.942 207.919 241.251 207.908 230.999 213.339C226.794 215.558 224.24 218.452 223.8 221.48C223.8 221.485 223.8 221.491 223.8 221.495C223.727 223.942 222.101 226.123 219.208 227.652C214.222 230.295 206.644 230.423 201.964 227.936L172.229 212.209C169.881 210.968 168.596 209.233 168.616 207.319V196.938C168.591 195.05 169.869 193.312 172.219 192.065L196.547 179.196C195.191 178.961 193.735 178.841 192.223 178.841C192.131 178.841 192.04 178.836 191.951 178.818C185.304 178.525 179.04 176.983 174.287 174.47C168.671 171.499 165.57 167.471 165.559 163.129V152.602C165.582 148.26 168.673 144.249 174.267 141.29C185.304 135.452 203.279 135.452 214.339 141.296C219.248 143.896 222.287 147.399 222.925 151.179C222.962 151.294 222.982 151.414 222.982 151.544C222.982 153.527 224.717 154.861 226.166 155.626C230.285 157.796 236.736 157.931 240.545 155.916L270.244 140.207C274.575 137.92 281.357 137.924 285.686 140.218L383.826 192.133C386.18 193.379 387.463 195.121 387.438 197.033V207.396C387.468 209.271 386.155 211.056 383.826 212.28L359.497 225.149C360.856 225.384 362.317 225.508 363.831 225.508C363.902 225.508 363.975 225.512 364.044 225.521C370.732 225.817 377.016 227.361 381.767 229.875C387.234 232.769 390.321 236.681 390.482 240.904C390.493 240.968 390.498 241.034 390.498 241.101V251.734C390.479 256.077 387.387 260.094 381.79 263.059C376.274 265.976 369.028 267.435 361.781 267.435H361.777ZM335.923 252.562C335.928 252.583 335.93 252.602 335.934 252.622C336.374 255.653 338.935 258.549 343.146 260.774C353.412 266.21 370.109 266.216 380.358 260.787C385.039 258.308 387.621 255.091 387.633 251.729L387.637 241.263C387.63 241.215 387.625 241.17 387.625 241.12C387.566 237.788 384.973 234.593 380.335 232.136C375.94 229.812 370.057 228.387 363.767 228.127C363.737 228.122 363.707 228.122 363.682 228.121C360.583 228.106 357.78 227.655 355.342 226.775C354.83 226.591 354.479 226.159 354.438 225.657C354.397 225.155 354.671 224.674 355.148 224.423L382.399 210.007C383.8 209.271 384.593 208.326 384.579 207.413V197.012C384.591 196.071 383.817 195.149 382.396 194.395L284.254 142.485C280.844 140.675 275.081 140.667 271.671 142.478L241.972 158.189C237.295 160.657 229.728 160.531 224.739 157.895C221.849 156.369 220.221 154.197 220.129 151.756C220.129 151.746 220.124 151.733 220.124 151.718C219.68 148.688 217.117 145.792 212.91 143.563C202.633 138.138 185.941 138.134 175.694 143.559C171.014 146.029 168.431 149.244 168.419 152.604L168.415 163.124C168.424 166.491 171.019 169.716 175.717 172.199C180.13 174.533 186.017 175.958 192.29 176.21C192.337 176.214 192.388 176.216 192.436 176.223C195.503 176.243 198.285 176.692 200.709 177.56C201.219 177.744 201.572 178.18 201.613 178.68C201.655 179.182 201.38 179.662 200.904 179.915L173.648 194.33C172.253 195.068 171.459 196.013 171.473 196.92V207.331C171.464 208.259 172.258 209.203 173.653 209.938L203.391 225.669C207.212 227.69 213.661 227.56 217.779 225.386C219.225 224.62 220.949 223.294 220.947 221.311C220.947 221.195 220.963 221.079 220.997 220.966C221.617 217.176 224.657 213.669 229.572 211.069C240.612 205.23 258.587 205.235 269.64 211.081C272.523 212.605 274.75 214.421 276.262 216.483C276.582 216.927 276.582 217.504 276.262 217.942C274.756 219.997 272.537 221.806 269.665 223.324C264.901 225.838 258.614 227.377 251.951 227.667C251.882 227.678 251.811 227.682 251.739 227.682C244.619 227.682 239.968 230.299 239.741 232.723C239.741 232.74 239.737 232.756 239.737 232.774V243.134C239.633 244.553 240.942 245.533 242.057 246.123L271.793 261.855C275.203 263.664 280.966 263.672 284.376 261.861L314.077 246.15C318.757 243.682 326.329 243.808 331.317 246.446C334.196 247.965 335.822 250.129 335.92 252.558L335.923 252.562Z" fill="#03030F"/>
<path d="M381.049 231.008C376.249 228.464 370.104 227.081 363.829 226.823V226.818C351.942 226.811 346.497 220.049 353.414 216.389L383.113 200.678C386.982 198.634 386.982 195.314 383.109 193.27L284.969 141.35C281.1 139.298 274.827 139.298 270.959 141.345L241.259 157.055C234.343 160.715 221.563 157.838 221.556 151.548H221.54C221.052 148.228 218.427 144.977 213.625 142.436C202.946 136.792 185.643 136.786 174.981 142.429C164.315 148.073 164.324 157.22 175.004 162.87C179.809 165.412 185.949 166.804 192.228 167.055L192.223 167.07C204.115 167.07 209.559 173.832 202.637 177.492L172.936 193.203C169.072 195.247 169.075 198.567 172.943 200.611L202.679 216.343C209.604 220.009 222.38 217.14 222.376 210.848H222.387C222.866 207.528 225.488 204.278 230.287 201.742C240.951 196.099 258.247 196.105 268.927 201.757C279.605 207.406 279.612 216.555 268.953 222.197C264.152 224.733 258.012 226.124 251.731 226.377L251.738 226.382C239.846 226.382 234.416 233.136 241.342 236.798L271.078 252.53C274.949 254.582 281.225 254.582 285.088 252.536L314.79 236.826C321.711 233.165 334.491 236.043 334.494 242.333H334.512C334.995 245.653 337.622 248.904 342.427 251.445C353.101 257.095 370.404 257.103 381.068 251.458C391.734 245.814 391.723 236.66 381.045 231.01L381.049 231.008Z" fill="url(#paint0_linear_4326_694)"/>
<path d="M361.777 256.967C354.514 256.967 347.248 255.504 341.717 252.576C336.816 249.981 333.776 246.487 333.133 242.715C333.091 242.593 333.068 242.465 333.068 242.328C333.068 240.345 331.34 239.017 329.89 238.249C325.776 236.068 319.313 235.938 315.506 237.955L285.805 253.666C281.479 255.954 274.695 255.949 270.366 253.655L240.63 237.928C237.648 236.349 236.338 234.066 237.038 231.663C238.165 227.808 244.134 225.107 251.58 225.069C251.61 225.065 251.64 225.065 251.667 225.063C257.941 224.811 263.824 223.39 268.238 221.058C272.928 218.578 275.509 215.355 275.509 211.984C275.509 208.613 272.915 205.375 268.208 202.889C257.938 197.453 241.246 197.446 230.996 202.874C226.791 205.092 224.237 207.986 223.798 211.014C223.798 211.019 223.798 211.025 223.798 211.029C223.724 213.476 222.099 215.656 219.206 217.187C214.219 219.825 206.641 219.955 201.961 217.47L172.226 201.743C169.894 200.508 168.61 198.788 168.61 196.898C168.61 195.01 169.889 193.297 172.218 192.064L201.92 176.353C203.194 175.681 204.618 174.561 204.175 173.037C203.513 170.777 199.098 168.373 192.22 168.373C192.129 168.373 192.037 168.368 191.948 168.35C185.301 168.057 179.037 166.514 174.285 164.002C168.655 161.019 165.556 156.984 165.556 152.636C165.556 148.287 168.648 144.262 174.264 141.29C185.301 135.452 203.276 135.452 214.336 141.296C219.245 143.896 222.284 147.4 222.923 151.179C222.959 151.294 222.981 151.414 222.981 151.544C222.981 153.527 224.714 154.861 226.164 155.626C230.282 157.796 236.734 157.931 240.543 155.916L270.244 140.207C274.575 137.92 281.357 137.924 285.686 140.218L383.826 192.133C386.157 193.366 387.444 195.083 387.444 196.972C387.444 198.861 386.162 200.578 383.831 201.812L354.131 217.522C352.86 218.194 351.435 219.315 351.882 220.834C352.539 223.097 356.955 225.504 363.833 225.506C363.906 225.506 363.978 225.51 364.046 225.519C370.734 225.814 377.019 227.359 381.768 229.873V229.869C387.401 232.851 390.498 236.887 390.498 241.238C390.498 245.588 387.408 249.613 381.79 252.587C376.274 255.504 369.027 256.963 361.781 256.963L361.777 256.967ZM335.922 242.093C335.927 242.115 335.93 242.134 335.934 242.154C336.374 245.185 338.934 248.082 343.146 250.305C353.412 255.737 370.109 255.752 380.358 250.318C385.051 247.837 387.636 244.614 387.636 241.24C387.636 237.865 385.044 234.631 380.335 232.14V232.136C375.94 229.812 370.056 228.387 363.767 228.127C363.737 228.122 363.707 228.122 363.682 228.121C356.224 228.079 350.249 225.369 349.12 221.51C348.417 219.107 349.722 216.828 352.702 215.25L382.401 199.539C383.791 198.806 384.588 197.868 384.588 196.97C384.588 196.071 383.789 195.134 382.399 194.402L284.254 142.485C280.844 140.675 275.081 140.667 271.671 142.478L241.972 158.189C237.295 160.657 229.728 160.531 224.739 157.895C221.849 156.369 220.221 154.197 220.129 151.756C220.129 151.746 220.124 151.733 220.124 151.718C219.68 148.688 217.117 145.792 212.909 143.563C202.632 138.138 185.94 138.134 175.694 143.559C171.001 146.04 168.415 149.263 168.415 152.634C168.415 156.004 171.007 159.238 175.717 161.729C180.13 164.063 186.017 165.488 192.29 165.74C192.34 165.744 192.388 165.746 192.436 165.752C199.863 165.803 205.81 168.506 206.934 172.357C207.637 174.76 206.33 177.039 203.35 178.617L173.648 194.328C172.26 195.06 171.467 195.999 171.467 196.895C171.467 197.791 172.265 198.735 173.657 199.467L203.393 215.199C207.213 217.22 213.663 217.095 217.781 214.916C219.226 214.15 220.951 212.823 220.949 210.84C220.949 210.725 220.965 210.609 220.999 210.496C221.62 206.706 224.659 203.199 229.574 200.598C240.614 194.76 258.589 194.764 269.641 200.611C275.272 203.589 278.368 207.629 278.371 211.978C278.371 216.322 275.281 220.351 269.667 223.319C264.9 225.838 258.616 227.377 251.951 227.667C251.882 227.678 251.811 227.682 251.738 227.682C244.864 227.682 240.458 230.081 239.796 232.337C239.352 233.856 240.781 234.981 242.056 235.653L271.792 251.384C275.203 253.193 280.965 253.202 284.376 251.391L314.077 235.68C318.757 233.212 326.329 233.338 331.317 235.976C334.196 237.495 335.822 239.659 335.92 242.088L335.922 242.093Z" fill="#03030F"/>
<path d="M353.414 216.387L383.113 200.676C385.027 199.667 385.985 198.345 386.006 197.017V207.396C386.029 208.752 385.069 210.116 383.113 211.144L355.864 225.56C349.939 223.434 348.329 219.078 353.414 216.387ZM230.287 201.738C225.488 204.274 222.866 207.524 222.387 210.845H222.375C222.379 215.323 215.9 218.055 209.671 217.94V228.41C215.9 228.525 222.379 225.794 222.375 221.315H222.387C222.866 217.995 225.488 214.744 230.287 212.208C235.538 209.427 242.404 208.036 249.296 207.997V197.526C242.404 197.566 235.538 198.957 230.287 201.738ZM322.607 235.218C319.81 235.157 317.002 235.649 314.792 236.82L285.09 252.53C283.141 253.568 280.583 254.071 278.025 254.058V264.528C280.583 264.543 283.141 264.038 285.09 263.003L314.792 247.292C317.002 246.119 319.81 245.628 322.607 245.691V235.221V235.218ZM389.052 241.101C389.119 244.843 386.466 248.6 381.07 251.453C375.751 254.268 368.782 255.672 361.803 255.681V266.151C368.78 266.144 375.751 264.74 381.07 261.924C386.388 259.11 389.048 255.423 389.059 251.735H389.063V241.101H389.052Z" fill="#03030F" fill-opacity="0.05"/>
<path d="M361.807 267.46C361.427 267.46 361.067 267.323 360.799 267.078C360.531 266.833 360.38 266.499 360.38 266.15V255.68C360.38 254.958 361.019 254.37 361.809 254.37C368.85 254.365 375.441 252.924 380.361 250.318C385.111 247.806 387.693 244.543 387.628 241.119C387.622 240.769 387.77 240.432 388.038 240.182C388.307 239.93 388.675 239.789 389.058 239.789H389.069C389.857 239.789 390.498 240.374 390.498 241.098V251.732C390.48 256.075 387.388 260.092 381.79 263.057C376.442 265.886 369.344 267.449 361.809 267.456L361.807 267.46ZM363.236 256.971V264.822C369.738 264.636 375.773 263.22 380.359 260.791C385.04 258.312 387.622 255.095 387.633 251.732V248.171C386.195 249.804 384.229 251.296 381.785 252.591C376.776 255.241 370.233 256.78 363.234 256.971H363.236ZM278.129 265.838C277.26 265.833 276.596 265.279 276.599 264.529V254.058C276.599 253.709 276.751 253.375 277.019 253.13C277.288 252.885 277.661 252.854 278.035 252.748C280.561 252.676 282.716 252.28 284.379 251.399L314.082 235.684C317.02 234.127 320.39 233.877 322.643 233.909C323.42 233.925 324.038 234.509 324.038 235.218V245.689C324.038 246.039 323.883 246.377 323.608 246.626C323.333 246.872 322.953 247.029 322.577 246.998C319.817 246.927 317.356 247.445 315.512 248.423L285.81 264.138C283.744 265.236 281.018 265.838 278.133 265.838H278.129ZM279.454 255.324V263.169C281.332 263.026 283.044 262.579 284.377 261.87L314.08 246.154C316.44 244.903 319.057 244.484 321.18 244.392V236.546C319.011 236.656 317.032 237.143 315.509 237.951L285.807 253.666C284.06 254.593 281.843 255.168 279.454 255.322V255.324ZM210.065 229.722C209.926 229.722 209.784 229.722 209.644 229.717C208.868 229.702 208.245 229.122 208.245 228.408V217.938C208.245 217.588 208.398 217.249 208.673 217.004C208.945 216.754 209.225 216.659 209.704 216.628C213.586 216.71 217.456 215.572 219.486 213.748C220.459 212.875 220.952 211.898 220.952 210.842C220.952 210.726 220.967 210.611 221.002 210.497C221.623 206.707 224.662 203.201 229.577 200.605C234.835 197.817 241.837 196.26 249.291 196.214C249.728 196.056 250.034 196.347 250.305 196.596C250.575 196.842 250.726 197.176 250.726 197.524V207.994C250.726 208.714 250.092 209.3 249.306 209.304C242.339 209.343 235.841 210.779 231.002 213.339C226.797 215.562 224.243 218.454 223.803 221.485V221.499C223.748 223.189 222.951 224.775 221.483 226.093C218.975 228.345 214.628 229.722 210.065 229.722ZM211.101 219.229V227.078C214.508 226.892 217.699 225.826 219.483 224.221C220.457 223.348 220.949 222.37 220.949 221.314C220.949 221.199 220.965 221.084 220.999 220.97C221.62 217.18 224.66 213.673 229.575 211.073C234.499 208.466 240.951 206.937 247.87 206.714V198.863C241.451 199.081 235.506 200.489 231.004 202.871V202.875C226.798 205.094 224.245 207.988 223.805 211.017V211.031C223.75 212.72 222.953 214.307 221.486 215.625C219.167 217.706 215.281 219.04 211.103 219.231L211.101 219.229ZM355.868 226.869C355.693 226.869 355.515 226.838 355.348 226.782C351.555 225.417 349.166 223.115 348.963 220.614C348.861 219.407 349.214 217.1 352.705 215.256V215.251L382.404 199.541C383.794 198.809 384.568 197.904 384.585 196.995C384.596 196.275 385.305 195.713 386.023 195.706C386.808 195.713 387.44 196.296 387.44 197.016V207.396C387.47 209.27 386.158 211.056 383.829 212.28L356.584 226.695C356.364 226.811 356.119 226.869 355.87 226.869H355.868ZM354.132 217.517C353.218 218.004 351.695 219.027 351.811 220.418C351.923 221.755 353.419 223.134 355.77 224.101L382.404 210.009C383.806 209.272 384.598 208.328 384.585 207.415V201.373C384.346 201.522 384.097 201.669 383.829 201.81L354.134 217.52V217.516L354.132 217.517Z" fill="#03030F"/>
<g filter="url(#filter2_d_4326_694)">
<path d="M275.509 153.732L284.223 158.739L282.209 159.911L275.885 156.277L272.487 158.253L277.967 161.403L275.954 162.574L270.473 159.424L265.639 162.236L263.25 160.863L275.509 153.732ZM275.474 165.458L285.631 159.549L288.02 160.922L278.686 166.351L278.688 167.386L282.131 169.364L283.92 169.36L293.255 163.93L295.644 165.304L285.486 171.212L281.276 171.223L275.479 167.891L275.474 165.458ZM297.931 166.618L300.074 167.849L297.236 175.837L297.271 175.858L305.59 171.019L307.892 172.342L295.632 179.473L293.489 178.241L296.31 170.262L296.275 170.243L287.973 175.071L285.671 173.748L297.931 166.618ZM310.179 173.657L318.05 178.179L318.056 180.613L310 185.3L305.79 185.311L297.92 180.788L310.179 173.657ZM306.644 183.452L308.434 183.448L314.844 179.719L314.841 178.685L310.538 176.212L302.34 180.979L306.644 183.452ZM322.362 180.658L324.751 182.03L312.491 189.162L310.102 187.788L322.362 180.658ZM327.129 183.398L329.272 184.629L326.434 192.618L326.469 192.638L334.788 187.799L337.089 189.121L324.829 196.252L322.686 195.02L325.507 187.042L325.472 187.022L317.17 191.851L314.869 190.528L327.129 183.398ZM328.956 196.294L337.187 191.507L341.222 191.496L347.335 195.01L347.341 197.301L345.467 198.392L343.078 197.018L344.076 196.438L344.073 195.485L340.455 193.405L338.666 193.41L332.256 197.138L332.258 198.173L335.912 200.273L337.631 200.268L339.54 199.157L336.905 197.643L338.937 196.461L343.891 199.308L339.074 202.109L335.04 202.121L328.963 198.627L328.956 196.294Z" fill="#03030F"/>
</g>
</g>
<defs>
<filter id="filter0_d_4326_694" x="57.4667" y="260.928" width="88.1987" height="55.2124" filterUnits="userSpaceOnUse" color-interpolation-filters="sRGB">
<feFlood flood-opacity="0" result="BackgroundImageFix"/>
<feColorMatrix in="SourceAlpha" type="matrix" values="0 0 0 0 0 0 0 0 0 0 0 0 0 0 0 0 0 0 127 0" result="hardAlpha"/>
<feOffset dy="4"/>
<feComposite in2="hardAlpha" operator="out"/>
<feColorMatrix type="matrix" values="0 0 0 0 0 0 0 0 0 0 0 0 0 0 0 0 0 0 0.06 0"/>
<feBlend mode="normal" in2="BackgroundImageFix" result="effect1_dropShadow_4326_694"/>
<feBlend mode="normal" in="SourceGraphic" in2="effect1_dropShadow_4326_694" result="shape"/>
</filter>
<filter id="filter1_d_4326_694" x="268.556" y="285.91" width="83.8662" height="52.5591" filterUnits="userSpaceOnUse" color-interpolation-filters="sRGB">
<feFlood flood-opacity="0" result="BackgroundImageFix"/>
<feColorMatrix in="SourceAlpha" type="matrix" values="0 0 0 0 0 0 0 0 0 0 0 0 0 0 0 0 0 0 127 0" result="hardAlpha"/>
<feOffset dy="4"/>
<feComposite in2="hardAlpha" operator="out"/>
<feColorMatrix type="matrix" values="0 0 0 0 0 0 0 0 0 0 0 0 0 0 0 0 0 0 0.06 0"/>
<feBlend mode="normal" in2="BackgroundImageFix" result="effect1_dropShadow_4326_694"/>
<feBlend mode="normal" in="SourceGraphic" in2="effect1_dropShadow_4326_694" result="shape"/>
</filter>
<filter id="filter2_d_4326_694" x="263.25" y="153.732" width="84.0908" height="52.3887" filterUnits="userSpaceOnUse" color-interpolation-filters="sRGB">
<feFlood flood-opacity="0" result="BackgroundImageFix"/>
<feColorMatrix in="SourceAlpha" type="matrix" values="0 0 0 0 0 0 0 0 0 0 0 0 0 0 0 0 0 0 127 0" result="hardAlpha"/>
<feOffset dy="4"/>
<feComposite in2="hardAlpha" operator="out"/>
<feColorMatrix type="matrix" values="0 0 0 0 0 0 0 0 0 0 0 0 0 0 0 0 0 0 0.06 0"/>
<feBlend mode="normal" in2="BackgroundImageFix" result="effect1_dropShadow_4326_694"/>
<feBlend mode="normal" in="SourceGraphic" in2="effect1_dropShadow_4326_694" result="shape"/>
</filter>
<linearGradient id="paint0_linear_4326_694" x1="278.024" y1="138.2" x2="278.024" y2="255.687" gradientUnits="userSpaceOnUse">
<stop stop-color="#85D8EB"/>
<stop offset="0.838542" stop-color="#1177E8"/>
</linearGradient>
<clipPath id="clip0_4326_694">
<rect width="487" height="520" fill="white"/>
</clipPath>
</defs>
</svg>
