<svg width="357" height="263" viewBox="0 0 357 263" fill="none" xmlns="http://www.w3.org/2000/svg">
<path d="M243.69 258.209C241.613 258.209 239.531 257.741 237.913 256.806C236.163 255.805 235.198 254.402 235.198 252.856C235.198 251.311 236.161 249.913 237.909 248.909C241.145 247.057 246.212 247.057 249.449 248.909C251.201 249.92 252.164 251.324 252.164 252.868C252.164 254.409 251.201 255.809 249.454 256.815C247.837 257.741 245.764 258.207 243.69 258.207V258.209ZM243.677 249.717C241.974 249.717 240.274 250.082 239.01 250.81C237.987 251.395 237.398 252.143 237.398 252.856C237.398 253.569 237.987 254.32 239.014 254.908C241.549 256.369 245.824 256.371 248.353 254.913C249.374 254.329 249.961 253.58 249.961 252.868C249.961 252.15 249.374 251.401 248.346 250.806C247.08 250.082 245.378 249.715 243.677 249.715V249.717Z" fill="#03030F"/>
<path d="M63.1378 199.895C62.5302 199.895 62.0368 199.404 62.0368 198.798L62.0276 186.939C62.0276 186.333 62.5192 185.842 63.1268 185.842C63.7344 185.842 64.2278 186.333 64.2278 186.937L64.238 198.8C64.238 199.405 63.7454 199.897 63.1378 199.897V199.895Z" fill="#03030F"/>
<path d="M73.4542 193.969L52.8133 193.963C52.2057 193.963 51.7122 193.472 51.7122 192.867C51.7122 192.262 52.2057 191.771 52.8133 191.771L73.4542 191.776C74.0618 191.776 74.5552 192.267 74.5552 192.872C74.5552 193.477 74.0618 193.969 73.4542 193.969Z" fill="#03030F"/>
<path d="M118.741 45.0104C117.835 45.0104 116.854 44.7219 115.856 44.1502C112.618 42.2869 110.084 37.9139 110.086 34.1974C110.086 32.1902 110.821 30.657 112.162 29.8862C113.502 29.1136 115.209 29.2417 116.959 30.2522C120.198 32.1183 122.731 36.4894 122.731 40.2032C122.731 42.2104 121.993 43.739 120.654 44.5117C120.075 44.8445 119.429 45.0086 118.741 45.0086V45.0104ZM114.072 31.5872C113.767 31.5872 113.493 31.6509 113.265 31.7846C112.642 32.1423 112.287 33.0228 112.289 34.1974C112.285 37.1053 114.424 40.7933 116.957 42.2509C117.982 42.8392 118.925 42.9719 119.554 42.6142C120.175 42.2565 120.532 41.3778 120.532 40.2032C120.532 37.2971 118.393 33.6092 115.858 32.1515C115.211 31.7772 114.596 31.5872 114.072 31.5872Z" fill="#03030F"/>
<path d="M327.921 109.962C327.893 109.962 327.869 109.962 327.84 109.958C327.39 109.924 327.003 109.621 326.87 109.191C326.244 107.191 325.236 104.966 323.952 102.758C322.677 100.551 321.244 98.5696 319.812 97.0244C319.505 96.6934 319.432 96.2093 319.63 95.8055C319.828 95.3989 320.266 95.1666 320.704 95.1887C321.962 95.2855 323.224 94.9914 324.359 94.3396C325.494 93.6905 326.382 92.75 326.926 91.6215C327.12 91.2159 327.513 90.9706 327.998 91.002C328.448 91.0351 328.835 91.3403 328.968 91.769C329.594 93.7744 330.602 95.9991 331.883 98.2008C333.162 100.411 334.596 102.392 336.028 103.929C336.337 104.259 336.41 104.745 336.213 105.149C336.017 105.555 335.589 105.804 335.14 105.767C333.89 105.677 332.618 105.972 331.479 106.621C330.346 107.271 329.458 108.21 328.912 109.337C328.727 109.719 328.34 109.958 327.921 109.958V109.962ZM322.867 97.2254C323.912 98.5493 324.926 100.051 325.858 101.664C326.795 103.275 327.597 104.901 328.224 106.46C328.835 105.779 329.561 105.193 330.381 104.725C331.2 104.254 332.074 103.922 332.971 103.737C331.926 102.416 330.909 100.911 329.976 99.2998C329.039 97.691 328.239 96.0637 327.613 94.5055C327.003 95.1869 326.275 95.7714 325.455 96.2407C324.636 96.71 323.765 97.041 322.867 97.2272V97.2254Z" fill="#03030F"/>
<path d="M163.758 233.583L135.159 217.144L106.629 233.541V245.231L135.227 261.67L163.758 245.271V233.583Z" fill="white"/>
<path d="M135.225 262.766C135.034 262.766 134.846 262.717 134.675 262.62L106.079 246.182C105.739 245.985 105.53 245.624 105.53 245.233V233.543C105.53 233.152 105.739 232.789 106.079 232.593L134.61 216.196C134.951 216.002 135.369 216.002 135.711 216.196L164.308 232.635C164.647 232.832 164.857 233.193 164.857 233.584V245.273C164.857 245.664 164.647 246.028 164.308 246.223L135.776 262.62C135.607 262.717 135.417 262.766 135.227 262.766H135.225ZM107.728 244.598L135.225 260.406L162.656 244.637V234.215L135.16 218.408L107.728 234.176V244.598Z" fill="#03030F"/>
<path d="M163.758 233.583L135.159 217.144L106.629 233.541L135.227 249.98L163.758 233.583Z" fill="white"/>
<path d="M135.225 251.076C135.034 251.076 134.846 251.028 134.675 250.932L106.079 234.493C105.739 234.295 105.53 233.934 105.53 233.543C105.53 233.152 105.739 232.789 106.079 232.593L134.61 216.196C134.951 216.002 135.369 216.002 135.711 216.196L164.308 232.635C164.647 232.832 164.857 233.193 164.857 233.584C164.857 233.975 164.647 234.338 164.308 234.533L135.776 250.932C135.607 251.028 135.417 251.076 135.227 251.076H135.225ZM108.829 233.541L135.225 248.716L161.555 233.583L135.16 218.408L108.829 233.541Z" fill="#03030F"/>
<path d="M135.227 249.98V261.67L163.757 245.271V233.583L135.227 249.98Z" fill="#03030F"/>
<path d="M135.225 262.766C135.034 262.766 134.846 262.717 134.675 262.62C134.335 262.423 134.126 262.063 134.126 261.672V249.982C134.126 249.591 134.335 249.228 134.675 249.032L163.206 232.635C163.546 232.441 163.965 232.441 164.308 232.635C164.647 232.832 164.857 233.193 164.857 233.584V245.273C164.857 245.664 164.647 246.027 164.308 246.223L135.776 262.62C135.606 262.717 135.417 262.766 135.227 262.766H135.225ZM136.326 250.614V259.772L162.656 244.639V235.481L136.326 250.614Z" fill="#03030F"/>
<path d="M189.566 75.5707C171.642 65.2731 142.607 65.2565 124.708 75.5495C115.744 80.7016 111.275 87.4533 111.29 94.2059H111.286V110.742H111.29C111.299 117.488 115.787 124.229 124.741 129.375C142.659 139.682 171.696 139.693 189.605 129.397C198.563 124.246 203.03 117.494 203.017 110.742V94.2059C203 87.4644 198.52 80.7182 189.566 75.5707ZM143.23 102.462C151 98.1456 163.311 98.1511 171.082 102.484C163.311 106.804 150.997 106.798 143.23 102.462Z" fill="white"/>
<path d="M157.206 138.179C145.25 138.179 133.293 135.562 124.191 130.325C115.171 125.142 110.2 118.187 110.189 110.744L110.185 94.2059C110.172 86.7479 115.134 79.7869 124.156 74.6008C142.321 64.1547 171.91 64.162 190.116 74.621C199.126 79.7998 204.1 86.7553 204.118 94.2022V110.742C204.133 118.196 199.175 125.161 190.156 130.347C181.074 135.569 169.141 138.177 157.208 138.177L157.206 138.179ZM157.098 68.9333C145.56 68.9333 134.032 71.454 125.257 76.501C116.946 81.2778 112.376 87.5648 112.389 94.2059L112.386 110.745C112.397 117.373 116.979 123.654 125.289 128.429C142.876 138.544 171.478 138.555 189.052 128.452C197.359 123.674 201.927 117.386 201.912 110.747V94.228C201.895 87.5768 197.312 81.2953 189.01 76.5213C180.206 71.4651 168.646 68.9352 157.094 68.9352L157.098 68.9333ZM157.176 106.819C151.963 106.819 146.75 105.686 142.689 103.419C142.341 103.226 142.128 102.859 142.128 102.462C142.128 102.066 142.345 101.701 142.693 101.505C150.804 96.9967 163.51 97.0041 171.618 101.528C171.966 101.722 172.181 102.086 172.181 102.485C172.181 102.884 171.964 103.248 171.616 103.441C167.567 105.695 162.37 106.819 157.176 106.819ZM145.737 102.466C152.462 105.308 161.841 105.317 168.572 102.481C161.845 99.64 152.464 99.6364 145.737 102.466Z" fill="#03030F"/>
<path d="M189.566 75.5707C171.642 65.2731 142.607 65.2565 124.708 75.5495C106.798 85.8454 106.82 102.539 124.741 112.836C142.659 123.142 171.696 123.15 189.605 112.859C207.508 102.565 207.482 85.8749 189.566 75.5689V75.5707ZM142.986 102.351C135.15 97.8478 135.141 90.5475 142.972 86.05C150.798 81.5461 163.494 81.5517 171.328 86.0611C179.159 90.5586 179.17 97.8588 171.343 102.362C163.512 106.86 150.817 106.855 142.986 102.351Z" fill="white"/>
<path d="M157.204 121.639C145.25 121.639 133.293 119.022 124.191 113.785C115.16 108.597 110.187 101.634 110.185 94.1781C110.185 86.7312 115.147 79.7794 124.156 74.6025C142.321 64.1564 171.91 64.1637 190.116 74.6228C199.146 79.8163 204.118 86.7828 204.118 94.2408C204.118 101.684 199.158 108.634 190.155 113.812C181.07 119.031 169.137 121.641 157.202 121.641L157.204 121.639ZM157.098 68.9313C145.56 68.9313 134.032 71.452 125.258 76.499C116.955 81.2684 112.386 87.5481 112.386 94.1781C112.386 100.816 116.97 107.107 125.291 111.888C142.874 121.999 171.477 122.008 189.054 111.911C197.348 107.141 201.914 100.865 201.915 94.2389C201.915 87.5988 197.334 81.3062 189.012 76.5193C180.207 71.4631 168.647 68.9332 157.096 68.9332L157.098 68.9313ZM157.178 106.806C151.84 106.806 146.5 105.637 142.435 103.3C138.286 100.915 136.001 97.6816 136.003 94.191C136.003 90.7059 138.282 87.478 142.419 85.1002C150.54 80.4294 163.754 80.4368 171.876 85.1113C176.021 87.4928 178.305 90.7243 178.305 94.2131C178.305 97.7001 176.029 100.93 171.889 103.309C167.834 105.64 162.503 106.804 157.174 106.804L157.178 106.806ZM157.132 83.7596C152.201 83.7596 147.272 84.8374 143.521 86.9976C140.092 88.967 138.204 91.5209 138.204 94.191C138.204 96.8638 140.096 99.4242 143.534 101.401C151.051 105.726 163.278 105.73 170.79 101.412C174.217 99.4408 176.105 96.8832 176.103 94.2131C176.103 91.5403 174.21 88.9818 170.775 87.0087C167.012 84.843 162.069 83.7596 157.129 83.7596H157.132Z" fill="#03030F"/>
<path d="M203.017 94.226V110.742C203.032 117.494 198.563 124.246 189.605 129.397C185.46 131.78 180.677 133.547 175.617 134.828V118.289C180.677 117.008 185.46 115.243 189.605 112.858C198.554 107.71 203.023 100.969 203.017 94.2242V94.226ZM157.154 82.6763C152.02 82.6726 146.889 83.7965 142.972 86.0498C135.141 90.5473 135.148 97.8476 142.987 102.351C143.061 102.39 143.153 102.42 143.228 102.462H143.23C147.116 100.301 152.134 99.2287 157.154 99.2287V82.6763Z" fill="#03030F"/>
<path d="M175.617 135.927C175.374 135.927 175.137 135.847 174.943 135.696C174.673 135.489 174.516 135.169 174.516 134.832V118.293C174.516 117.792 174.857 117.354 175.347 117.232C180.644 115.889 185.254 114.1 189.054 111.913C197.343 107.143 201.91 100.873 201.914 94.2502V94.2281C201.914 93.6233 202.408 93.1319 203.015 93.1319C203.623 93.1319 204.117 93.6214 204.117 94.2263V110.744C204.131 118.198 199.173 125.163 190.155 130.349C186.172 132.639 181.373 134.504 175.889 135.894C175.799 135.916 175.708 135.927 175.617 135.927ZM176.718 119.14V133.406C181.437 132.112 185.581 130.447 189.055 128.45C197.363 123.673 201.931 117.384 201.915 110.745V102.632C199.642 106.824 195.652 110.647 190.155 113.809C186.384 115.982 181.866 117.773 176.717 119.14H176.718ZM143.23 103.561C143.046 103.561 142.861 103.514 142.695 103.423C142.685 103.419 142.446 103.31 142.435 103.304C138.286 100.919 136.001 97.6855 136.001 94.1949C136.001 90.7098 138.28 87.4819 142.419 85.1041C146.369 82.8351 151.595 81.584 157.133 81.584C157.841 81.6411 158.255 82.0699 158.253 82.6802V99.2326C158.253 99.8375 157.759 100.329 157.152 100.329C152.109 100.329 147.354 101.428 143.763 103.425C143.596 103.518 143.411 103.563 143.226 103.563L143.23 103.561ZM156.055 83.7912C151.305 83.9406 146.889 85.0654 143.523 87.0016C140.094 88.9709 138.206 91.5248 138.206 94.1931C138.206 96.7866 139.985 99.2714 143.226 101.22C146.795 99.37 151.292 98.2959 156.056 98.153V83.7912H156.055Z" fill="#03030F"/>
<path d="M284.864 124.843L260.888 111.062L92.4352 147.262V163.8L116.41 177.582L284.864 141.383V124.843Z" fill="white"/>
<path d="M116.41 178.679C116.217 178.679 116.028 178.629 115.86 178.532L91.8856 164.75C91.5459 164.554 91.336 164.191 91.336 163.8V147.261C91.336 146.745 91.6969 146.298 92.206 146.188L260.658 109.989C260.931 109.937 261.204 109.977 261.442 110.112L285.418 123.895C285.758 124.09 285.968 124.453 285.968 124.844V141.383C285.968 141.899 285.607 142.346 285.099 142.455L116.645 178.654C116.569 178.669 116.49 178.679 116.413 178.679H116.41ZM93.5372 163.169L116.593 176.422L283.763 140.499V125.477L260.705 112.223L93.5353 148.147V163.169H93.5372Z" fill="#03030F"/>
<path d="M116.41 161.042L92.4352 147.262L260.888 111.062L284.865 124.843L116.41 161.042Z" fill="url(#paint0_linear_4326_910)"/>
<path d="M116.41 162.14C116.217 162.14 116.028 162.089 115.86 161.992L91.8856 148.21C91.4915 147.983 91.278 147.54 91.3488 147.091C91.4207 146.643 91.7604 146.285 92.2059 146.19L260.658 109.991C260.931 109.94 261.204 109.978 261.442 110.114L285.418 123.897C285.812 124.123 286.025 124.567 285.955 125.015C285.883 125.464 285.543 125.822 285.098 125.917L116.643 162.116C116.567 162.13 116.488 162.14 116.411 162.14H116.41ZM95.4593 147.734L116.593 159.883L281.842 124.371L260.707 112.222L95.4593 147.734Z" fill="#03030F"/>
<path d="M116.41 161.043V177.582L284.865 141.383V124.844L116.41 161.043Z" fill="#03030F"/>
<path d="M116.41 178.679C116.161 178.679 115.916 178.595 115.72 178.437C115.459 178.228 115.31 177.914 115.31 177.584V161.044C115.31 160.529 115.671 160.082 116.178 159.972L284.633 123.773C284.958 123.708 285.298 123.783 285.556 123.992C285.816 124.2 285.966 124.514 285.966 124.843V141.383C285.966 141.899 285.605 142.345 285.098 142.455L116.643 178.654C116.567 178.669 116.488 178.679 116.411 178.679H116.41ZM117.511 161.929V176.225L283.764 140.497V126.202L117.511 161.929Z" fill="#03030F"/>
<path d="M252.558 159.265C234.638 148.968 205.602 148.951 187.699 159.245C178.736 164.396 174.268 171.148 174.282 177.898H174.279V194.438H174.282C174.294 201.185 178.779 207.926 187.733 213.072C205.653 223.376 234.693 223.389 252.597 213.092C261.556 207.941 266.024 201.19 266.009 194.438V177.898C265.994 171.161 261.513 164.414 252.558 159.265ZM206.224 186.157C213.991 181.838 226.305 181.845 234.072 186.178C226.305 190.499 213.991 190.493 206.224 186.157Z" fill="white"/>
<path d="M220.197 221.876C208.245 221.876 196.288 219.257 187.182 214.022C178.166 208.838 173.193 201.883 173.18 194.44L173.176 177.898C173.162 170.444 178.125 163.482 187.146 158.297C205.317 147.851 234.904 147.858 253.107 158.317C262.118 163.5 267.092 170.454 267.109 177.896V194.438C267.124 201.89 262.165 208.853 253.147 214.042C244.066 219.264 232.133 221.876 220.197 221.876ZM220.09 152.627C208.553 152.627 197.024 155.148 188.248 160.196C179.937 164.973 175.367 171.26 175.38 177.896L175.376 194.438C175.391 201.068 179.972 207.349 188.279 212.12C205.867 222.237 234.472 222.246 252.042 212.141C260.35 207.364 264.917 201.079 264.902 194.441V177.923C264.888 171.271 260.307 164.991 252.001 160.216C243.198 155.16 231.637 152.629 220.084 152.629L220.09 152.627ZM220.17 190.514C214.958 190.514 209.746 189.38 205.683 187.114C205.337 186.921 205.123 186.554 205.123 186.157C205.123 185.761 205.339 185.396 205.687 185.2C213.796 180.693 226.501 180.7 234.609 185.222C234.956 185.416 235.171 185.781 235.171 186.18C235.171 186.578 234.954 186.943 234.609 187.137C230.559 189.389 225.364 190.516 220.17 190.516V190.514ZM208.731 186.159C215.455 189.004 224.836 189.009 231.564 186.176C224.839 183.337 215.46 183.331 208.731 186.159Z" fill="#03030F"/>
<path d="M252.559 159.265C234.638 148.968 205.603 148.951 187.7 159.245C169.79 169.538 169.814 186.234 187.733 196.531C205.653 206.833 234.693 206.844 252.597 196.553C270.5 186.258 270.478 169.569 252.559 159.263V159.265ZM205.979 186.046C198.145 181.542 198.137 174.243 205.964 169.744C213.795 165.241 226.486 165.247 234.321 169.753C242.153 174.254 242.166 181.555 234.335 186.055C226.507 190.556 213.81 190.549 205.979 186.046Z" fill="white"/>
<path d="M220.2 205.335C208.245 205.335 196.288 202.717 187.184 197.484C178.153 192.293 173.18 185.329 173.18 177.872C173.18 170.416 178.142 163.474 187.15 158.297C205.321 147.851 234.908 147.858 253.11 158.317C262.14 163.51 267.114 170.478 267.114 177.934C267.114 185.377 262.154 192.326 253.149 197.506C244.068 202.723 232.135 205.335 220.2 205.335ZM220.092 152.627C208.556 152.627 197.026 155.148 188.25 160.196C179.95 164.966 175.38 171.243 175.38 177.872C175.38 184.502 179.963 190.802 188.283 195.583C205.872 205.694 234.476 205.703 252.046 195.605C260.341 190.836 264.908 184.56 264.91 177.934C264.91 171.293 260.327 165.001 252.006 160.216C243.204 155.16 231.644 152.629 220.09 152.629L220.092 152.627ZM220.168 190.503C214.832 190.503 209.492 189.335 205.427 186.996C201.28 184.612 198.997 181.378 198.997 177.887C198.997 174.397 201.276 171.174 205.414 168.796C213.531 164.126 226.746 164.131 234.87 168.807C239.018 171.189 241.302 174.423 241.302 177.914C241.302 181.405 239.023 184.627 234.885 187.007C230.83 189.339 225.499 190.505 220.17 190.505L220.168 190.503ZM220.13 167.457C215.197 167.457 210.268 168.535 206.514 170.694C203.086 172.663 201.198 175.218 201.198 177.887C201.198 180.557 203.092 183.12 206.528 185.098C214.043 189.42 226.271 189.422 233.784 185.107C237.211 183.138 239.101 180.581 239.101 177.912C239.101 175.242 237.209 172.679 233.771 170.703C230.01 168.54 225.069 167.457 220.131 167.457H220.13Z" fill="#03030F"/>
<path d="M266.01 177.921V194.436C266.024 201.188 261.556 207.937 252.597 213.09C248.452 215.477 243.671 217.242 238.61 218.524V201.985C243.671 200.704 248.452 198.938 252.597 196.554C261.547 191.407 266.015 184.665 266.01 177.921ZM220.146 166.37C215.012 166.365 209.881 167.492 205.964 169.744C198.135 174.242 198.145 181.542 205.979 186.046C206.053 186.086 206.146 186.114 206.222 186.157H206.224C210.107 183.995 215.126 182.919 220.146 182.919V166.369V166.37Z" fill="#03030F"/>
<path d="M238.61 219.621C238.367 219.621 238.129 219.542 237.935 219.39C237.665 219.182 237.509 218.866 237.509 218.525V201.985C237.509 201.483 237.848 201.047 238.339 200.924C243.624 199.585 248.237 197.796 252.046 195.605C260.334 190.835 264.902 184.567 264.906 177.945V177.923C264.906 177.317 265.399 176.826 266.008 176.826C266.616 176.826 267.109 177.315 267.109 177.921V194.438C267.124 201.89 262.165 208.853 253.147 214.042C249.166 216.333 244.364 218.201 238.881 219.588C238.791 219.61 238.7 219.621 238.61 219.621ZM239.711 202.834V217.1C244.429 215.808 248.572 214.141 252.048 212.143C260.355 207.362 264.923 201.079 264.908 194.44V186.326C262.635 190.519 258.644 194.341 253.147 197.502C249.364 199.68 244.848 201.47 239.709 202.834H239.711ZM206.224 187.254C206.044 187.254 205.867 187.211 205.704 187.124C205.694 187.118 205.437 187 205.428 186.994C201.28 184.61 198.997 181.376 198.997 177.885C198.997 174.395 201.276 171.172 205.414 168.794C209.365 166.524 214.581 165.274 220.107 165.274C220.739 165.263 221.247 165.751 221.247 166.371V182.921C221.247 183.527 220.754 184.018 220.146 184.018C215.105 184.018 210.352 185.118 206.762 187.114C206.594 187.207 206.409 187.254 206.226 187.254H206.224ZM219.044 167.483C214.299 167.629 209.885 168.756 206.514 170.694C203.086 172.663 201.197 175.218 201.197 177.885C201.197 180.554 202.976 182.965 206.216 184.915C209.786 183.061 214.282 181.985 219.044 181.843V167.484V167.483Z" fill="#03030F"/>
<path d="M270.941 27.6431L226.584 2.13913C224.493 0.940553 222.609 0.815159 221.216 1.55644L221.204 1.53983L216.026 4.51877C214.624 5.31721 213.759 7.03579 213.759 9.48366L213.763 36.7035C213.763 41.6075 217.225 47.5718 221.498 50.0261L234.009 57.2176L243.677 75.272L248.76 72.3493L253.908 68.6613L265.858 75.5218C267.945 76.7269 269.831 76.8513 271.224 76.11L271.233 76.1266L271.325 76.075C271.325 76.075 271.329 76.0695 271.331 76.0695L276.407 73.1523C277.811 72.3474 278.681 70.6298 278.681 68.1754V40.9649C278.677 36.0673 275.212 30.0965 270.941 27.6431Z" fill="white"/>
<path d="M269.302 77.6719C268.047 77.6719 266.69 77.2717 265.31 76.4733L253.977 69.9687L249.406 73.2408L244.228 76.2234C243.969 76.3691 243.658 76.4078 243.376 76.3276C243.089 76.2465 242.846 76.0528 242.706 75.7901L233.187 58.0124L220.948 50.9776C216.302 48.3094 212.662 42.0389 212.662 36.7053L212.658 9.48546C212.658 6.70752 213.66 4.60632 215.477 3.56908L220.651 0.590145C220.733 0.544045 220.819 0.508083 220.905 0.484111C222.672 -0.348442 224.874 -0.104116 227.13 1.18943L271.489 26.6934C276.135 29.3626 279.776 35.6293 279.778 40.9648V68.1791C279.778 70.957 278.774 73.0628 276.953 74.1065L271.929 76.9923C271.908 77.0071 271.884 77.0209 271.862 77.0338C271.797 77.0707 271.723 77.1021 271.65 77.127C270.93 77.4911 270.138 77.6719 269.296 77.6719H269.302ZM253.912 67.5687C254.101 67.5687 254.291 67.6167 254.462 67.7153L266.411 74.5758C268.072 75.5328 269.595 75.7338 270.708 75.1474C270.756 75.1216 270.807 75.0995 270.858 75.0801L275.857 72.2082C276.968 71.5711 277.579 70.1392 277.579 68.1791V40.9648C277.575 36.4185 274.352 30.8672 270.39 28.5918L226.033 3.08873C224.37 2.1354 222.84 1.93072 221.735 2.52448C221.683 2.55214 221.628 2.57703 221.572 2.59547L216.579 5.47021C215.469 6.1027 214.862 7.52716 214.862 9.4873L214.866 36.7071C214.866 41.2534 218.089 46.8047 222.051 49.0802L234.562 56.2716C234.74 56.374 234.885 56.5252 234.983 56.7059L244.114 73.7589L248.213 71.4042L253.269 67.7771C253.459 67.6397 253.684 67.5706 253.91 67.5706L253.912 67.5687Z" fill="#03030F"/>
<path d="M234.515 58.1618L243.679 75.2739L248.763 72.3512L253.91 68.6632L265.86 75.5237C267.947 76.7287 269.833 76.8532 271.226 76.1119L271.235 76.1285L271.327 76.0769C271.327 76.0769 271.331 76.0714 271.333 76.0714L276.409 73.1542C277.813 72.3493 278.683 70.6317 278.683 68.1773V40.9649C278.679 38.6941 277.914 36.1992 276.688 33.9219L234.515 58.1636V58.1618Z" fill="#03030F"/>
<path d="M269.302 77.6718C268.047 77.6718 266.69 77.2716 265.31 76.4732L253.977 69.9686L249.406 73.2407L244.228 76.2233C243.969 76.369 243.658 76.4077 243.376 76.3275C243.089 76.2464 242.846 76.0528 242.706 75.79L233.543 58.677C233.264 58.1561 233.45 57.5079 233.963 57.2138L276.136 32.973C276.394 32.8218 276.699 32.7886 276.987 32.866C277.272 32.9481 277.516 33.1417 277.656 33.4026C279.022 35.9418 279.778 38.6266 279.782 40.9629V68.179C279.782 70.9569 278.778 73.0628 276.957 74.1065L271.933 76.9923C271.913 77.007 271.888 77.0209 271.866 77.0338C271.8 77.0706 271.727 77.102 271.652 77.1269C270.934 77.4911 270.14 77.6718 269.3 77.6718H269.302ZM253.912 67.5686C254.101 67.5686 254.291 67.6166 254.462 67.7153L266.411 74.5757C268.072 75.5328 269.595 75.7338 270.708 75.1474C270.756 75.1216 270.807 75.0994 270.858 75.0801L275.857 72.2081C276.968 71.571 277.58 70.1391 277.58 68.179V40.9648C277.58 39.284 277.099 37.3589 276.222 35.454L235.985 58.5821L244.112 73.7589L248.211 71.4041L253.267 67.777C253.457 67.6396 253.682 67.5705 253.908 67.5705L253.912 67.5686Z" fill="#03030F"/>
<path d="M265.86 30.5658L221.498 5.06187C217.227 2.60847 213.759 4.58888 213.759 9.48555L213.763 36.7053C213.763 41.6094 217.225 47.5737 221.498 50.028L234.009 57.2195L243.677 75.2739L253.351 68.3396L265.86 75.5256C270.13 77.9845 273.595 76.0059 273.595 71.1019V43.8858C273.595 38.9882 270.13 33.0174 265.86 30.564V30.5658Z" fill="white"/>
<path d="M269.327 77.6829C268.072 77.6829 266.705 77.2772 265.31 76.4751L253.419 69.6423L244.322 76.1644C244.062 76.3506 243.744 76.4133 243.43 76.3432C243.12 76.2722 242.857 76.0713 242.708 75.7901L233.189 58.0123L220.95 50.9776C216.303 48.3093 212.663 42.0389 212.663 36.7052L212.66 9.48544C212.66 6.71303 213.656 4.61367 215.469 3.57275C217.283 2.52814 219.622 2.71807 222.049 4.11488L266.411 29.6179C271.057 32.2871 274.698 38.5557 274.698 43.8893V71.1036C274.698 73.8797 273.7 75.9818 271.886 77.0227C271.115 77.4653 270.25 77.6847 269.327 77.6847V77.6829ZM253.353 67.2432C253.542 67.2432 253.733 67.2912 253.903 67.3898L266.411 74.5758C268.128 75.566 269.683 75.7541 270.787 75.1216C271.888 74.4882 272.495 73.061 272.495 71.1018V43.8857C272.495 39.3412 269.272 33.7899 265.31 31.5126L220.948 6.00956C219.232 5.02488 217.674 4.8331 216.569 5.4702C215.468 6.10452 214.86 7.53083 214.86 9.48544L214.864 36.7052C214.864 41.2515 218.088 46.8028 222.049 49.0783L234.56 56.2698C234.738 56.3721 234.883 56.5233 234.981 56.704L244.054 73.651L252.706 67.4498C252.898 67.3115 253.123 67.2432 253.349 67.2432H253.353Z" fill="#03030F"/>
<path d="M250.06 52.1633C249.873 52.1633 249.685 52.1163 249.511 52.0158L225.977 38.4894C225.452 38.1869 225.271 37.5148 225.576 36.992C225.879 36.4693 226.55 36.2867 227.079 36.5919L250.612 50.1193C251.137 50.4208 251.319 51.0929 251.014 51.6157C250.81 51.9679 250.44 52.1633 250.06 52.1633ZM260.829 51.2487C260.641 51.2487 260.452 51.2026 260.278 51.1021L225.977 31.3864C225.452 31.0831 225.271 30.4128 225.576 29.89C225.879 29.3663 226.55 29.1838 227.079 29.4899L261.38 49.2047C261.905 49.5062 262.086 50.1783 261.781 50.702C261.578 51.0533 261.208 51.2487 260.829 51.2487ZM260.829 44.154C260.641 44.154 260.452 44.1079 260.278 44.0074L225.977 24.2862C225.452 23.9847 225.271 23.3125 225.576 22.7889C225.879 22.2661 226.55 22.0854 227.079 22.3887L261.38 42.11C261.905 42.4115 262.086 43.0836 261.781 43.6064C261.578 43.9586 261.208 44.154 260.829 44.154Z" fill="#03030F"/>
<path d="M355.175 180.866C355.169 178.926 353.877 176.983 351.299 175.501C347.845 173.518 342.99 172.926 338.592 173.6V171.202H338.565C338.511 169.316 337.276 167.443 334.764 165.999C329.608 163.033 321.255 163.028 316.11 165.987C313.599 167.432 312.432 169.309 312.389 171.202H312.312V177.169H312.389C312.389 177.452 312.34 177.733 312.394 178.014L313.599 193.515L340.569 194.209C344.401 194.451 348.382 193.764 351.319 192.074C353.831 190.629 355.095 188.743 355.148 186.848H355.171V180.866H355.175Z" fill="white"/>
<path d="M342.065 195.354C341.548 195.354 341.024 195.337 340.499 195.302L313.571 194.611C313.007 194.596 312.546 194.16 312.501 193.6L311.297 178.1C311.259 177.938 311.263 177.715 311.272 177.511C311.233 177.405 311.21 177.288 311.21 177.171V171.204C311.21 171.037 311.248 170.878 311.315 170.736C311.535 168.506 313.025 166.498 315.56 165.04C320.997 161.908 329.86 161.914 335.314 165.051C337.954 166.57 339.483 168.644 339.652 170.919C339.676 171.008 339.691 171.105 339.691 171.204V172.358C344.167 171.906 348.63 172.705 351.847 174.553C354.692 176.19 356.265 178.431 356.272 180.864V186.85C356.272 186.945 356.259 187.04 356.236 187.127C356.072 189.409 354.53 191.495 351.871 193.025C349.253 194.529 345.747 195.354 342.065 195.354ZM314.621 192.446L340.598 193.115C344.474 193.367 348.152 192.632 350.772 191.126C352.841 189.937 354.004 188.408 354.051 186.82C354.054 186.755 354.06 186.689 354.073 186.628V180.873C354.069 179.253 352.888 177.684 350.749 176.454C347.692 174.698 343.094 174.022 338.76 174.687C338.442 174.736 338.119 174.643 337.876 174.436C337.633 174.228 337.492 173.923 337.492 173.604V171.439C337.477 171.373 337.47 171.306 337.466 171.238C337.421 169.653 336.266 168.132 334.216 166.951C329.372 164.163 321.498 164.163 316.663 166.94C314.627 168.111 313.529 169.596 313.494 171.23C313.49 171.364 313.464 171.492 313.417 171.609V176.795C313.468 176.913 313.494 177.043 313.494 177.174L313.483 177.507C313.475 177.623 313.468 177.755 313.479 177.811L314.623 192.45L314.621 192.446Z" fill="#03030F"/>
<path d="M351.299 175.501C349.846 174.667 348.117 174.135 346.309 173.782V193.857C348.141 193.504 349.859 192.916 351.321 192.074C353.833 190.629 355.097 188.743 355.15 186.848H355.173V180.866C355.168 178.926 353.875 176.983 351.297 175.501H351.299Z" fill="#03030F"/>
<path d="M346.309 194.954C346.054 194.954 345.807 194.866 345.607 194.702C345.353 194.494 345.208 194.187 345.208 193.857V173.782C345.208 173.455 345.355 173.143 345.609 172.935C345.863 172.729 346.196 172.645 346.519 172.706C348.67 173.125 350.413 173.726 351.849 174.549C354.694 176.188 356.267 178.427 356.274 180.862V186.848C356.274 186.943 356.261 187.038 356.239 187.125C356.074 189.407 354.531 191.493 351.873 193.023C350.355 193.896 348.552 194.538 346.518 194.933C346.448 194.948 346.379 194.954 346.309 194.954ZM347.41 175.152V192.479C348.666 192.143 349.794 191.688 350.77 191.126C352.841 189.933 354.004 188.404 354.051 186.816C354.055 186.751 354.06 186.686 354.074 186.625V180.866C354.07 179.25 352.888 177.679 350.749 176.45C349.82 175.918 348.721 175.49 347.41 175.152Z" fill="#03030F"/>
<path d="M351.321 186.229C356.467 183.27 356.455 178.466 351.298 175.503C347.684 173.425 342.52 172.831 337.967 173.665C339.414 171.048 338.38 168.08 334.766 166.003C329.61 163.037 321.257 163.031 316.112 165.991C313.174 167.68 311.972 169.965 312.396 172.172L313.6 187.672L340.57 188.367C344.403 188.609 348.384 187.922 351.321 186.232V186.229Z" fill="white"/>
<path d="M342.066 189.508C341.548 189.508 341.024 189.491 340.499 189.456L313.571 188.766C313.008 188.751 312.546 188.315 312.501 187.754L311.297 172.254C310.775 169.574 312.324 166.9 315.56 165.04C320.997 161.908 329.86 161.914 335.314 165.051C338.558 166.915 340.103 169.629 339.609 172.325C344.04 171.876 348.599 172.686 351.847 174.551C354.7 176.192 356.27 178.438 356.272 180.875C356.272 183.305 354.709 185.544 351.869 187.177C349.252 188.684 345.745 189.508 342.064 189.508H342.066ZM314.621 186.6L340.598 187.268C344.474 187.514 348.152 186.788 350.772 185.28C352.899 184.055 354.074 182.491 354.074 180.877C354.074 179.255 352.892 177.684 350.749 176.45C347.486 174.575 342.66 173.923 338.168 174.741C337.754 174.831 337.324 174.648 337.076 174.303C336.826 173.959 336.799 173.505 337.004 173.134C338.21 170.956 337.167 168.644 334.216 166.948C329.372 164.16 321.498 164.16 316.663 166.937C314.289 168.303 313.127 170.135 313.479 171.963L314.623 186.598L314.621 186.6Z" fill="#03030F"/>
<path d="M75.1481 101.792C75.1324 96.3503 71.5163 90.9069 64.2877 86.7515C49.8195 78.4352 26.3809 78.4241 11.9291 86.7349C4.70053 90.8903 1.09194 96.3411 1.10318 101.792V113.979C1.11441 119.42 4.73422 124.865 11.9609 129.02C26.4269 137.339 49.8738 137.345 64.3218 129.037C71.5504 124.881 75.1573 119.43 75.1481 113.979V101.792Z" fill="white"/>
<path d="M38.1673 136.334C28.4798 136.334 18.7892 134.212 11.4111 129.969C4.06657 125.747 0.014803 120.068 0.00357166 113.982V101.794C-0.00950093 95.6986 4.03113 90.0118 11.3792 85.7872C26.1056 77.3206 50.0873 77.3261 64.8373 85.8038C72.18 90.0246 76.2316 95.7004 76.2491 101.79V113.979C76.2583 120.078 72.2196 125.764 64.8732 129.986C57.512 134.217 47.8411 136.334 38.1673 136.334ZM38.0799 81.6005C28.8039 81.6005 19.5351 83.6279 12.4805 87.6847C5.84288 91.5008 2.19314 96.5108 2.20428 101.79V113.96C2.21551 119.25 5.87657 124.255 12.5123 128.072C26.6552 136.204 49.6473 136.213 63.774 128.089C70.4079 124.275 74.0571 119.265 74.0498 113.981V101.796C74.035 96.52 70.3738 91.5155 63.7399 87.7012C56.6632 83.6334 47.3688 81.5986 38.0817 81.5986L38.0799 81.6005Z" fill="#03030F"/>
<path d="M75.1472 113.979V101.792C75.1324 96.3504 71.5163 90.9069 64.2877 86.7516C61.4743 85.1353 58.3139 83.8399 54.9518 82.8516V132.944C58.3249 131.954 61.4983 130.662 64.3218 129.037C71.5504 124.881 75.1573 119.429 75.1472 113.979Z" fill="#03030F"/>
<path d="M54.9518 134.039C54.7161 134.039 54.4851 133.965 54.2917 133.821C54.0137 133.614 53.8508 133.289 53.8508 132.944V82.8517C53.8508 82.505 54.0137 82.1814 54.2917 81.9749C54.5725 81.7684 54.9334 81.7011 55.2648 81.8016C58.8055 82.8443 62.0276 84.1904 64.8373 85.8039C72.18 90.0247 76.2316 95.7005 76.2491 101.79V113.979C76.2583 120.08 72.2196 125.764 64.8732 129.986C62.0718 131.596 58.8395 132.946 55.2648 133.996C55.1636 134.026 55.0586 134.04 54.9537 134.04L54.9518 134.039ZM56.0538 84.3407V131.455C58.9031 130.528 61.4946 129.397 63.7721 128.087C70.406 124.273 74.0553 119.263 74.0479 113.979V101.79C74.0332 96.5183 70.372 91.5137 63.7381 87.6995C61.4531 86.3884 58.8745 85.2608 56.0538 84.3389V84.3407Z" fill="#03030F"/>
<path d="M64.3218 116.85C78.7679 108.544 78.7522 95.0678 64.2858 86.7515C49.8176 78.4352 26.3781 78.4241 11.9272 86.7349C-2.52235 95.042 -2.51112 108.517 11.9589 116.833C26.4251 125.153 49.8719 125.159 64.3199 116.85H64.3218Z" fill="white"/>
<path d="M38.1674 124.147C28.4798 124.147 18.7893 122.025 11.4112 117.783C4.05361 113.555 0 107.867 0 101.77C0 95.682 4.04054 90.0062 11.3794 85.7872C26.1056 77.3206 50.0873 77.3261 64.8382 85.8038C72.1957 90.0339 76.2473 95.7216 76.2473 101.821C76.2473 107.919 72.2067 113.582 64.8714 117.799C57.5102 122.03 47.8402 124.147 38.1655 124.147H38.1674ZM38.0799 81.6005C28.8039 81.6005 19.5353 83.6279 12.4806 87.6847C5.85238 91.4952 2.20255 96.4979 2.20255 101.77C2.20255 107.05 5.86361 112.063 12.5125 115.884C26.6552 124.017 49.6482 124.023 63.774 115.9C70.3987 112.091 74.0479 107.091 74.0479 101.819C74.0479 96.5459 70.3876 91.521 63.7399 87.6994C56.6632 83.6316 47.3688 81.5968 38.0817 81.5968L38.0799 81.6005Z" fill="#03030F"/>
<path d="M35.3853 106.316C36.4173 105.726 36.9466 105.08 36.9789 104.378C37.0102 103.682 36.5581 102.731 35.6228 101.528C33.7346 99.3423 32.7339 97.4863 32.6327 95.9687C32.5323 94.4456 33.6334 93.0239 35.9386 91.6944C38.0587 90.4746 40.4937 89.8679 43.2196 89.8809C45.9474 89.8919 48.6079 90.5069 51.2059 91.7221L55.2483 89.4023L58.254 91.1283L54.1555 93.484C56.11 94.973 57.002 96.4998 56.8335 98.0745C56.6669 99.653 55.3974 101.096 53.0324 102.418L52.898 102.446L47.5087 99.3497C48.8814 98.5586 49.6234 97.7749 49.7394 96.9931C49.8517 96.2112 49.3472 95.4976 48.2268 94.8522C47.0392 94.1727 45.8728 93.8555 44.7267 93.9044C43.5805 93.9524 42.4887 94.2806 41.4456 94.878C40.4707 95.4404 39.9809 96.0416 39.9607 96.7026C39.9441 97.36 40.3943 98.3355 41.314 99.6309C43.2086 101.761 44.19 103.604 44.2572 105.156C44.328 106.709 43.2196 108.144 40.9292 109.461C38.7363 110.723 36.2976 111.335 33.6168 111.304C30.9314 111.276 28.2856 110.65 25.6776 109.423L21.9567 111.56L18.9502 109.834L22.671 107.697C20.4665 106.182 19.2792 104.579 19.1165 102.884C18.9483 101.191 20.2403 99.5783 22.9833 98.0598L23.1516 98.0275L28.5231 101.116C26.9139 102.042 26.1562 102.928 26.2593 103.779C26.356 104.624 27.0391 105.408 28.2994 106.134C29.5348 106.845 30.7611 107.206 31.9846 107.21C33.2053 107.215 34.3404 106.919 35.3871 106.32L35.3853 106.316Z" fill="#03030F"/>
<path d="M39.5658 136.343C38.9582 136.343 38.4647 135.852 38.4647 135.247V123.06C38.4647 122.455 38.9582 121.964 39.5658 121.964C40.1743 121.964 40.6678 122.455 40.6678 123.06V135.247C40.6678 135.852 40.1743 136.343 39.5658 136.343ZM31.8723 136.049C31.2647 136.049 30.7712 135.558 30.7712 134.953V122.766C30.7712 122.161 31.2647 121.67 31.8723 121.67C32.4799 121.67 32.9733 122.161 32.9733 122.766V134.953C32.9733 135.558 32.4799 136.049 31.8723 136.049ZM47.2584 135.711C46.6508 135.711 46.1573 135.219 46.1573 134.614V122.427C46.1573 121.822 46.6508 121.331 47.2584 121.331C47.866 121.331 48.3594 121.822 48.3594 122.427V134.614C48.3594 135.219 47.866 135.711 47.2584 135.711ZM24.1799 134.789C23.5722 134.789 23.0786 134.297 23.0786 133.693V121.506C23.0786 120.901 23.5722 120.41 24.1799 120.41C24.7876 120.41 25.2812 120.901 25.2812 121.506V133.693C25.2812 134.297 24.7876 134.789 24.1799 134.789ZM16.4877 132.335C15.88 132.335 15.3864 131.844 15.3864 131.239V119.052C15.3864 118.447 15.88 117.955 16.4877 117.955C17.0954 117.955 17.589 118.447 17.589 119.052V131.239C17.589 131.844 17.0954 132.335 16.4877 132.335ZM8.79365 128.04C8.18595 128.04 7.69232 127.549 7.69232 126.944V114.757C7.69232 114.152 8.18595 113.661 8.79365 113.661C9.40134 113.661 9.89487 114.152 9.89487 114.757V126.944C9.89487 127.549 9.40134 128.04 8.79365 128.04Z" fill="#03030F"/>
<defs>
<linearGradient id="paint0_linear_4326_910" x1="113.187" y1="111.062" x2="264.646" y2="159.369" gradientUnits="userSpaceOnUse">
<stop stop-color="#85D8EB"/>
<stop offset="1" stop-color="#1177E8"/>
</linearGradient>
</defs>
</svg>
