<svg width="426" height="400" viewBox="0 0 426 400" fill="none" xmlns="http://www.w3.org/2000/svg">
<mask id="mask0_4326_765" style="mask-type:luminance" maskUnits="userSpaceOnUse" x="0" y="0" width="426" height="400">
<path d="M425.5 0H0.5V400H425.5V0Z" fill="white"/>
</mask>
<g mask="url(#mask0_4326_765)">
<path d="M65.958 348.085C63.3774 348.085 60.7992 347.507 58.7866 346.35C56.6095 345.092 55.4108 343.345 55.4108 341.424C55.4108 339.505 56.6095 337.759 58.7797 336.51C62.7955 334.196 69.0927 334.202 73.12 336.521C75.2926 337.768 76.4913 339.517 76.4913 341.44C76.4913 343.362 75.2973 345.103 73.127 346.352C71.1192 347.507 68.5386 348.087 65.9603 348.087L65.958 348.085ZM65.9394 337.519C63.8296 337.519 61.7197 337.97 60.15 338.877C58.8794 339.605 58.1513 340.535 58.149 341.424C58.149 342.316 58.8817 343.248 60.1569 343.988C63.3009 345.793 68.615 345.8 71.7591 343.984C73.0297 343.256 73.7577 342.325 73.7577 341.437C73.7577 340.549 73.0274 339.614 71.7522 338.883C70.1755 337.974 68.0586 337.519 65.9394 337.519Z" fill="#03030F"/>
<path d="M321.495 336.964C320.739 336.964 320.127 336.352 320.127 335.599L320.116 320.828C320.116 320.074 320.728 319.464 321.484 319.464C322.24 319.464 322.852 320.074 322.852 320.828L322.863 335.599C322.863 336.352 322.251 336.964 321.495 336.964Z" fill="#03030F"/>
<path d="M334.313 329.585L308.669 329.577C307.914 329.577 307.301 328.967 307.301 328.213C307.301 327.459 307.914 326.848 308.669 326.848L334.313 326.855C335.069 326.855 335.681 327.465 335.681 328.219C335.681 328.973 335.069 329.585 334.313 329.585Z" fill="#03030F"/>
<path d="M372.119 110.504C370.991 110.504 369.773 110.141 368.533 109.43C364.512 107.115 361.361 101.679 361.361 97.0483C361.357 94.5477 362.272 92.6394 363.939 91.6794C365.609 90.7101 367.725 90.8859 369.9 92.1304C373.921 94.4459 377.072 99.8866 377.072 104.515C377.072 107.016 376.154 108.924 374.489 109.879C373.77 110.296 372.968 110.502 372.117 110.502L372.119 110.504ZM366.314 93.7983C365.933 93.7983 365.595 93.8769 365.305 94.0434C364.535 94.4875 364.095 95.5817 364.095 97.0483C364.095 100.668 366.752 105.255 369.9 107.064C371.175 107.802 372.351 107.967 373.123 107.52C373.896 107.076 374.338 105.982 374.338 104.518C374.338 100.897 371.681 96.3057 368.533 94.4991C367.728 94.0341 366.963 93.7983 366.314 93.7983Z" fill="#03030F"/>
<path d="M47.6299 113.878C47.595 113.878 47.5626 113.878 47.5278 113.874C46.969 113.833 46.4891 113.455 46.3245 112.919C45.5477 110.434 44.2958 107.668 42.6982 104.913C41.1123 102.167 39.3363 99.6966 37.5533 97.7743C37.1707 97.358 37.0803 96.7588 37.3261 96.25C37.5718 95.7457 38.1144 95.4565 38.6639 95.4866C40.2127 95.5999 41.7847 95.246 43.2037 94.4272C44.6111 93.6245 45.7147 92.4564 46.3917 91.0476C46.6328 90.5387 47.1754 90.2241 47.7225 90.2773C48.2837 90.319 48.7613 90.696 48.9283 91.2326C49.7073 93.7263 50.957 96.4952 52.5498 99.2409C54.1381 101.987 55.9187 104.453 57.7017 106.372C58.0819 106.784 58.1724 107.388 57.929 107.892C57.6855 108.397 57.1569 108.739 56.5958 108.66C55.0562 108.547 53.4634 108.908 52.0467 109.722C50.644 110.525 49.5403 111.697 48.8587 113.104C48.6291 113.575 48.1492 113.874 47.6275 113.874L47.6299 113.878ZM41.3534 98.0265C42.6518 99.6758 43.9132 101.547 45.0702 103.555C46.2318 105.558 47.2287 107.585 48.0078 109.521C48.7682 108.674 49.6702 107.943 50.6903 107.36C51.7105 106.777 52.7957 106.366 53.9108 106.134C52.6101 104.49 51.3488 102.616 50.1872 100.61C49.0256 98.6071 48.031 96.5808 47.2519 94.6423C46.4915 95.489 45.5894 96.2153 44.5693 96.7982C43.5514 97.3835 42.4687 97.7975 41.3581 98.0265H41.3534Z" fill="#03030F"/>
<path d="M387.52 189.992L369.208 179.441L350.921 189.98V205.795L369.228 216.339L387.52 205.809V189.992Z" fill="white"/>
<path d="M369.227 217.704C368.994 217.704 368.754 217.644 368.543 217.524L350.237 206.978C349.812 206.733 349.552 206.282 349.552 205.797V189.981C349.552 189.495 349.812 189.043 350.237 188.798L368.523 178.26C368.942 178.019 369.471 178.019 369.891 178.26L388.203 188.808C388.628 189.053 388.887 189.504 388.887 189.989V205.807C388.887 206.294 388.628 206.747 388.203 206.992L369.911 217.524C369.7 217.644 369.464 217.704 369.227 217.704ZM352.286 205.005L369.227 214.764L386.151 205.018V190.779L369.207 181.015L352.289 190.768V205.005H352.286Z" fill="#03030F"/>
<path d="M369.223 200.526L350.921 189.98L369.208 179.441L387.52 189.992L369.223 200.526Z" fill="white"/>
<path d="M369.223 201.891C368.989 201.891 368.75 201.83 368.539 201.71L350.235 191.164C349.81 190.919 349.551 190.468 349.551 189.983C349.551 189.497 349.81 189.045 350.235 188.8L368.52 178.262C368.94 178.021 369.469 178.021 369.888 178.262L388.201 188.81C388.626 189.055 388.884 189.505 388.884 189.991C388.884 190.478 388.626 190.931 388.201 191.174L369.907 201.708C369.696 201.828 369.458 201.888 369.223 201.888V201.891ZM353.654 189.981L369.223 198.951L384.783 189.989L369.207 181.014L353.654 189.977V189.981Z" fill="#03030F"/>
<path d="M369.228 216.339L369.223 200.527L387.519 189.993V205.81L369.228 216.339Z" fill="#03030F"/>
<path d="M369.228 217.704C368.994 217.704 368.755 217.644 368.545 217.524C368.12 217.279 367.861 216.827 367.861 216.339L367.855 200.524C367.855 200.038 368.115 199.585 368.539 199.34L386.833 188.806C387.252 188.565 387.781 188.565 388.201 188.806C388.626 189.051 388.884 189.502 388.884 189.987V205.805C388.884 206.291 388.626 206.745 388.201 206.99L369.91 217.522C369.698 217.642 369.462 217.702 369.225 217.702L369.228 217.704ZM370.591 201.315L370.596 213.977L386.151 205.02V192.353L370.591 201.315Z" fill="#03030F"/>
<path d="M405.824 186.473L387.514 175.925L369.223 186.46V216.343L387.533 226.889L405.824 216.353V186.473Z" fill="white"/>
<path d="M387.533 228.252C387.299 228.252 387.06 228.192 386.849 228.072L368.541 217.526C368.117 217.281 367.857 216.83 367.857 216.344V186.46C367.857 185.974 368.117 185.523 368.541 185.278L386.833 174.744C387.252 174.503 387.781 174.503 388.2 174.744L406.508 185.292C406.932 185.537 407.192 185.988 407.192 186.473V216.353C407.192 216.84 406.932 217.29 406.508 217.535L388.217 228.07C388.006 228.19 387.768 228.25 387.533 228.25V228.252ZM370.591 215.553L387.533 225.313L404.456 215.562V187.258L387.514 177.494L370.591 187.244V215.55V215.553Z" fill="#03030F"/>
<path d="M387.533 197.005L369.223 186.46L387.514 175.925L405.824 186.473L387.533 197.005Z" fill="white"/>
<path d="M387.533 198.369C387.299 198.369 387.06 198.308 386.849 198.188L368.541 187.642C368.117 187.397 367.857 186.945 367.857 186.46C367.857 185.974 368.117 185.523 368.541 185.278L386.833 174.744C387.252 174.503 387.781 174.503 388.2 174.744L406.508 185.292C406.932 185.537 407.192 185.988 407.192 186.473C407.192 186.959 406.932 187.413 406.508 187.658L388.217 198.19C388.006 198.31 387.768 198.371 387.533 198.371V198.369ZM371.959 186.458L387.533 195.428L403.089 186.471L387.514 177.497L371.959 186.458Z" fill="#03030F"/>
<path d="M387.533 226.889V197.005L405.824 186.473V216.353L387.533 226.889Z" fill="#03030F"/>
<path d="M387.533 228.252C387.299 228.252 387.06 228.192 386.849 228.072C386.425 227.827 386.165 227.376 386.165 226.89V197.005C386.165 196.52 386.425 196.067 386.849 195.821L405.14 185.29C405.56 185.049 406.089 185.049 406.508 185.29C406.932 185.535 407.192 185.986 407.192 186.471V216.351C407.192 216.836 406.932 217.287 406.508 217.533L388.217 228.067C388.006 228.188 387.768 228.248 387.533 228.248V228.252ZM388.901 197.792V224.525L404.456 215.564V188.835L388.901 197.792Z" fill="#03030F"/>
<path d="M424.132 188.231L405.824 177.683L387.533 188.218V226.885L405.841 237.431L424.132 226.899V188.231Z" fill="white"/>
<path d="M405.841 238.796C405.607 238.796 405.368 238.735 405.157 238.615L386.849 228.069C386.425 227.824 386.165 227.373 386.165 226.888V188.219C386.165 187.734 386.425 187.283 386.849 187.038L405.14 176.504C405.56 176.263 406.089 176.263 406.508 176.504L424.816 187.052C425.24 187.297 425.5 187.747 425.5 188.234V226.901C425.5 227.387 425.24 227.84 424.816 228.083L406.525 238.615C406.314 238.735 406.077 238.796 405.841 238.796ZM388.899 226.096L405.841 235.855L422.764 226.11V189.021L405.822 179.256L388.899 189.006V226.096Z" fill="#03030F"/>
<path d="M405.841 198.763L387.533 188.218L405.824 177.683L424.132 188.231L405.841 198.763Z" fill="white"/>
<path d="M405.841 200.129C405.607 200.129 405.368 200.069 405.157 199.948L386.849 189.402C386.425 189.156 386.165 188.706 386.165 188.218C386.165 187.73 386.425 187.281 386.849 187.036L405.14 176.501C405.56 176.261 406.089 176.261 406.508 176.501L424.816 187.05C425.24 187.295 425.5 187.746 425.5 188.231C425.5 188.717 425.24 189.168 424.816 189.414L406.525 199.946C406.314 200.065 406.077 200.127 405.841 200.127V200.129ZM390.266 188.218L405.841 197.188L421.396 188.231L405.822 179.257L390.266 188.218Z" fill="#03030F"/>
<path d="M405.841 237.431V198.764L424.132 188.232V226.899L405.841 237.431Z" fill="url(#paint0_linear_4326_765)"/>
<path d="M405.841 238.796C405.607 238.796 405.368 238.736 405.157 238.616C404.733 238.371 404.473 237.92 404.473 237.434V198.767C404.473 198.281 404.733 197.827 405.157 197.584L423.448 187.052C423.868 186.811 424.397 186.811 424.816 187.052C425.24 187.297 425.5 187.749 425.5 188.235V226.902C425.5 227.388 425.24 227.841 424.816 228.083L406.525 238.616C406.314 238.736 406.077 238.796 405.841 238.796ZM407.209 199.553V235.067L422.764 226.111V190.597L407.209 199.553Z" fill="#03030F"/>
<path d="M219.378 376.546L196.932 363.619L174.537 376.517V385.707L196.986 398.636L219.378 385.74V376.546Z" fill="white"/>
<path d="M196.985 400C196.749 400 196.515 399.94 196.302 399.82L173.855 386.892C173.431 386.646 173.171 386.195 173.171 385.709V376.517C173.171 376.031 173.431 375.579 173.855 375.334L196.248 362.436C196.673 362.195 197.192 362.195 197.616 362.436L220.062 375.365C220.487 375.61 220.746 376.061 220.746 376.547V385.74C220.746 386.226 220.487 386.676 220.062 386.921L197.669 399.82C197.459 399.94 197.223 400 196.985 400ZM175.907 384.918L196.985 397.063L218.01 384.95V377.335L196.932 365.191L175.907 377.304V384.918Z" fill="#03030F"/>
<path d="M219.378 376.546L196.932 363.619L174.537 376.517L196.986 389.445L219.378 376.546Z" fill="white"/>
<path d="M196.985 390.81C196.749 390.81 196.515 390.749 196.302 390.629L173.855 377.701C173.431 377.455 173.171 377.004 173.171 376.519C173.171 376.033 173.431 375.582 173.855 375.337L196.248 362.438C196.673 362.198 197.192 362.198 197.616 362.438L220.062 375.367C220.487 375.612 220.746 376.064 220.746 376.549C220.746 377.035 220.487 377.488 220.062 377.731L197.669 390.629C197.459 390.749 197.223 390.81 196.985 390.81ZM177.273 376.517L196.985 387.872L216.645 376.549L196.932 365.194L177.273 376.517Z" fill="#03030F"/>
<path d="M196.985 389.445V398.636L219.378 385.74V376.547L196.985 389.445Z" fill="url(#paint1_linear_4326_765)"/>
<path d="M196.985 400C196.749 400 196.515 399.94 196.302 399.82C195.878 399.575 195.618 399.124 195.618 398.636V389.443C195.618 388.957 195.878 388.504 196.302 388.258L218.694 375.36C219.114 375.119 219.643 375.119 220.062 375.36C220.487 375.606 220.746 376.057 220.746 376.542V385.735C220.746 386.22 220.487 386.672 220.062 386.917L197.669 399.815C197.459 399.936 197.223 399.996 196.985 399.996V400ZM198.353 390.234V396.274L218.013 384.951V378.911L198.353 390.234Z" fill="#03030F"/>
<path d="M244.482 165.315C247.886 159.453 247.42 151.339 242.27 142.363C231.959 124.385 206.803 109.754 186.065 109.676C175.694 109.632 168.398 113.25 164.987 119.121L157.348 132.209C157.348 132.209 157.342 132.209 157.34 132.215L157.334 132.229C153.929 138.091 154.396 146.199 159.545 155.181C169.851 173.159 195.02 187.79 215.75 187.869C226.121 187.903 233.413 184.295 236.828 178.424L244.482 165.313V165.315Z" fill="white"/>
<path d="M215.903 189.233H215.746C194.607 189.155 168.861 174.184 158.359 155.861C153.127 146.738 152.344 138.103 156.151 131.545C156.163 131.526 156.177 131.506 156.188 131.487L163.805 118.433C167.623 111.864 175.617 108.397 186.072 108.311C207.206 108.39 232.951 123.361 243.457 141.683C248.692 150.805 249.476 159.437 245.664 165.999L238.011 179.111C234.211 185.641 226.362 189.233 215.903 189.233ZM158.477 132.979C155.235 138.727 156.049 146.335 160.735 154.503C170.807 172.072 195.488 186.428 215.754 186.504H215.903C225.347 186.504 232.356 183.396 235.645 177.739L243.3 164.628C246.596 158.946 245.81 151.279 241.085 143.041C231.011 125.473 206.325 111.114 186.063 111.04H185.886C176.454 111.04 169.46 114.15 166.171 119.805L158.532 132.893C158.514 132.926 158.497 132.953 158.477 132.979Z" fill="#03030F"/>
<path d="M236.828 178.426L244.482 165.314C247.885 159.453 247.42 151.338 242.269 142.363C240.262 138.868 237.686 135.5 234.697 132.338L203.236 186.228C207.477 187.264 211.699 187.854 215.748 187.87C226.118 187.905 233.411 184.296 236.826 178.426H236.828Z" fill="#03030F"/>
<path d="M215.903 189.233H215.746C211.732 189.22 207.415 188.655 202.911 187.554C202.494 187.45 202.149 187.159 201.979 186.761C201.81 186.365 201.839 185.912 202.056 185.541L233.517 131.651C233.735 131.279 234.116 131.029 234.542 130.982C234.973 130.918 235.393 131.087 235.692 131.401C238.833 134.723 241.444 138.181 243.455 141.683C248.69 150.805 249.473 159.437 245.662 165.999L238.008 179.111C234.208 185.641 226.36 189.233 215.901 189.233H215.903ZM205.355 185.315C208.998 186.092 212.488 186.494 215.752 186.506H215.901C225.345 186.506 232.353 183.398 235.643 177.741L243.297 164.63C246.594 158.949 245.808 151.281 241.083 143.043C239.448 140.199 237.387 137.374 234.943 134.626L205.353 185.317L205.355 185.315Z" fill="#03030F"/>
<path d="M223.401 174.76C244.127 174.839 252.579 160.335 242.269 142.363C231.959 124.385 206.802 109.754 186.065 109.676C165.339 109.597 156.888 124.101 167.196 142.072C177.502 160.051 202.671 174.682 223.401 174.76Z" fill="white"/>
<path d="M223.57 176.125H223.399C202.26 176.046 176.514 161.075 166.012 142.753C160.77 133.612 159.991 124.966 163.82 118.408C167.623 111.897 175.46 108.313 185.901 108.313H186.072C207.206 108.392 232.951 123.363 243.457 141.685C248.699 150.823 249.478 159.472 245.651 166.03C241.848 172.542 234.011 176.125 223.57 176.125ZM185.901 111.04C176.473 111.04 169.475 114.143 166.183 119.78C162.867 125.461 163.649 133.136 168.388 141.392C178.46 158.961 203.141 173.317 223.408 173.393H223.573C233 173.393 239.998 170.29 243.288 164.653C246.606 158.973 245.824 151.297 241.087 143.041C231.013 125.473 206.327 111.114 186.065 111.04H185.903H185.901Z" fill="#03030F"/>
<path d="M198.952 145.37C200.429 145.384 201.405 145.022 201.88 144.284C202.353 143.552 202.465 142.25 202.214 140.368C201.558 136.842 201.651 134.22 202.5 132.523C203.347 130.825 205.423 129.978 208.731 129.985C211.776 129.999 214.767 130.867 217.684 132.579C220.607 134.29 223.079 136.615 225.101 139.541L230.897 139.569L233.042 143.301L227.162 143.28C228.324 146.102 228.324 148.297 227.151 149.888C225.979 151.479 223.709 152.241 220.341 152.19L220.176 152.132L216.337 145.438C218.31 145.444 219.595 145.061 220.211 144.295C220.823 143.52 220.73 142.44 219.93 141.048C219.082 139.576 218.031 138.509 216.773 137.85C215.509 137.182 214.13 136.856 212.634 136.848C211.238 136.842 210.329 137.182 209.896 137.878C209.465 138.575 209.337 139.911 209.51 141.877C210.206 145.345 210.099 147.938 209.2 149.653C208.303 151.371 206.209 152.225 202.921 152.211C199.777 152.196 196.775 151.337 193.915 149.632C191.053 147.926 188.601 145.601 186.572 142.652L181.238 142.631L179.093 138.901L184.428 138.921C183.014 135.916 182.747 133.451 183.638 131.524C184.516 129.597 186.919 128.667 190.818 128.746L191.018 128.818L194.851 135.491C192.537 135.484 191.169 135.968 190.744 136.941C190.32 137.915 190.556 139.187 191.456 140.751C192.335 142.285 193.425 143.443 194.737 144.212C196.045 144.98 197.45 145.364 198.95 145.37H198.952Z" fill="#03030F"/>
<path d="M193.927 184.587C193.694 184.587 193.457 184.526 193.241 184.401C192.587 184.022 192.367 183.187 192.747 182.536L200.401 169.426C200.783 168.771 201.618 168.558 202.27 168.931C202.923 169.31 203.144 170.145 202.764 170.795L195.11 183.906C194.855 184.344 194.398 184.584 193.925 184.584L193.927 184.587ZM185.27 180.465C185.035 180.465 184.799 180.403 184.584 180.279C183.932 179.9 183.712 179.065 184.09 178.414L191.743 165.31C192.126 164.661 192.958 164.443 193.615 164.815C194.266 165.195 194.486 166.03 194.109 166.679L186.454 179.784C186.2 180.221 185.743 180.461 185.27 180.461V180.465ZM177.196 175.347C176.962 175.347 176.726 175.287 176.51 175.162C175.859 174.783 175.638 173.948 176.016 173.298L183.671 160.193C184.053 159.544 184.89 159.326 185.541 159.7C186.192 160.08 186.413 160.916 186.035 161.565L178.382 174.669C178.126 175.106 177.669 175.347 177.196 175.347ZM169.729 169.194C169.495 169.194 169.258 169.134 169.043 169.009C168.39 168.63 168.171 167.794 168.549 167.145L176.202 154.034C176.582 153.383 177.419 153.166 178.074 153.54C178.725 153.921 178.945 154.756 178.567 155.405L170.913 168.517C170.658 168.954 170.202 169.194 169.729 169.194ZM163.01 161.755C162.775 161.755 162.539 161.695 162.323 161.57C161.671 161.19 161.452 160.356 161.83 159.706L169.485 146.594C169.867 145.939 170.702 145.727 171.357 146.102C172.008 146.481 172.228 147.316 171.85 147.966L164.194 161.077C163.939 161.514 163.483 161.755 163.01 161.755ZM157.45 152.334C157.215 152.334 156.979 152.273 156.763 152.148C156.111 151.769 155.892 150.934 156.27 150.284L163.923 137.18C164.303 136.53 165.14 136.312 165.794 136.685C166.446 137.064 166.665 137.899 166.288 138.548L158.634 151.654C158.379 152.091 157.923 152.33 157.45 152.33V152.334Z" fill="#03030F"/>
<path d="M200.756 337.514C145.553 337.514 100.642 311.375 100.642 279.249C100.642 247.123 145.553 220.98 200.756 220.98C255.959 220.98 300.877 247.118 300.877 279.249C300.877 311.379 255.961 337.514 200.756 337.514ZM200.756 223.709C147.062 223.709 103.378 248.622 103.378 279.249C103.378 309.876 147.062 334.786 200.756 334.786C254.449 334.786 298.141 309.874 298.141 279.249C298.141 248.625 254.454 223.709 200.756 223.709Z" fill="#03030F"/>
<path d="M200.756 325.268C140.503 325.268 91.4835 296.762 91.4835 261.722V123.962C91.4835 88.9215 140.505 60.416 200.756 60.416C261.006 60.416 310.038 88.9215 310.038 123.962V261.722C310.038 296.762 261.013 325.268 200.756 325.268ZM200.756 63.1456C142.012 63.1456 94.2171 90.4298 94.2171 123.962V261.722C94.2171 295.254 142.01 322.539 200.756 322.539C259.502 322.539 307.301 295.254 307.301 261.722V123.962C307.301 90.4298 259.506 63.1456 200.756 63.1456Z" fill="#03030F"/>
<path d="M200.756 187.508C140.503 187.508 91.4835 159.002 91.4835 123.962C91.4835 106.164 100.35 79.0905 125.233 56.4721L126.51 57.143L125.543 56.176C125.59 56.1343 125.752 55.9816 125.803 55.9424C142.061 40.8558 170.088 31.8389 200.758 31.8389C231.428 31.8389 259.457 40.8558 275.736 55.9632L276.028 56.2269L275.366 57.4783L276.288 56.4698C301.171 79.0882 310.038 106.166 310.038 123.962C310.038 159.002 261.013 187.508 200.756 187.508ZM126.394 57.2563L127.317 58.2648C102.849 80.5108 94.2194 106.749 94.2194 123.962C94.2194 157.493 142.012 184.778 200.758 184.778C259.504 184.778 307.304 157.493 307.304 123.962C307.304 106.747 298.672 80.5085 274.445 58.4869C274.438 58.48 274.431 58.473 274.424 58.4661L274.19 58.2417C274.157 58.2162 273.905 57.9896 273.872 57.9618C258.092 43.3123 230.76 34.5685 200.76 34.5685C170.76 34.5685 143.433 43.3123 127.654 57.9618L126.399 57.2539L126.394 57.2563Z" fill="#03030F"/>
<path d="M200.756 5.65137C152.654 5.65137 113.652 28.1241 113.652 55.8476V83.3978C113.652 111.126 152.654 133.594 200.756 133.594C248.857 133.594 287.867 111.126 287.867 83.3978V55.8476C287.867 28.1241 248.864 5.65137 200.756 5.65137Z" fill="white"/>
<path d="M200.756 134.96C151.973 134.96 112.284 111.829 112.284 83.3979V55.8477C112.284 27.4163 151.973 4.28662 200.756 4.28662C249.539 4.28662 289.235 27.4163 289.235 55.8477V83.3979C289.235 111.829 249.546 134.96 200.756 134.96ZM200.756 7.01619C153.48 7.01619 115.019 28.9244 115.019 55.8477V83.3979C115.019 110.323 153.48 132.229 200.756 132.229C248.031 132.229 286.499 110.321 286.499 83.3979V55.8477C286.499 28.9221 248.034 7.01619 200.756 7.01619Z" fill="#03030F"/>
<path d="M287.867 55.8476C287.867 83.5714 248.864 106.044 200.756 106.044C152.648 106.044 113.652 83.5714 113.652 55.8476C113.652 28.1241 152.654 5.65137 200.756 5.65137C248.857 5.65137 287.867 28.1241 287.867 55.8476Z" fill="white"/>
<path d="M200.756 107.409C151.973 107.409 112.284 84.2794 112.284 55.8479C112.284 27.4164 151.973 4.28906 200.756 4.28906C249.539 4.28906 289.235 27.4188 289.235 55.8501C289.235 84.2816 249.546 107.411 200.756 107.411V107.409ZM200.756 7.01632C153.48 7.01632 115.019 28.9246 115.019 55.8479C115.019 82.7711 153.48 104.679 200.756 104.679C248.031 104.679 286.499 82.7711 286.499 55.8479C286.499 28.9246 248.036 7.01632 200.756 7.01632Z" fill="#03030F"/>
<path d="M200.756 325.268C140.503 325.268 91.4835 296.762 91.4835 261.722C91.4835 226.681 140.505 198.181 200.756 198.181C261.006 198.181 310.038 226.686 310.038 261.722C310.038 296.758 261.013 325.268 200.756 325.268ZM200.756 200.91C142.012 200.91 94.2171 228.19 94.2171 261.724C94.2171 295.258 142.01 322.541 200.756 322.541C259.502 322.541 307.301 295.256 307.301 261.724C307.301 228.192 259.506 200.91 200.756 200.91Z" fill="#03030F"/>
<path d="M155.586 63.502C146.795 68.561 146.816 76.7752 155.62 81.8504C164.429 86.9232 178.685 86.9302 187.468 81.8712L245.936 48.1957C254.719 43.1367 254.705 34.9225 245.897 29.8474C237.093 24.7746 222.826 24.7676 214.043 29.8266L155.582 63.502H155.586Z" fill="white"/>
<path d="M171.578 86.9971C165.555 86.9971 159.526 85.6763 154.936 83.0323C150.227 80.3189 147.634 76.6294 147.637 72.6507C147.637 68.6859 150.218 65.0148 154.901 62.3176L213.362 28.6422C222.513 23.3773 237.415 23.3843 246.58 28.663C251.289 31.3763 253.881 35.0612 253.881 39.0423C253.881 43.0233 251.302 46.6781 246.62 49.3776L188.152 83.0532C183.587 85.6833 177.584 86.9971 171.578 86.9971ZM229.94 27.386C224.426 27.386 218.922 28.5935 214.729 31.0109L156.269 64.6863C152.466 66.8723 150.373 69.7036 150.373 72.6553C150.373 75.607 152.481 78.4637 156.303 80.6682C164.718 85.5213 178.395 85.5283 186.783 80.689L245.252 47.0135C249.052 44.8253 251.145 41.9939 251.145 39.0446C251.145 36.0952 249.038 33.2362 245.211 31.0317C240.999 28.6005 235.465 27.386 229.938 27.386H229.94Z" fill="#03030F"/>
<path d="M155.586 69.627L214.046 35.9515C222.829 30.8925 237.095 30.8995 245.899 35.9723C248.943 37.728 250.913 39.8585 251.853 42.1046C253.64 37.8484 251.672 33.1757 245.899 29.8469C237.095 24.7741 222.829 24.7672 214.046 29.8261L155.586 63.5017C149.838 66.8118 147.883 71.4706 149.666 75.7177C150.603 73.4854 152.557 71.3688 155.586 69.627Z" fill="#03030F"/>
<path d="M149.666 77.0801C149.117 77.0801 148.617 76.7494 148.404 76.2428C146.278 71.1861 148.768 65.8542 154.902 62.3196L213.362 28.6441C222.513 23.3793 237.415 23.3862 246.58 28.6649C252.738 32.218 255.238 37.5684 253.112 42.632C252.899 43.1409 252.402 43.4694 251.85 43.4694C251.298 43.4694 250.8 43.1386 250.589 42.632C249.731 40.5825 247.872 38.688 245.213 37.1544C236.798 32.3036 223.126 32.3013 214.727 37.1358L156.266 70.8114C153.628 72.3288 151.78 74.2071 150.925 76.2428C150.714 76.7516 150.216 77.0801 149.664 77.0801H149.666ZM229.94 27.3858C224.426 27.3858 218.922 28.5932 214.729 31.0105L156.27 64.686C152.735 66.7193 150.712 69.3193 150.433 72.0095C151.595 70.6888 153.1 69.4835 154.902 68.4449L213.362 34.7694C222.513 29.5047 237.415 29.5115 246.58 34.7902C248.395 35.8382 249.914 37.0526 251.081 38.3896C250.8 35.6901 248.762 33.0785 245.213 31.029C241 28.6024 235.465 27.388 229.938 27.388L229.94 27.3858Z" fill="#03030F"/>
<path d="M278.271 236.721C278.257 229.946 273.759 223.171 264.777 217.996C246.803 207.642 217.679 207.627 199.724 217.975C190.742 223.147 186.26 229.934 186.274 236.721V251.891C186.293 258.666 190.786 265.441 199.764 270.616C217.742 280.972 246.868 280.979 264.82 270.637C273.802 265.465 278.282 258.678 278.271 251.891V236.721Z" fill="white"/>
<path d="M232.328 279.721C220.287 279.721 208.25 277.077 199.08 271.799C189.958 266.541 184.925 259.474 184.906 251.893V236.718C184.89 229.129 189.909 222.053 199.039 216.79C217.345 206.252 247.139 206.258 265.461 216.811C274.589 222.069 279.624 229.136 279.639 236.716V251.891C279.65 259.482 274.63 266.562 265.504 271.819C256.36 277.084 244.343 279.721 232.328 279.721ZM232.215 211.578C220.694 211.578 209.175 214.105 200.408 219.157C192.161 223.903 187.626 230.142 187.642 236.716V251.865C187.661 258.454 192.207 264.685 200.448 269.432C218.015 279.559 246.587 279.566 264.137 269.453C272.381 264.706 276.914 258.47 276.903 251.893V236.721C276.889 230.156 272.339 223.922 264.093 219.175C255.3 214.109 243.754 211.576 232.212 211.576L232.215 211.578Z" fill="#03030F"/>
<path d="M278.271 251.891V236.721C278.257 229.946 273.759 223.17 264.776 217.996C261.28 215.985 257.354 214.371 253.181 213.138V275.499C257.373 274.266 261.315 272.656 264.821 270.635C273.802 265.462 278.282 258.675 278.271 251.888V251.891Z" fill="#03030F"/>
<path d="M253.18 276.865C252.889 276.865 252.601 276.772 252.362 276.593C252.017 276.335 251.813 275.93 251.813 275.499V213.138C251.813 212.708 252.017 212.303 252.362 212.044C252.709 211.787 253.158 211.704 253.571 211.831C257.969 213.131 261.971 214.806 265.463 216.811C274.591 222.069 279.627 229.136 279.641 236.716V251.889C279.652 259.485 274.633 266.562 265.507 271.822C262.031 273.825 258.017 275.502 253.573 276.809C253.445 276.848 253.313 276.867 253.186 276.867L253.18 276.865ZM254.549 214.993V273.649C258.089 272.494 261.308 271.088 264.137 269.458C272.381 264.706 276.914 258.472 276.903 251.896V236.721C276.889 230.158 272.339 223.926 264.092 219.18C261.257 217.545 258.052 216.143 254.549 214.996V214.993Z" fill="#03030F"/>
<path d="M264.821 255.465C282.773 245.127 282.755 228.349 264.776 217.996C246.802 207.642 217.679 207.627 199.723 217.974C181.776 228.317 181.789 245.09 199.764 255.443C217.742 265.8 246.868 265.807 264.821 255.465Z" fill="white"/>
<path d="M232.328 264.551C220.289 264.551 208.25 261.907 199.08 256.628C189.94 251.363 184.906 244.283 184.906 236.692C184.906 229.115 189.925 222.048 199.039 216.793C217.345 206.253 247.139 206.261 265.461 216.813C274.602 222.083 279.639 229.163 279.639 236.753C279.639 244.343 274.621 251.398 265.504 256.649C256.36 261.913 244.347 264.551 232.328 264.551ZM232.215 211.579C220.694 211.579 209.175 214.105 200.408 219.157C192.175 223.901 187.64 230.128 187.642 236.69C187.642 243.265 192.188 249.506 200.448 254.26C218.015 264.384 246.587 264.394 264.137 254.28C272.37 249.54 276.903 243.31 276.903 236.75C276.903 230.19 272.356 223.936 264.092 219.177C255.3 214.112 243.754 211.579 232.211 211.579H232.215Z" fill="#03030F"/>
<path d="M228.866 242.351C230.149 241.615 230.812 240.813 230.847 239.939C230.886 239.072 230.322 237.889 229.161 236.39C226.814 233.668 225.574 231.359 225.446 229.469C225.322 227.572 226.69 225.803 229.552 224.146C232.192 222.629 235.213 221.873 238.597 221.891C241.987 221.905 245.293 222.668 248.519 224.183L253.543 221.294L257.275 223.443L252.186 226.374C254.612 228.229 255.72 230.129 255.514 232.09C255.302 234.054 253.728 235.853 250.789 237.498L250.622 237.533L243.926 233.679C245.634 232.696 246.554 231.718 246.696 230.744C246.835 229.77 246.211 228.882 244.816 228.079C243.341 227.232 241.897 226.839 240.471 226.899C239.043 226.959 237.686 227.369 236.39 228.111C235.182 228.812 234.57 229.562 234.549 230.381C234.523 231.197 235.087 232.414 236.23 234.026C238.581 236.677 239.798 238.971 239.889 240.906C239.977 242.837 238.595 244.625 235.75 246.263C233.026 247.833 229.998 248.597 226.669 248.557C223.332 248.523 220.041 247.743 216.8 246.217L212.182 248.876L208.446 246.728L213.066 244.066C210.327 242.178 208.855 240.181 208.648 238.072C208.442 235.964 210.044 233.957 213.457 232.067L213.663 232.027L220.341 235.872C218.335 237.024 217.396 238.128 217.524 239.187C217.649 240.239 218.493 241.215 220.062 242.118C221.593 243.002 223.121 243.455 224.64 243.457C226.156 243.464 227.566 243.093 228.866 242.349V242.351Z" fill="#03030F"/>
<path d="M234.064 279.732C233.308 279.732 232.696 279.122 232.696 278.368V263.196C232.696 262.442 233.308 261.83 234.064 261.83C234.82 261.83 235.432 262.442 235.432 263.196V278.368C235.432 279.122 234.82 279.732 234.064 279.732ZM224.505 279.367C223.75 279.367 223.137 278.757 223.137 278.002V262.83C223.137 262.076 223.75 261.465 224.505 261.465C225.261 261.465 225.872 262.076 225.872 262.83V278.002C225.872 278.757 225.261 279.367 224.505 279.367ZM243.622 278.944C242.866 278.944 242.254 278.333 242.254 277.579V262.407C242.254 261.653 242.866 261.042 243.622 261.042C244.378 261.042 244.99 261.653 244.99 262.407V277.579C244.99 278.333 244.378 278.944 243.622 278.944ZM214.946 277.797C214.19 277.797 213.578 277.186 213.578 276.432V261.259C213.578 260.505 214.19 259.895 214.946 259.895C215.701 259.895 216.314 260.505 216.314 261.259V276.432C216.314 277.186 215.701 277.797 214.946 277.797ZM205.386 274.74C204.63 274.74 204.018 274.13 204.018 273.376V258.204C204.018 257.45 204.63 256.838 205.386 256.838C206.142 256.838 206.754 257.45 206.754 258.204V273.376C206.754 274.13 206.142 274.74 205.386 274.74ZM195.826 269.392C195.07 269.392 194.458 268.782 194.458 268.028V252.856C194.458 252.102 195.07 251.49 195.826 251.49C196.582 251.49 197.194 252.102 197.194 252.856V268.028C197.194 268.782 196.582 269.392 195.826 269.392Z" fill="#03030F"/>
<path d="M254.368 286.541C255.529 279.864 252.277 272.413 244.329 265.766C228.421 252.462 199.743 247.417 180.262 254.509C170.52 258.051 164.925 263.961 163.763 270.646L161.131 285.562V285.576L161.127 285.589C159.965 292.263 163.22 299.713 171.161 306.36C187.07 319.663 215.76 324.703 235.233 317.615C244.976 314.076 250.568 308.164 251.736 301.479L254.368 286.537V286.541Z" fill="white"/>
<path d="M215.393 322.171C199.072 322.171 181.526 316.809 170.285 307.408C162.212 300.651 158.481 292.823 159.78 285.359L162.416 270.41C163.714 262.935 169.886 256.832 179.793 253.228C199.65 246.004 228.992 251.16 245.207 264.722C253.281 271.472 257.014 279.307 255.713 286.777L253.081 301.717C251.773 309.203 245.602 315.307 235.699 318.902C229.61 321.119 222.618 322.171 215.393 322.171ZM200.2 252.657C193.269 252.657 186.574 253.666 180.731 255.793C171.783 259.044 166.235 264.406 165.111 270.882L162.476 285.802C161.349 292.291 164.746 299.212 172.043 305.319C187.595 318.324 215.736 323.271 234.762 316.337C243.707 313.089 249.256 307.731 250.389 301.247L253.021 286.307C254.143 279.837 250.746 272.916 243.448 266.811C232.671 257.801 215.845 252.657 200.198 252.657H200.2Z" fill="#03030F"/>
<path d="M251.736 301.481L254.368 286.54C255.53 279.864 252.277 272.413 244.329 265.766C241.234 263.182 237.649 260.915 233.75 258.979L222.926 320.398C227.271 319.908 231.43 319.001 235.233 317.615C244.976 314.077 250.568 308.164 251.736 301.479V301.481Z" fill="#03030F"/>
<path d="M222.926 321.764C222.553 321.764 222.188 321.611 221.929 321.333C221.634 321.02 221.504 320.585 221.579 320.165L232.403 258.745C232.476 258.319 232.748 257.957 233.132 257.761C233.517 257.57 233.971 257.567 234.357 257.757C238.465 259.8 242.117 262.141 245.205 264.717C253.283 271.472 257.014 279.307 255.715 286.774L253.083 301.715C251.777 309.2 245.604 315.305 235.701 318.899C231.927 320.274 227.679 321.238 223.081 321.756C223.031 321.76 222.977 321.764 222.928 321.764H222.926ZM234.774 261.042L224.593 318.809C228.279 318.285 231.69 317.452 234.765 316.331C243.709 313.085 249.258 307.727 250.392 301.243L253.023 286.302C254.149 279.832 250.749 272.911 243.45 266.807C240.939 264.711 238.027 262.774 234.774 261.04V261.042Z" fill="#03030F"/>
<path d="M237.866 302.677C257.341 295.597 260.234 279.068 244.327 265.766C228.419 252.462 199.74 247.417 180.26 254.509C160.786 261.595 157.888 278.116 173.795 291.419C189.7 304.724 218.388 309.767 237.864 302.677H237.866Z" fill="white"/>
<path d="M218.029 307.23C201.704 307.23 184.157 301.867 172.921 292.465C164.832 285.703 161.101 277.859 162.418 270.387C163.733 262.922 169.905 256.83 179.793 253.231C199.65 246.007 228.992 251.162 245.207 264.725C253.3 271.488 257.027 279.334 255.711 286.811C254.397 294.276 248.224 300.369 238.335 303.965H238.339C232.242 306.182 225.256 307.234 218.029 307.234V307.23ZM200.2 252.656C193.269 252.656 186.574 253.666 180.731 255.793C171.797 259.043 166.251 264.392 165.109 270.855C163.971 277.331 167.368 284.264 174.677 290.375C190.227 303.38 218.361 308.335 237.399 301.398H237.403C246.332 298.151 251.88 292.805 253.019 286.337C254.159 279.86 250.761 272.928 243.45 266.813C232.673 257.804 215.847 252.659 200.2 252.659V252.656Z" fill="#03030F"/>
<path d="M213.153 322.16C213.074 322.16 212.996 322.152 212.919 322.138C212.175 322.006 211.676 321.301 211.808 320.561L214.44 305.62C214.572 304.877 215.303 304.386 216.021 304.512C216.766 304.644 217.264 305.349 217.132 306.09L214.5 321.03C214.382 321.694 213.805 322.16 213.153 322.16ZM203.603 321.284C203.524 321.284 203.446 321.278 203.364 321.264C202.62 321.132 202.124 320.427 202.256 319.687L204.888 304.745C205.02 304.003 205.727 303.508 206.471 303.638C207.215 303.769 207.712 304.475 207.58 305.215L204.948 320.156C204.832 320.82 204.254 321.284 203.603 321.284ZM194.252 319.275C194.173 319.275 194.095 319.268 194.014 319.254C193.269 319.126 192.773 318.417 192.905 317.676L195.537 302.733C195.667 301.991 196.386 301.488 197.12 301.624C197.865 301.752 198.361 302.463 198.229 303.203L195.597 318.145C195.481 318.809 194.904 319.275 194.252 319.275ZM185.11 316.078C185.031 316.078 184.952 316.07 184.871 316.057C184.127 315.93 183.631 315.219 183.764 314.479L186.394 299.536C186.524 298.794 187.243 298.296 187.979 298.428C188.723 298.555 189.219 299.266 189.086 300.006L186.454 314.949C186.339 315.612 185.762 316.078 185.11 316.078ZM176.227 311.416C176.148 311.416 176.07 311.41 175.989 311.396C175.245 311.268 174.748 310.559 174.88 309.818L177.512 294.877C177.642 294.13 178.349 293.644 179.096 293.769C179.84 293.901 180.336 294.606 180.204 295.347L177.572 310.288C177.456 310.952 176.879 311.416 176.227 311.416ZM167.741 304.503C167.663 304.503 167.584 304.495 167.503 304.481C166.758 304.355 166.262 303.644 166.394 302.904L169.026 287.961C169.156 287.214 169.87 286.723 170.609 286.853C171.354 286.98 171.85 287.69 171.718 288.43L169.086 303.374C168.97 304.038 168.394 304.503 167.741 304.503Z" fill="#03030F"/>
<path d="M195.685 283.894C192.02 280.824 192.045 277.121 195.379 274.9L203.719 281.881L210.471 282.02L199.727 273.033L203.473 271.669L212.052 278.847L218.808 278.988L208.303 270.197C213.314 269.388 219.497 270.829 223.161 273.899C226.17 276.413 226.754 279.485 224.814 281.743L230.403 286.415C230.51 286.356 230.63 286.298 230.723 286.23C235.839 282.405 235.388 276.366 229.622 271.546C223.035 266.036 211.597 263.649 202.926 265.705L200.142 263.378L193.386 263.233L198.182 267.248L194.435 268.613L191.804 266.411L185.052 266.269L190.002 270.408C183.158 273.996 182.634 280.729 189.223 286.24C194.989 291.061 204.867 293.67 213.258 292.582C213.415 292.568 213.552 292.524 213.698 292.497L208.108 287.817C203.582 287.912 198.692 286.406 195.683 283.891L195.685 283.894Z" fill="#03030F"/>
<path d="M194.456 224.562C190.607 218.981 183.061 215.923 172.722 216.712C152.024 218.296 127.983 234.69 119.019 253.344C114.536 262.672 114.674 270.799 118.528 276.392L127.1 288.895C127.1 288.895 127.104 288.899 127.106 288.907L127.113 288.913C130.96 294.5 138.507 297.558 148.842 296.77C169.541 295.191 193.587 278.787 202.545 260.137C207.033 250.807 206.891 242.682 203.039 237.089L194.454 224.566L194.456 224.562Z" fill="white"/>
<path d="M145.681 298.254C136.751 298.254 129.83 295.266 125.986 289.681L117.398 277.16C113.09 270.907 113.228 262.238 117.786 252.751C126.921 233.743 151.518 216.966 172.617 215.348C183.116 214.542 191.278 217.545 195.583 223.788C195.583 223.792 195.583 223.792 195.583 223.792L204.169 236.315C208.477 242.572 208.338 251.243 203.777 260.725C194.642 279.739 170.044 296.517 148.945 298.127C147.83 298.213 146.737 298.254 145.678 298.254H145.681ZM175.89 217.949C174.896 217.949 173.874 217.988 172.828 218.069C152.594 219.619 129.01 235.707 120.255 253.928C116.137 262.494 115.924 270.198 119.656 275.612L128.231 288.12C131.968 293.549 139.258 296.146 148.741 295.404C168.973 293.861 192.557 277.775 201.314 259.545C205.435 250.981 205.646 243.279 201.917 237.856L193.33 225.333C190.01 220.521 183.884 217.949 175.89 217.949Z" fill="#03030F"/>
<path d="M203.041 237.087L194.456 224.562C190.607 218.981 183.061 215.923 172.722 216.712C168.697 217.025 164.545 217.903 160.401 219.238L195.696 270.706C198.456 267.326 200.8 263.779 202.548 260.137C207.035 250.807 206.893 242.682 203.041 237.089V237.087Z" fill="#03030F"/>
<path d="M195.696 272.069H195.638C195.208 272.05 194.811 271.831 194.568 271.475L159.272 220.005C159.028 219.649 158.968 219.199 159.107 218.793C159.249 218.384 159.571 218.07 159.981 217.938C164.338 216.531 168.59 215.659 172.617 215.347C183.128 214.546 191.278 217.542 195.586 223.785L204.171 236.314C208.481 242.571 208.342 251.24 203.781 260.723C202.049 264.331 199.687 267.981 196.756 271.567C196.497 271.883 196.107 272.069 195.696 272.069ZM162.578 219.997L195.776 268.404C198.043 265.455 199.903 262.483 201.312 259.543C205.432 250.98 205.644 243.276 201.915 237.854L193.33 225.331C189.603 219.923 182.321 217.336 172.828 218.07C169.555 218.322 166.117 218.969 162.578 219.997Z" fill="#03030F"/>
<path d="M193.962 247.615C202.926 228.967 193.417 215.129 172.724 216.71C152.026 218.295 127.985 234.688 119.021 253.342C110.063 271.991 119.567 285.826 140.259 284.246C160.958 282.664 185.004 266.263 193.962 247.615Z" fill="white"/>
<path d="M137.088 285.733C128.147 285.733 121.222 282.737 117.382 277.139C113.09 270.887 113.234 262.224 117.786 252.751C126.921 233.744 151.518 216.967 172.617 215.35C183.144 214.535 191.305 217.557 195.601 223.82C199.891 230.078 199.747 238.736 195.194 248.204C186.058 267.216 161.46 283.994 140.361 285.606C139.243 285.692 138.15 285.733 137.088 285.733ZM175.894 217.95C174.899 217.95 173.879 217.989 172.828 218.07C152.594 219.62 129.01 235.708 120.255 253.929C116.144 262.485 115.926 270.179 119.64 275.595C123.362 281.024 130.646 283.617 140.156 282.881C160.39 281.335 183.971 265.247 192.729 247.022C196.84 238.47 197.058 230.774 193.343 225.358C190.033 220.531 183.9 217.947 175.894 217.947V217.95Z" fill="#03030F"/>
<path d="M144.134 298.213C143.698 298.213 143.269 298.007 143.003 297.619L134.417 285.094C133.99 284.472 134.15 283.623 134.774 283.198C135.4 282.772 136.249 282.932 136.675 283.554L145.261 296.077C145.687 296.7 145.528 297.549 144.904 297.975C144.667 298.134 144.398 298.213 144.131 298.213H144.134ZM155.05 297.239C154.614 297.239 154.185 297.033 153.918 296.644L145.332 284.123C144.906 283.501 145.066 282.652 145.689 282.227C146.315 281.803 147.164 281.96 147.59 282.582L156.177 295.104C156.603 295.726 156.443 296.574 155.819 297.001C155.583 297.16 155.314 297.239 155.047 297.239H155.05ZM164.669 294.379C164.233 294.379 163.805 294.174 163.538 293.787L154.952 281.264C154.526 280.642 154.685 279.793 155.309 279.367C155.935 278.942 156.784 279.101 157.21 279.723L165.797 292.247C166.223 292.869 166.063 293.718 165.439 294.144C165.203 294.303 164.933 294.383 164.667 294.383L164.669 294.379ZM173.448 290.29C173.012 290.29 172.582 290.084 172.316 289.696L163.731 277.174C163.303 276.552 163.464 275.702 164.088 275.277C164.714 274.859 165.56 275.011 165.989 275.634L174.574 288.155C175.001 288.777 174.841 289.626 174.218 290.051C173.981 290.211 173.712 290.29 173.446 290.29H173.448ZM181.542 285.205C181.106 285.205 180.677 285 180.41 284.611L171.824 272.089C171.398 271.467 171.558 270.619 172.181 270.193C172.81 269.77 173.659 269.927 174.082 270.549L182.669 283.07C183.095 283.693 182.935 284.542 182.312 284.968C182.076 285.127 181.806 285.205 181.539 285.205H181.542ZM188.985 279.173C188.549 279.173 188.119 278.967 187.853 278.579L179.268 266.055C178.84 265.432 179.001 264.583 179.625 264.158C180.25 263.734 181.101 263.892 181.526 264.514L190.111 277.038C190.538 277.66 190.378 278.509 189.754 278.934C189.518 279.094 189.249 279.173 188.983 279.173H188.985Z" fill="#03030F"/>
<path d="M150.64 263.598C145.869 263.957 143.292 261.292 144.121 257.38L154.976 256.552L159.9 251.947L145.919 253.013L147.646 249.425L158.809 248.571L163.739 243.964L150.067 245.009C153.079 240.931 158.512 237.651 163.285 237.287C167.199 236.99 169.766 238.779 169.958 241.745L177.234 241.188C177.268 241.069 177.313 240.947 177.334 240.832C178.31 234.528 173.758 230.524 166.258 231.096C157.686 231.753 147.836 238.021 143.074 245.539L139.453 245.817L134.521 250.424L140.767 249.948L139.04 253.536L135.613 253.795L130.683 258.402L137.127 257.912C134.749 265.252 139.088 270.434 147.66 269.779C155.161 269.203 164.053 264.179 169.295 257.553C169.394 257.429 169.466 257.302 169.547 257.182L162.272 257.736C159.103 260.964 154.551 263.293 150.638 263.596L150.64 263.598Z" fill="#03030F"/>
<path d="M200.756 179.465C186.524 179.465 172.539 178.137 159.188 175.519C158.448 175.373 157.964 174.655 158.111 173.915C158.256 173.178 158.973 172.689 159.717 172.84C172.894 175.426 186.7 176.737 200.756 176.737C216.411 176.737 231.717 175.119 246.24 171.924C246.996 171.764 247.707 172.229 247.87 172.963C248.034 173.699 247.566 174.427 246.831 174.589C232.112 177.825 216.61 179.467 200.756 179.467V179.465Z" fill="#03030F"/>
<path d="M176.935 85.2414C180.791 84.6978 184.458 83.6036 187.468 81.8711L235.155 54.4065C236.917 41.6376 235.641 28.2558 230.882 17.9274C226.55 8.52658 220.19 3.44448 213.417 2.8338L198.301 1.42969C198.301 1.42969 198.293 1.42969 198.287 1.42969L198.275 1.43433C191.512 0.819012 184.334 4.6566 178.342 13.0974C166.342 30 163.638 58.9357 172.303 77.7235C173.659 80.6682 175.231 83.1526 176.935 85.2414Z" fill="white"/>
<path d="M176.935 86.6062C176.526 86.6062 176.138 86.4258 175.875 86.1043C174.02 83.8304 172.4 81.2049 171.059 78.2903C162.226 59.137 164.994 29.535 177.227 12.3087C183.283 3.76839 190.758 -0.601241 198.293 0.0672728C198.375 0.0857783 198.382 0.0718992 198.425 0.0742125L213.545 1.47833C221.12 2.16071 227.723 7.8026 232.124 17.3608C236.781 27.4647 238.382 41.0386 236.508 54.5916C236.45 55.0103 236.205 55.3758 235.839 55.591L188.152 83.0555C185.124 84.7997 181.412 85.991 177.125 86.5947C177.062 86.6062 177 86.6085 176.935 86.6085V86.6062ZM196.851 2.73439C190.723 2.73439 184.593 6.65063 179.458 13.8863C167.728 30.4048 165.073 58.7854 173.545 77.1499C174.671 79.5973 176.005 81.8226 177.514 83.7725C181.088 83.1942 184.28 82.1301 186.787 80.6845L233.888 53.5576C235.551 40.724 234.014 27.9806 229.641 18.4942C225.667 9.86366 219.861 4.78387 213.295 4.18939L198.272 2.79684C198.233 2.79684 198.194 2.79222 198.154 2.7899C197.721 2.75058 197.289 2.73207 196.855 2.73207L196.851 2.73439Z" fill="#03030F"/>
<path d="M176.935 85.2417C180.791 84.6981 184.458 83.604 187.468 81.8714L209.014 69.4635L168.524 65.7114C169.367 69.9932 170.607 74.0528 172.303 77.7239C173.659 80.6685 175.231 83.153 176.935 85.2417Z" fill="#03030F"/>
<path d="M176.935 86.6063C176.526 86.6063 176.138 86.4259 175.875 86.1044C174.02 83.8305 172.4 81.205 171.059 78.2903C169.383 74.6586 168.078 70.5135 167.181 65.9726C167.099 65.5493 167.22 65.1121 167.508 64.7975C167.795 64.4782 168.226 64.3279 168.648 64.3533L209.14 68.1054C209.733 68.1586 210.223 68.5912 210.348 69.1718C210.475 69.7501 210.213 70.3469 209.696 70.6452L188.15 83.0533C185.122 84.7974 181.41 85.9887 177.123 86.5925C177.06 86.604 176.997 86.6063 176.933 86.6063H176.935ZM170.245 67.2426C171.071 70.8696 172.179 74.1961 173.545 77.1523C174.672 79.5997 176.005 81.8249 177.514 83.7749C181.088 83.1967 184.28 82.1326 186.787 80.6869L204.609 70.4255L170.245 67.2426Z" fill="#03030F"/>
<path d="M188.549 81.2533L235.155 54.4063C236.917 41.6375 235.641 28.2557 230.881 17.9273C222.221 -0.860534 205.479 -2.39649 193.485 14.5014C181.483 31.3993 178.78 60.3373 187.445 79.1228C187.795 79.8769 188.175 80.5546 188.549 81.251V81.2533Z" fill="white"/>
<path d="M188.549 82.6162C188.421 82.6162 188.298 82.5976 188.173 82.563C187.816 82.4635 187.516 82.2229 187.343 81.8944L187.134 81.5104C186.816 80.9206 186.499 80.3353 186.202 79.6945C177.363 60.5367 180.132 30.9416 192.367 13.713C198.465 5.12178 206.008 0.761411 213.573 1.47619C221.136 2.17708 227.725 7.81435 232.124 17.3586C236.781 27.4626 238.382 41.0364 236.508 54.5895C236.45 55.0081 236.205 55.3737 235.839 55.5888L189.233 82.4357C189.022 82.556 188.787 82.6162 188.549 82.6162ZM211.998 4.13173C205.87 4.13173 199.74 8.04797 194.6 15.2906C182.868 31.8091 180.213 60.1897 188.688 78.5519C188.815 78.8318 188.952 79.1024 189.089 79.3661L233.888 53.56C235.55 40.7265 234.013 27.9831 229.641 18.4967C225.669 9.88003 219.872 4.80025 213.322 4.19188C212.884 4.15256 212.444 4.13173 212 4.13173H211.998Z" fill="#03030F"/>
<path d="M182.479 58.7877C182.437 58.7877 182.392 58.7831 182.351 58.7808L167.206 57.3813C166.454 57.3142 165.9 56.6503 165.97 55.9009C166.04 55.1468 166.71 54.6193 167.458 54.6678L182.603 56.0674C183.355 56.1344 183.909 56.7983 183.84 57.5478C183.774 58.2579 183.177 58.7877 182.479 58.7877ZM182.574 49.2226C182.532 49.2226 182.487 49.218 182.446 49.2156L167.303 47.8162C166.553 47.7492 165.998 47.0852 166.068 46.3358C166.137 45.5816 166.801 45.0381 167.556 45.1028L182.698 46.5023C183.45 46.5694 184.004 47.2333 183.935 47.9827C183.869 48.6929 183.272 49.2226 182.574 49.2226ZM183.824 39.764C183.781 39.764 183.737 39.7593 183.696 39.757L168.553 38.353C167.801 38.2858 167.247 37.622 167.317 36.8678C167.387 36.1184 168.064 35.5863 168.805 35.6395L183.948 37.0436C184.7 37.1107 185.254 37.7747 185.184 38.5288C185.119 39.2366 184.521 39.7663 183.824 39.7663V39.764ZM186.27 30.4117C186.227 30.4117 186.184 30.4071 186.142 30.4047L171.006 29.0007C170.255 28.9336 169.7 28.2697 169.77 27.5156C169.84 26.7662 170.503 26.2225 171.259 26.2872L186.394 27.6914C187.146 27.7585 187.7 28.4224 187.63 29.1765C187.566 29.8843 186.967 30.414 186.27 30.414V30.4117ZM190.204 21.1959C190.163 21.1959 190.118 21.1913 190.076 21.189L174.934 19.7895C174.183 19.7225 173.628 19.0586 173.698 18.3068C173.768 17.5526 174.452 17.016 175.187 17.0738L190.33 18.4733C191.08 18.5404 191.634 19.2043 191.565 19.9537C191.5 20.6639 190.902 21.1936 190.204 21.1936V21.1959ZM196.429 12.1953C196.388 12.1953 196.343 12.1907 196.302 12.1884L181.159 10.7843C180.408 10.7172 179.853 10.0533 179.923 9.29919C179.993 8.54971 180.656 7.99223 181.412 8.07088L196.555 9.47499C197.306 9.54207 197.86 10.206 197.791 10.9601C197.725 11.6678 197.128 12.1977 196.429 12.1977V12.1953Z" fill="#03030F"/>
<path d="M203.409 55.1282C205.307 55.1791 207.725 54.1544 210.659 52.0794C212.266 51.0639 213.494 50.6152 214.355 50.7377C215.223 50.8511 215.963 51.5844 216.58 52.926C217.204 54.2839 217.442 55.7181 217.291 57.2263C217.151 58.7322 216.56 60.2103 215.537 61.6537C214.489 63.125 213.436 63.8767 212.374 63.8999C211.303 63.9323 210.289 62.8936 209.326 60.8025L204.869 67.0759L204.89 67.2817C205.528 68.7275 206.219 69.8193 206.948 70.6543L220.605 62.7872C221.655 60.4809 222.314 58.1122 222.566 55.681C222.913 52.3801 222.432 49.3036 221.118 46.4468C219.748 43.472 218.092 41.9338 216.149 41.8413C214.215 41.7487 211.811 42.7504 208.948 44.8391C207.231 45.8269 205.966 46.271 205.154 46.1715C204.336 46.0744 203.647 45.4013 203.056 44.129C202.437 42.7757 202.152 41.3901 202.223 39.9676C202.297 38.5426 202.822 37.1432 203.805 35.7575C204.735 34.4505 205.678 33.9093 206.64 34.1383C207.595 34.365 208.489 35.3736 209.312 37.157L213.777 30.8651L213.758 30.6939C212.39 27.6197 210.742 25.894 208.795 25.5032C206.861 25.1122 204.859 26.0351 202.782 28.2813L200.332 22.9517L197.839 26.4631L200.258 31.721C198.444 34.7837 197.38 37.9944 197.053 41.3647C196.721 44.7257 197.2 47.8001 198.47 50.5596C199.854 53.5506 201.498 55.0796 203.401 55.1282H203.409Z" fill="#03030F"/>
<path d="M38.4666 196.696L20.1567 186.143L1.8678 196.681L1.87013 235.344L20.1799 245.89L38.4666 235.358V196.696Z" fill="white"/>
<path d="M20.18 247.255C19.9435 247.255 19.7094 247.195 19.4961 247.075L1.18624 236.529C0.761937 236.284 0.502257 235.833 0.502257 235.347L0.49762 196.684C0.49762 196.198 0.7573 195.748 1.1816 195.502L19.4728 184.963C19.8972 184.722 20.4166 184.722 20.8408 184.963L39.1484 195.515C39.5726 195.761 39.8323 196.212 39.8323 196.698V235.361C39.8323 235.847 39.5726 236.3 39.1484 236.545L20.8617 247.077C20.6507 247.197 20.4142 247.257 20.1777 247.257L20.18 247.255ZM3.23818 234.555L20.18 244.315L37.0986 234.569V197.484L20.1569 187.718L3.23355 197.471L3.23818 234.555Z" fill="#03030F"/>
<path d="M20.1756 207.228L1.8681 196.681L20.1571 186.143L38.4668 196.696L20.1756 207.228Z" fill="white"/>
<path d="M20.1752 208.59C19.9387 208.59 19.7046 208.53 19.4912 208.41L1.18374 197.864C0.759436 197.619 0.499756 197.168 0.499756 196.682C0.499756 196.197 0.759436 195.745 1.18374 195.5L19.475 184.961C19.8993 184.721 20.4186 184.721 20.843 184.961L39.1504 195.514C39.5748 195.76 39.8345 196.21 39.8345 196.696C39.8345 197.182 39.5748 197.635 39.1504 197.88L20.8592 208.412C20.6482 208.532 20.4117 208.592 20.1752 208.592V208.59ZM4.60132 196.679L20.1752 205.651L35.7306 196.694L20.1567 187.716L4.60132 196.679Z" fill="#03030F"/>
<path d="M20.18 245.89L20.1754 207.228L38.4667 196.696V235.358L20.18 245.89Z" fill="url(#paint2_linear_4326_765)"/>
<path d="M20.1799 247.255C19.9434 247.255 19.7092 247.195 19.4959 247.075C19.0716 246.83 18.8119 246.378 18.8119 245.89L18.8073 207.227C18.8073 206.741 19.067 206.291 19.4912 206.046L37.7825 195.514C38.2069 195.273 38.7262 195.273 39.1505 195.514C39.5748 195.759 39.8344 196.21 39.8344 196.696V235.358C39.8344 235.844 39.5748 236.298 39.1505 236.543L20.8639 247.075C20.6528 247.195 20.4164 247.255 20.1799 247.255ZM21.5433 208.017L21.5479 243.528L37.1009 234.572V199.06L21.5456 208.017H21.5433Z" fill="#03030F"/>
<path d="M56.779 230.087L38.4668 219.541L20.1802 230.073V245.89L38.4854 256.443L56.7744 245.905L56.779 230.087Z" fill="white"/>
<path d="M38.4853 257.807C38.2487 257.807 38.0123 257.747 37.8012 257.622L19.4961 247.07C19.0718 246.829 18.8121 246.379 18.8121 245.89V230.072C18.8121 229.586 19.0718 229.136 19.4961 228.891L37.7828 218.359C38.207 218.118 38.7264 218.118 39.1507 218.359L57.4628 228.904C57.8871 229.149 58.1468 229.6 58.1468 230.089L58.1421 245.907C58.1421 246.392 57.8825 246.843 57.4582 247.088L39.1669 257.628C38.9559 257.747 38.7194 257.807 38.483 257.807H38.4853ZM21.5481 245.101L38.4853 254.868L55.4086 245.115L55.4132 230.876L38.469 221.115L21.5504 230.861V245.101H21.5481Z" fill="#03030F"/>
<path d="M38.4877 240.618L20.1802 230.073L38.4668 219.541L56.779 230.087L38.4877 240.618Z" fill="white"/>
<path d="M38.4876 241.98C38.251 241.98 38.0169 241.92 37.8036 241.801L19.4961 231.255C19.0718 231.009 18.8121 230.558 18.8121 230.07C18.8121 229.583 19.0718 229.134 19.4961 228.888L37.7828 218.356C38.207 218.116 38.7264 218.116 39.1507 218.356L57.4628 228.902C57.8871 229.148 58.1468 229.598 58.1468 230.086C58.1468 230.574 57.8871 231.023 57.4628 231.269L39.1716 241.801C38.9605 241.92 38.7241 241.98 38.4876 241.98ZM22.9137 230.07L38.4876 239.041L54.0429 230.084L38.4667 221.114L22.9137 230.07Z" fill="#03030F"/>
<path d="M38.4854 256.443L38.4877 240.618L56.779 230.086L56.7744 245.904L38.4854 256.443Z" fill="#03030F"/>
<path d="M38.4853 257.809C38.2489 257.809 38.0123 257.748 37.8014 257.628C37.377 257.382 37.1173 256.931 37.1173 256.443L37.122 240.618C37.122 240.133 37.3817 239.68 37.8059 239.435L56.0972 228.903C56.5216 228.662 57.0409 228.662 57.4652 228.903C57.8894 229.148 58.1491 229.598 58.1491 230.086L58.1445 245.904C58.1445 246.391 57.8848 246.841 57.4605 247.086L39.1693 257.625C38.9582 257.745 38.7218 257.805 38.4853 257.805V257.809ZM39.8556 241.407L39.851 254.081L55.4063 245.118L55.4109 232.45L39.8556 241.407Z" fill="#03030F"/>
</g>
<defs>
<linearGradient id="paint0_linear_4326_765" x1="414.986" y1="188.232" x2="414.986" y2="237.431" gradientUnits="userSpaceOnUse">
<stop stop-color="#85D8EB"/>
<stop offset="0.838542" stop-color="#1177E8"/>
</linearGradient>
<linearGradient id="paint1_linear_4326_765" x1="208.182" y1="376.547" x2="208.182" y2="398.636" gradientUnits="userSpaceOnUse">
<stop stop-color="#85D8EB"/>
<stop offset="0.838542" stop-color="#1177E8"/>
</linearGradient>
<linearGradient id="paint2_linear_4326_765" x1="29.3211" y1="196.696" x2="29.3211" y2="245.89" gradientUnits="userSpaceOnUse">
<stop stop-color="#85D8EB"/>
<stop offset="0.838542" stop-color="#1177E8"/>
</linearGradient>
</defs>
</svg>
