<svg width="16" height="16" viewBox="0 0 16 16" fill="none" xmlns="http://www.w3.org/2000/svg">
<path d="M14.3525 0.499983H1.64754C1.50473 0.497999 1.36292 0.524168 1.23022 0.576996C1.09752 0.629823 0.976521 0.708273 0.874142 0.807867C0.771763 0.90746 0.690005 1.02625 0.633538 1.15744C0.577071 1.28863 0.547 1.42967 0.545044 1.57248V14.4275C0.547 14.5703 0.577071 14.7113 0.633538 14.8425C0.690005 14.9737 0.771763 15.0925 0.874142 15.1921C0.976521 15.2917 1.09752 15.3701 1.23022 15.423C1.36292 15.4758 1.50473 15.502 1.64754 15.5H14.3525C14.4954 15.502 14.6372 15.4758 14.7699 15.423C14.9026 15.3701 15.0236 15.2917 15.1259 15.1921C15.2283 15.0925 15.3101 14.9737 15.3666 14.8425C15.423 14.7113 15.4531 14.5703 15.455 14.4275V1.57248C15.4531 1.42967 15.423 1.28863 15.3666 1.15744C15.3101 1.02625 15.2283 0.90746 15.1259 0.807867C15.0236 0.708273 14.9026 0.629823 14.7699 0.576996C14.6372 0.524168 14.4954 0.497999 14.3525 0.499983ZM5.06754 13.055H2.81754V6.30498H5.06754V13.055ZM3.94254 5.35998C3.63224 5.35998 3.33465 5.23672 3.11523 5.0173C2.89581 4.79788 2.77254 4.50029 2.77254 4.18998C2.77254 3.87968 2.89581 3.58209 3.11523 3.36267C3.33465 3.14325 3.63224 3.01998 3.94254 3.01998C4.10732 3.0013 4.27418 3.01762 4.4322 3.0679C4.59022 3.11817 4.73585 3.20125 4.85954 3.3117C4.98323 3.42216 5.08219 3.55749 5.14995 3.70884C5.21771 3.8602 5.25273 4.02415 5.25273 4.18998C5.25273 4.35581 5.21771 4.51977 5.14995 4.67112C5.08219 4.82247 4.98323 4.95781 4.85954 5.06826C4.73585 5.17872 4.59022 5.2618 4.4322 5.31207C4.27418 5.36234 4.10732 5.37867 3.94254 5.35998ZM13.1825 13.055H10.9325V9.43248C10.9325 8.52498 10.61 7.93248 9.79254 7.93248C9.53954 7.93434 9.29319 8.01369 9.08667 8.15986C8.88016 8.30603 8.72341 8.51199 8.63755 8.74998C8.57885 8.92626 8.55342 9.11191 8.56254 9.29748V13.0475H6.31254V6.29748H8.56254V7.24998C8.76694 6.89531 9.06423 6.60312 9.42238 6.40488C9.78053 6.20665 10.186 6.10987 10.595 6.12498C12.095 6.12498 13.1825 7.09248 13.1825 9.16998V13.055Z" fill="#439DFF"/>
</svg>
