<svg width="50" height="50" viewBox="0 0 50 50" fill="none" xmlns="http://www.w3.org/2000/svg">
<path d="M37.5 14.9168C37.375 14.8959 37.2292 14.8959 37.1042 14.9168C34.2292 14.8126 31.9375 12.4584 31.9375 9.54175C31.9375 6.56259 34.3333 4.16675 37.3125 4.16675C40.2917 4.16675 42.6875 6.58342 42.6875 9.54175C42.6667 12.4584 40.375 14.8126 37.5 14.9168Z" stroke="#439DFF" stroke-width="1.5" stroke-linecap="round" stroke-linejoin="round"/>
<path d="M35.3542 30.0835C38.2083 30.5627 41.3542 30.0627 43.5625 28.5835C46.5 26.6252 46.5 23.4168 43.5625 21.4585C41.3333 19.9793 38.1458 19.4793 35.2917 19.9793" stroke="#439DFF" stroke-width="1.5" stroke-linecap="round" stroke-linejoin="round"/>
<path d="M12.4375 14.9168C12.5625 14.8959 12.7083 14.8959 12.8333 14.9168C15.7083 14.8126 18 12.4584 18 9.54175C18 6.56259 15.6042 4.16675 12.625 4.16675C9.64584 4.16675 7.25 6.58342 7.25 9.54175C7.27083 12.4584 9.5625 14.8126 12.4375 14.9168Z" stroke="#439DFF" stroke-width="1.5" stroke-linecap="round" stroke-linejoin="round"/>
<path d="M14.5833 30.0835C11.7292 30.5627 8.58334 30.0627 6.37501 28.5835C3.43751 26.6252 3.43751 23.4168 6.37501 21.4585C8.60417 19.9793 11.7917 19.4793 14.6458 19.9793" stroke="#439DFF" stroke-width="1.5" stroke-linecap="round" stroke-linejoin="round"/>
<path d="M25 30.4793C24.875 30.4584 24.7292 30.4584 24.6042 30.4793C21.7292 30.3751 19.4375 28.0209 19.4375 25.1043C19.4375 22.1251 21.8333 19.7292 24.8125 19.7292C27.7917 19.7292 30.1875 22.1459 30.1875 25.1043C30.1667 28.0209 27.875 30.3959 25 30.4793Z" stroke="#439DFF" stroke-width="1.5" stroke-linecap="round" stroke-linejoin="round"/>
<path d="M18.9375 37.0417C16 39.0001 16 42.2084 18.9375 44.1667C22.2708 46.3959 27.7292 46.3959 31.0625 44.1667C34 42.2084 34 39.0001 31.0625 37.0417C27.75 34.8334 22.2708 34.8334 18.9375 37.0417Z" stroke="#439DFF" stroke-width="1.5" stroke-linecap="round" stroke-linejoin="round"/>
</svg>
